<svg width="1021" height="144" viewBox="0 0 1021 144" fill="none" xmlns="http://www.w3.org/2000/svg">
<line x1="0.5" y1="143.5" x2="1020.5" y2="143.5" stroke="#D5D5D5"/>
<line x1="0.5" y1="0.5" x2="1020.5" y2="0.5" stroke="#D5D5D5"/>
<line x1="513" y1="144" x2="513" y2="1" stroke="#D5D5D5"/>
<path d="M95.35 94C95.0167 94 94.7167 93.8833 94.45 93.65C94.2167 93.4167 94.1 93.1167 94.1 92.75V67.9L86.9 73.45C86.6 73.6833 86.2833 73.7667 85.95 73.7C85.65 73.6333 85.3833 73.45 85.15 73.15L82.65 69.9C82.45 69.6 82.3667 69.2833 82.4 68.95C82.4667 68.6167 82.65 68.35 82.95 68.15L94.35 59.35C94.55 59.2167 94.7333 59.1333 94.9 59.1C95.1 59.0333 95.3167 59 95.55 59H100.85C101.183 59 101.467 59.1167 101.7 59.35C101.933 59.5833 102.05 59.8833 102.05 60.25V92.75C102.05 93.1167 101.933 93.4167 101.7 93.65C101.467 93.8833 101.183 94 100.85 94H95.35ZM122.126 94.5C119.726 94.5 117.659 94.1667 115.926 93.5C114.226 92.8 112.809 91.85 111.676 90.65C110.576 89.4167 109.742 88 109.176 86.4C108.642 84.7667 108.326 83.0333 108.226 81.2C108.192 80.3 108.159 79.3 108.126 78.2C108.126 77.0667 108.126 75.9333 108.126 74.8C108.159 73.6667 108.192 72.6333 108.226 71.7C108.292 69.8667 108.609 68.15 109.176 66.55C109.776 64.95 110.642 63.55 111.776 62.35C112.909 61.15 114.326 60.2167 116.026 59.55C117.759 58.85 119.792 58.5 122.126 58.5C124.459 58.5 126.476 58.85 128.176 59.55C129.876 60.2167 131.292 61.15 132.426 62.35C133.559 63.55 134.409 64.95 134.976 66.55C135.576 68.15 135.926 69.8667 136.026 71.7C136.059 72.6333 136.076 73.6667 136.076 74.8C136.109 75.9333 136.109 77.0667 136.076 78.2C136.076 79.3 136.059 80.3 136.026 81.2C135.926 83.0333 135.592 84.7667 135.026 86.4C134.459 88 133.609 89.4167 132.476 90.65C131.376 91.85 129.959 92.8 128.226 93.5C126.526 94.1667 124.492 94.5 122.126 94.5ZM122.126 88C124.059 88 125.476 87.3667 126.376 86.1C127.276 84.8333 127.759 83.1167 127.826 80.95C127.859 79.9833 127.876 78.9833 127.876 77.95C127.909 76.9167 127.909 75.8833 127.876 74.85C127.876 73.8167 127.859 72.85 127.826 71.95C127.759 69.8833 127.276 68.2 126.376 66.9C125.476 65.6 124.059 64.9333 122.126 64.9C120.159 64.9333 118.726 65.6 117.826 66.9C116.959 68.2 116.492 69.8833 116.426 71.95C116.392 72.85 116.359 73.8167 116.326 74.85C116.326 75.8833 116.326 76.9167 116.326 77.95C116.359 78.9833 116.392 79.9833 116.426 80.95C116.492 83.1167 116.976 84.8333 117.876 86.1C118.776 87.3667 120.192 88 122.126 88ZM155.524 94.5C153.124 94.5 151.058 94.1667 149.324 93.5C147.624 92.8 146.208 91.85 145.074 90.65C143.974 89.4167 143.141 88 142.574 86.4C142.041 84.7667 141.724 83.0333 141.624 81.2C141.591 80.3 141.558 79.3 141.524 78.2C141.524 77.0667 141.524 75.9333 141.524 74.8C141.558 73.6667 141.591 72.6333 141.624 71.7C141.691 69.8667 142.008 68.15 142.574 66.55C143.174 64.95 144.041 63.55 145.174 62.35C146.308 61.15 147.724 60.2167 149.424 59.55C151.158 58.85 153.191 58.5 155.524 58.5C157.858 58.5 159.874 58.85 161.574 59.55C163.274 60.2167 164.691 61.15 165.824 62.35C166.958 63.55 167.808 64.95 168.374 66.55C168.974 68.15 169.324 69.8667 169.424 71.7C169.458 72.6333 169.474 73.6667 169.474 74.8C169.508 75.9333 169.508 77.0667 169.474 78.2C169.474 79.3 169.458 80.3 169.424 81.2C169.324 83.0333 168.991 84.7667 168.424 86.4C167.858 88 167.008 89.4167 165.874 90.65C164.774 91.85 163.358 92.8 161.624 93.5C159.924 94.1667 157.891 94.5 155.524 94.5ZM155.524 88C157.458 88 158.874 87.3667 159.774 86.1C160.674 84.8333 161.158 83.1167 161.224 80.95C161.258 79.9833 161.274 78.9833 161.274 77.95C161.308 76.9167 161.308 75.8833 161.274 74.85C161.274 73.8167 161.258 72.85 161.224 71.95C161.158 69.8833 160.674 68.2 159.774 66.9C158.874 65.6 157.458 64.9333 155.524 64.9C153.558 64.9333 152.124 65.6 151.224 66.9C150.358 68.2 149.891 69.8833 149.824 71.95C149.791 72.85 149.758 73.8167 149.724 74.85C149.724 75.8833 149.724 76.9167 149.724 77.95C149.758 78.9833 149.791 79.9833 149.824 80.95C149.891 83.1167 150.374 84.8333 151.274 86.1C152.174 87.3667 153.591 88 155.524 88ZM185.773 92.35C185.406 92.35 185.106 92.2333 184.873 92C184.639 91.7667 184.523 91.4667 184.523 91.1V81.65H175.273C174.906 81.65 174.606 81.5333 174.373 81.3C174.139 81.0667 174.023 80.7833 174.023 80.45V77.3C174.023 76.9333 174.139 76.6333 174.373 76.4C174.606 76.1667 174.906 76.05 175.273 76.05H184.523V66.9C184.523 66.5333 184.639 66.2333 184.873 66C185.106 65.7667 185.406 65.65 185.773 65.65H189.223C189.589 65.65 189.889 65.7667 190.123 66C190.356 66.2333 190.473 66.5333 190.473 66.9V76.05H199.723C200.056 76.05 200.339 76.1667 200.573 76.4C200.806 76.6333 200.923 76.9333 200.923 77.3V80.45C200.923 80.7833 200.806 81.0667 200.573 81.3C200.339 81.5333 200.056 81.65 199.723 81.65H190.473V91.1C190.473 91.4667 190.356 91.7667 190.123 92C189.889 92.2333 189.589 92.35 189.223 92.35H185.773Z" fill="#141F25"/>
<rect x="219.5" y="68" width="17" height="17" fill="url(#paint0_linear_1_604)"/>
<path d="M253.7 68.3H257.44C258.267 68.3 259.01 68.4367 259.67 68.71C260.337 68.9767 260.867 69.3967 261.26 69.97C261.653 70.5433 261.85 71.29 261.85 72.21C261.85 73.1233 261.653 73.88 261.26 74.48C260.867 75.08 260.337 75.53 259.67 75.83C259.01 76.1233 258.267 76.27 257.44 76.27H255.41V81.5H253.7V68.3ZM255.41 74.84H256.97C257.537 74.84 258.05 74.7567 258.51 74.59C258.977 74.4233 259.347 74.15 259.62 73.77C259.9 73.39 260.04 72.88 260.04 72.24C260.04 71.5933 259.9 71.09 259.62 70.73C259.347 70.3633 258.977 70.1067 258.51 69.96C258.05 69.8067 257.537 69.73 256.97 69.73H255.41V74.84ZM269.877 81.5V79.9C269.823 80.0667 269.667 80.2967 269.407 80.59C269.153 80.8833 268.803 81.15 268.357 81.39C267.917 81.6233 267.397 81.74 266.797 81.74C266.037 81.74 265.347 81.56 264.727 81.2C264.113 80.84 263.623 80.3367 263.257 79.69C262.897 79.0367 262.717 78.2733 262.717 77.4C262.717 76.5267 262.897 75.7667 263.257 75.12C263.623 74.4667 264.113 73.96 264.727 73.6C265.347 73.2333 266.037 73.05 266.797 73.05C267.39 73.05 267.903 73.1567 268.337 73.37C268.777 73.5833 269.127 73.83 269.387 74.11C269.653 74.39 269.81 74.63 269.857 74.83V73.29H271.577V81.5H269.877ZM264.437 77.4C264.437 77.9933 264.567 78.5067 264.827 78.94C265.087 79.3733 265.423 79.71 265.837 79.95C266.257 80.1833 266.703 80.3 267.177 80.3C267.683 80.3 268.137 80.18 268.537 79.94C268.937 79.7 269.253 79.3633 269.487 78.93C269.72 78.49 269.837 77.98 269.837 77.4C269.837 76.82 269.72 76.3133 269.487 75.88C269.253 75.44 268.937 75.1 268.537 74.86C268.137 74.6133 267.683 74.49 267.177 74.49C266.703 74.49 266.257 74.61 265.837 74.85C265.423 75.09 265.087 75.4267 264.827 75.86C264.567 76.2933 264.437 76.8067 264.437 77.4ZM278.922 73.29H281.022L276.782 77.2L281.302 81.5H279.172L275.362 77.86V81.5H273.622V67.74H275.362V76.54L278.922 73.29ZM283.214 77.75C283.221 78.2433 283.328 78.6933 283.534 79.1C283.741 79.5067 284.048 79.83 284.454 80.07C284.868 80.31 285.374 80.43 285.974 80.43C286.481 80.43 286.911 80.3567 287.264 80.21C287.624 80.0567 287.918 79.8767 288.144 79.67C288.371 79.4567 288.534 79.2667 288.634 79.1L289.484 80.15C289.264 80.47 288.994 80.75 288.674 80.99C288.361 81.23 287.978 81.4133 287.524 81.54C287.071 81.6733 286.518 81.74 285.864 81.74C284.984 81.74 284.221 81.5533 283.574 81.18C282.934 80.8 282.441 80.2767 282.094 79.61C281.748 78.9367 281.574 78.1667 281.574 77.3C281.574 76.5 281.738 75.78 282.064 75.14C282.391 74.4933 282.864 73.9833 283.484 73.61C284.111 73.2367 284.864 73.05 285.744 73.05C286.551 73.05 287.251 73.22 287.844 73.56C288.444 73.8933 288.908 74.3667 289.234 74.98C289.568 75.5933 289.734 76.3267 289.734 77.18C289.734 77.2333 289.731 77.33 289.724 77.47C289.718 77.6033 289.711 77.6967 289.704 77.75H283.214ZM288.074 76.44C288.068 76.1667 287.988 75.8667 287.834 75.54C287.688 75.2133 287.448 74.9333 287.114 74.7C286.781 74.4667 286.331 74.35 285.764 74.35C285.178 74.35 284.704 74.4633 284.344 74.69C283.991 74.9167 283.731 75.1933 283.564 75.52C283.398 75.84 283.301 76.1467 283.274 76.44H288.074ZM290.955 73.29H292.565V69.92H294.295V73.29H296.405V74.78H294.295V78.84C294.295 79.32 294.379 79.6733 294.545 79.9C294.719 80.1267 294.949 80.24 295.235 80.24C295.489 80.24 295.685 80.1933 295.825 80.1C295.965 80.0067 296.049 79.9433 296.075 79.91L296.765 81.19C296.725 81.2233 296.619 81.2867 296.445 81.38C296.272 81.4733 296.049 81.5567 295.775 81.63C295.502 81.7033 295.182 81.74 294.815 81.74C294.175 81.74 293.639 81.5467 293.205 81.16C292.779 80.7667 292.565 80.1467 292.565 79.3V74.78H290.955V73.29ZM302.557 73.29H304.167V69.92H305.897V73.29H308.007V74.78H305.897V78.84C305.897 79.32 305.98 79.6733 306.147 79.9C306.32 80.1267 306.55 80.24 306.837 80.24C307.09 80.24 307.287 80.1933 307.427 80.1C307.567 80.0067 307.65 79.9433 307.677 79.91L308.367 81.19C308.327 81.2233 308.22 81.2867 308.047 81.38C307.874 81.4733 307.65 81.5567 307.377 81.63C307.104 81.7033 306.784 81.74 306.417 81.74C305.777 81.74 305.24 81.5467 304.807 81.16C304.38 80.7667 304.167 80.1467 304.167 79.3V74.78H302.557V73.29ZM310.968 77.75C310.975 78.2433 311.081 78.6933 311.288 79.1C311.495 79.5067 311.801 79.83 312.208 80.07C312.621 80.31 313.128 80.43 313.728 80.43C314.235 80.43 314.665 80.3567 315.018 80.21C315.378 80.0567 315.671 79.8767 315.898 79.67C316.125 79.4567 316.288 79.2667 316.388 79.1L317.238 80.15C317.018 80.47 316.748 80.75 316.428 80.99C316.115 81.23 315.731 81.4133 315.278 81.54C314.825 81.6733 314.271 81.74 313.618 81.74C312.738 81.74 311.975 81.5533 311.328 81.18C310.688 80.8 310.195 80.2767 309.848 79.61C309.501 78.9367 309.328 78.1667 309.328 77.3C309.328 76.5 309.491 75.78 309.818 75.14C310.145 74.4933 310.618 73.9833 311.238 73.61C311.865 73.2367 312.618 73.05 313.498 73.05C314.305 73.05 315.005 73.22 315.598 73.56C316.198 73.8933 316.661 74.3667 316.988 74.98C317.321 75.5933 317.488 76.3267 317.488 77.18C317.488 77.2333 317.485 77.33 317.478 77.47C317.471 77.6033 317.465 77.6967 317.458 77.75H310.968ZM315.828 76.44C315.821 76.1667 315.741 75.8667 315.588 75.54C315.441 75.2133 315.201 74.9333 314.868 74.7C314.535 74.4667 314.085 74.35 313.518 74.35C312.931 74.35 312.458 74.4633 312.098 74.69C311.745 74.9167 311.485 75.1933 311.318 75.52C311.151 75.84 311.055 76.1467 311.028 76.44H315.828ZM321.219 81.5H319.469V67.74H321.219V81.5ZM330.326 81.5V79.9C330.272 80.0667 330.116 80.2967 329.856 80.59C329.602 80.8833 329.252 81.15 328.806 81.39C328.366 81.6233 327.846 81.74 327.246 81.74C326.486 81.74 325.796 81.56 325.176 81.2C324.562 80.84 324.072 80.3367 323.706 79.69C323.346 79.0367 323.166 78.2733 323.166 77.4C323.166 76.5267 323.346 75.7667 323.706 75.12C324.072 74.4667 324.562 73.96 325.176 73.6C325.796 73.2333 326.486 73.05 327.246 73.05C327.839 73.05 328.352 73.1567 328.786 73.37C329.226 73.5833 329.576 73.83 329.836 74.11C330.102 74.39 330.259 74.63 330.306 74.83V73.29H332.026V81.5H330.326ZM324.886 77.4C324.886 77.9933 325.016 78.5067 325.276 78.94C325.536 79.3733 325.872 79.71 326.286 79.95C326.706 80.1833 327.152 80.3 327.626 80.3C328.132 80.3 328.586 80.18 328.986 79.94C329.386 79.7 329.702 79.3633 329.936 78.93C330.169 78.49 330.286 77.98 330.286 77.4C330.286 76.82 330.169 76.3133 329.936 75.88C329.702 75.44 329.386 75.1 328.986 74.86C328.586 74.6133 328.132 74.49 327.626 74.49C327.152 74.49 326.706 74.61 326.286 74.85C325.872 75.09 325.536 75.4267 325.276 75.86C325.016 76.2933 324.886 76.8067 324.886 77.4ZM339.001 73.05C339.541 73.05 340.064 73.1633 340.571 73.39C341.084 73.6167 341.504 73.9767 341.831 74.47C342.164 74.9567 342.331 75.5933 342.331 76.38V81.5H340.571V76.72C340.571 75.9067 340.384 75.3167 340.011 74.95C339.644 74.5767 339.161 74.39 338.561 74.39C338.161 74.39 337.777 74.5033 337.411 74.73C337.044 74.95 336.741 75.2567 336.501 75.65C336.267 76.0367 336.151 76.4767 336.151 76.97V81.5H334.391V67.74H336.151V74.75C336.211 74.5233 336.371 74.2767 336.631 74.01C336.897 73.7433 337.237 73.5167 337.651 73.33C338.064 73.1433 338.514 73.05 339.001 73.05ZM353.283 81.74C352.53 81.74 351.853 81.56 351.253 81.2C350.66 80.84 350.19 80.3367 349.843 79.69C349.503 79.0367 349.333 78.2733 349.333 77.4C349.333 76.5267 349.503 75.7667 349.843 75.12C350.19 74.4667 350.66 73.96 351.253 73.6C351.853 73.2333 352.53 73.05 353.283 73.05C353.89 73.05 354.423 73.1567 354.883 73.37C355.343 73.5767 355.71 73.82 355.983 74.1C356.257 74.38 356.413 74.6233 356.453 74.83V67.74H358.203V81.5H356.483V79.9C356.41 80.1267 356.227 80.3833 355.933 80.67C355.647 80.9567 355.277 81.2067 354.823 81.42C354.37 81.6333 353.857 81.74 353.283 81.74ZM353.683 80.3C354.19 80.3 354.653 80.18 355.073 79.94C355.493 79.7 355.827 79.3633 356.073 78.93C356.327 78.49 356.453 77.98 356.453 77.4C356.453 76.82 356.327 76.3133 356.073 75.88C355.827 75.44 355.493 75.1 355.073 74.86C354.653 74.6133 354.19 74.49 353.683 74.49C353.217 74.49 352.783 74.61 352.383 74.85C351.983 75.09 351.66 75.4267 351.413 75.86C351.173 76.2933 351.053 76.8067 351.053 77.4C351.053 77.9933 351.173 78.5067 351.413 78.94C351.66 79.3733 351.983 79.71 352.383 79.95C352.783 80.1833 353.217 80.3 353.683 80.3ZM360.342 81.5V73.29H362.082V81.5H360.342ZM361.232 70.48C360.918 70.48 360.648 70.37 360.422 70.15C360.202 69.9233 360.092 69.6533 360.092 69.34C360.092 69.0267 360.202 68.7567 360.422 68.53C360.648 68.3033 360.918 68.19 361.232 68.19C361.438 68.19 361.628 68.2433 361.802 68.35C361.982 68.4567 362.125 68.5967 362.232 68.77C362.338 68.9367 362.392 69.1267 362.392 69.34C362.392 69.6533 362.278 69.9233 362.052 70.15C361.825 70.37 361.552 70.48 361.232 70.48ZM371.341 81.5V79.9C371.288 80.0667 371.131 80.2967 370.871 80.59C370.618 80.8833 370.268 81.15 369.821 81.39C369.381 81.6233 368.861 81.74 368.261 81.74C367.501 81.74 366.811 81.56 366.191 81.2C365.578 80.84 365.088 80.3367 364.721 79.69C364.361 79.0367 364.181 78.2733 364.181 77.4C364.181 76.5267 364.361 75.7667 364.721 75.12C365.088 74.4667 365.578 73.96 366.191 73.6C366.811 73.2333 367.501 73.05 368.261 73.05C368.855 73.05 369.368 73.1567 369.801 73.37C370.241 73.5833 370.591 73.83 370.851 74.11C371.118 74.39 371.275 74.63 371.321 74.83V73.29H373.041V81.5H371.341ZM365.901 77.4C365.901 77.9933 366.031 78.5067 366.291 78.94C366.551 79.3733 366.888 79.71 367.301 79.95C367.721 80.1833 368.168 80.3 368.641 80.3C369.148 80.3 369.601 80.18 370.001 79.94C370.401 79.7 370.718 79.3633 370.951 78.93C371.185 78.49 371.301 77.98 371.301 77.4C371.301 76.82 371.185 76.3133 370.951 75.88C370.718 75.44 370.401 75.1 370.001 74.86C369.601 74.6133 369.148 74.49 368.641 74.49C368.168 74.49 367.721 74.61 367.301 74.85C366.888 75.09 366.551 75.4267 366.291 75.86C366.031 76.2933 365.901 76.8067 365.901 77.4ZM379.956 73.05C380.496 73.05 381.02 73.1633 381.526 73.39C382.04 73.6167 382.46 73.9767 382.786 74.47C383.12 74.9567 383.286 75.5933 383.286 76.38V81.5H381.526V76.72C381.526 75.9067 381.336 75.3167 380.956 74.95C380.576 74.5767 380.086 74.39 379.486 74.39C379.093 74.39 378.713 74.5033 378.346 74.73C377.986 74.95 377.69 75.2567 377.456 75.65C377.223 76.0367 377.106 76.4767 377.106 76.97V81.5H375.366V73.29H377.106V74.75C377.166 74.5233 377.33 74.2767 377.596 74.01C377.863 73.7433 378.203 73.5167 378.616 73.33C379.03 73.1433 379.476 73.05 379.956 73.05ZM384.862 73.29H386.472V69.92H388.202V73.29H390.312V74.78H388.202V78.84C388.202 79.32 388.285 79.6733 388.452 79.9C388.625 80.1267 388.855 80.24 389.142 80.24C389.395 80.24 389.592 80.1933 389.732 80.1C389.872 80.0067 389.955 79.9433 389.982 79.91L390.672 81.19C390.632 81.2233 390.525 81.2867 390.352 81.38C390.178 81.4733 389.955 81.5567 389.682 81.63C389.408 81.7033 389.088 81.74 388.722 81.74C388.082 81.74 387.545 81.5467 387.112 81.16C386.685 80.7667 386.472 80.1467 386.472 79.3V74.78H384.862V73.29ZM398.783 81.5V79.9C398.729 80.0667 398.573 80.2967 398.313 80.59C398.059 80.8833 397.709 81.15 397.263 81.39C396.823 81.6233 396.303 81.74 395.703 81.74C394.943 81.74 394.253 81.56 393.633 81.2C393.019 80.84 392.529 80.3367 392.163 79.69C391.803 79.0367 391.623 78.2733 391.623 77.4C391.623 76.5267 391.803 75.7667 392.163 75.12C392.529 74.4667 393.019 73.96 393.633 73.6C394.253 73.2333 394.943 73.05 395.703 73.05C396.296 73.05 396.809 73.1567 397.243 73.37C397.683 73.5833 398.033 73.83 398.293 74.11C398.559 74.39 398.716 74.63 398.763 74.83V73.29H400.483V81.5H398.783ZM393.343 77.4C393.343 77.9933 393.473 78.5067 393.733 78.94C393.993 79.3733 394.329 79.71 394.743 79.95C395.163 80.1833 395.609 80.3 396.083 80.3C396.589 80.3 397.043 80.18 397.443 79.94C397.843 79.7 398.159 79.3633 398.393 78.93C398.626 78.49 398.743 77.98 398.743 77.4C398.743 76.82 398.626 76.3133 398.393 75.88C398.159 75.44 397.843 75.1 397.443 74.86C397.043 74.6133 396.589 74.49 396.083 74.49C395.609 74.49 395.163 74.61 394.743 74.85C394.329 75.09 393.993 75.4267 393.733 75.86C393.473 76.2933 393.343 76.8067 393.343 77.4ZM404.518 81.5H402.788V73.29H404.518V74.71H404.468C404.501 74.5367 404.624 74.32 404.838 74.06C405.051 73.8 405.344 73.5667 405.718 73.36C406.091 73.1533 406.538 73.05 407.058 73.05C407.438 73.05 407.771 73.1033 408.058 73.21C408.351 73.31 408.558 73.41 408.678 73.51L407.968 74.95C407.874 74.8567 407.711 74.7633 407.478 74.67C407.244 74.57 406.954 74.52 406.608 74.52C406.168 74.52 405.791 74.6567 405.478 74.93C405.164 75.2033 404.924 75.5333 404.758 75.92C404.598 76.3 404.518 76.6533 404.518 76.98V81.5Z" fill="#141F25"/>
<path d="M651.15 94.55C648.15 94.55 645.633 94.0667 643.6 93.1C641.567 92.1333 640.017 90.8667 638.95 89.3C637.917 87.7333 637.367 86.0667 637.3 84.3C637.3 84 637.4 83.75 637.6 83.55C637.8 83.35 638.05 83.25 638.35 83.25H644C644.4 83.25 644.717 83.35 644.95 83.55C645.217 83.7167 645.417 83.95 645.55 84.25C645.883 85.15 646.317 85.8833 646.85 86.45C647.417 87.0167 648.067 87.4333 648.8 87.7C649.533 87.9667 650.317 88.1 651.15 88.1C652.217 88.1 653.2 87.8833 654.1 87.45C655 86.9833 655.717 86.3167 656.25 85.45C656.783 84.5833 657.05 83.5167 657.05 82.25C657.05 81.15 656.8 80.1833 656.3 79.35C655.8 78.5167 655.1 77.8667 654.2 77.4C653.3 76.9333 652.283 76.7 651.15 76.7C650.283 76.7 649.567 76.8 649 77C648.467 77.2 648.017 77.45 647.65 77.75C647.283 78.0167 646.95 78.2667 646.65 78.5C646.35 78.7 646.017 78.8 645.65 78.8H640.1C639.8 78.8 639.533 78.7 639.3 78.5C639.1 78.2667 639 78 639 77.7L640.75 60.45C640.817 59.9833 640.983 59.6333 641.25 59.4C641.55 59.1333 641.9 59 642.3 59H661.7C662.067 59 662.367 59.1167 662.6 59.35C662.833 59.5833 662.95 59.8833 662.95 60.25V64.25C662.95 64.5833 662.833 64.8667 662.6 65.1C662.367 65.3333 662.067 65.45 661.7 65.45H647.25L646.5 72.8C647.167 72.3667 647.983 71.9833 648.95 71.65C649.95 71.2833 651.333 71.1 653.1 71.1C654.7 71.1 656.217 71.3667 657.65 71.9C659.117 72.4 660.417 73.15 661.55 74.15C662.683 75.15 663.567 76.35 664.2 77.75C664.867 79.1167 665.2 80.6833 665.2 82.45C665.2 84.85 664.633 86.9667 663.5 88.8C662.367 90.6 660.75 92.0167 658.65 93.05C656.55 94.05 654.05 94.55 651.15 94.55ZM683.792 94.5C681.392 94.5 679.325 94.1667 677.592 93.5C675.892 92.8 674.475 91.85 673.342 90.65C672.242 89.4167 671.408 88 670.842 86.4C670.308 84.7667 669.992 83.0333 669.892 81.2C669.858 80.3 669.825 79.3 669.792 78.2C669.792 77.0667 669.792 75.9333 669.792 74.8C669.825 73.6667 669.858 72.6333 669.892 71.7C669.958 69.8667 670.275 68.15 670.842 66.55C671.442 64.95 672.308 63.55 673.442 62.35C674.575 61.15 675.992 60.2167 677.692 59.55C679.425 58.85 681.458 58.5 683.792 58.5C686.125 58.5 688.142 58.85 689.842 59.55C691.542 60.2167 692.958 61.15 694.092 62.35C695.225 63.55 696.075 64.95 696.642 66.55C697.242 68.15 697.592 69.8667 697.692 71.7C697.725 72.6333 697.742 73.6667 697.742 74.8C697.775 75.9333 697.775 77.0667 697.742 78.2C697.742 79.3 697.725 80.3 697.692 81.2C697.592 83.0333 697.258 84.7667 696.692 86.4C696.125 88 695.275 89.4167 694.142 90.65C693.042 91.85 691.625 92.8 689.892 93.5C688.192 94.1667 686.158 94.5 683.792 94.5ZM683.792 88C685.725 88 687.142 87.3667 688.042 86.1C688.942 84.8333 689.425 83.1167 689.492 80.95C689.525 79.9833 689.542 78.9833 689.542 77.95C689.575 76.9167 689.575 75.8833 689.542 74.85C689.542 73.8167 689.525 72.85 689.492 71.95C689.425 69.8833 688.942 68.2 688.042 66.9C687.142 65.6 685.725 64.9333 683.792 64.9C681.825 64.9333 680.392 65.6 679.492 66.9C678.625 68.2 678.158 69.8833 678.092 71.95C678.058 72.85 678.025 73.8167 677.992 74.85C677.992 75.8833 677.992 76.9167 677.992 77.95C678.025 78.9833 678.058 79.9833 678.092 80.95C678.158 83.1167 678.642 84.8333 679.542 86.1C680.442 87.3667 681.858 88 683.792 88ZM714.04 92.35C713.674 92.35 713.374 92.2333 713.14 92C712.907 91.7667 712.79 91.4667 712.79 91.1V81.65H703.54C703.174 81.65 702.874 81.5333 702.64 81.3C702.407 81.0667 702.29 80.7833 702.29 80.45V77.3C702.29 76.9333 702.407 76.6333 702.64 76.4C702.874 76.1667 703.174 76.05 703.54 76.05H712.79V66.9C712.79 66.5333 712.907 66.2333 713.14 66C713.374 65.7667 713.674 65.65 714.04 65.65H717.49C717.857 65.65 718.157 65.7667 718.39 66C718.624 66.2333 718.74 66.5333 718.74 66.9V76.05H727.99C728.324 76.05 728.607 76.1667 728.84 76.4C729.074 76.6333 729.19 76.9333 729.19 77.3V80.45C729.19 80.7833 729.074 81.0667 728.84 81.3C728.607 81.5333 728.324 81.65 727.99 81.65H718.74V91.1C718.74 91.4667 718.624 91.7667 718.39 92C718.157 92.2333 717.857 92.35 717.49 92.35H714.04Z" fill="#141F25"/>
<rect x="742.5" y="68" width="17" height="17" fill="url(#paint1_linear_1_604)"/>
<path d="M771.7 68.3H775.44C776.267 68.3 777.01 68.4367 777.67 68.71C778.337 68.9767 778.867 69.3967 779.26 69.97C779.653 70.5433 779.85 71.29 779.85 72.21C779.85 73.1233 779.653 73.88 779.26 74.48C778.867 75.08 778.337 75.53 777.67 75.83C777.01 76.1233 776.267 76.27 775.44 76.27H773.41V81.5H771.7V68.3ZM773.41 74.84H774.97C775.537 74.84 776.05 74.7567 776.51 74.59C776.977 74.4233 777.347 74.15 777.62 73.77C777.9 73.39 778.04 72.88 778.04 72.24C778.04 71.5933 777.9 71.09 777.62 70.73C777.347 70.3633 776.977 70.1067 776.51 69.96C776.05 69.8067 775.537 69.73 774.97 69.73H773.41V74.84ZM782.249 77.75C782.256 78.2433 782.363 78.6933 782.569 79.1C782.776 79.5067 783.083 79.83 783.489 80.07C783.903 80.31 784.409 80.43 785.009 80.43C785.516 80.43 785.946 80.3567 786.299 80.21C786.659 80.0567 786.953 79.8767 787.179 79.67C787.406 79.4567 787.569 79.2667 787.669 79.1L788.519 80.15C788.299 80.47 788.029 80.75 787.709 80.99C787.396 81.23 787.013 81.4133 786.559 81.54C786.106 81.6733 785.553 81.74 784.899 81.74C784.019 81.74 783.256 81.5533 782.609 81.18C781.969 80.8 781.476 80.2767 781.129 79.61C780.783 78.9367 780.609 78.1667 780.609 77.3C780.609 76.5 780.773 75.78 781.099 75.14C781.426 74.4933 781.899 73.9833 782.519 73.61C783.146 73.2367 783.899 73.05 784.779 73.05C785.586 73.05 786.286 73.22 786.879 73.56C787.479 73.8933 787.943 74.3667 788.269 74.98C788.603 75.5933 788.769 76.3267 788.769 77.18C788.769 77.2333 788.766 77.33 788.759 77.47C788.753 77.6033 788.746 77.6967 788.739 77.75H782.249ZM787.109 76.44C787.103 76.1667 787.023 75.8667 786.869 75.54C786.723 75.2133 786.483 74.9333 786.149 74.7C785.816 74.4667 785.366 74.35 784.799 74.35C784.213 74.35 783.739 74.4633 783.379 74.69C783.026 74.9167 782.766 75.1933 782.599 75.52C782.433 75.84 782.336 76.1467 782.309 76.44H787.109ZM792.501 81.5H790.751V67.74H792.501V81.5ZM801.607 81.5V79.9C801.554 80.0667 801.397 80.2967 801.137 80.59C800.884 80.8833 800.534 81.15 800.087 81.39C799.647 81.6233 799.127 81.74 798.527 81.74C797.767 81.74 797.077 81.56 796.457 81.2C795.844 80.84 795.354 80.3367 794.987 79.69C794.627 79.0367 794.447 78.2733 794.447 77.4C794.447 76.5267 794.627 75.7667 794.987 75.12C795.354 74.4667 795.844 73.96 796.457 73.6C797.077 73.2333 797.767 73.05 798.527 73.05C799.12 73.05 799.634 73.1567 800.067 73.37C800.507 73.5833 800.857 73.83 801.117 74.11C801.384 74.39 801.54 74.63 801.587 74.83V73.29H803.307V81.5H801.607ZM796.167 77.4C796.167 77.9933 796.297 78.5067 796.557 78.94C796.817 79.3733 797.154 79.71 797.567 79.95C797.987 80.1833 798.434 80.3 798.907 80.3C799.414 80.3 799.867 80.18 800.267 79.94C800.667 79.7 800.984 79.3633 801.217 78.93C801.45 78.49 801.567 77.98 801.567 77.4C801.567 76.82 801.45 76.3133 801.217 75.88C800.984 75.44 800.667 75.1 800.267 74.86C799.867 74.6133 799.414 74.49 798.907 74.49C798.434 74.49 797.987 74.61 797.567 74.85C797.154 75.09 796.817 75.4267 796.557 75.86C796.297 76.2933 796.167 76.8067 796.167 77.4ZM810.222 73.05C810.762 73.05 811.285 73.1633 811.792 73.39C812.305 73.6167 812.725 73.9767 813.052 74.47C813.385 74.9567 813.552 75.5933 813.552 76.38V81.5H811.792V76.72C811.792 75.9067 811.602 75.3167 811.222 74.95C810.842 74.5767 810.352 74.39 809.752 74.39C809.359 74.39 808.979 74.5033 808.612 74.73C808.252 74.95 807.955 75.2567 807.722 75.65C807.489 76.0367 807.372 76.4767 807.372 76.97V81.5H805.632V73.29H807.372V74.75C807.432 74.5233 807.595 74.2767 807.862 74.01C808.129 73.7433 808.469 73.5167 808.882 73.33C809.295 73.1433 809.742 73.05 810.222 73.05ZM819.747 85.89C819.101 85.89 818.514 85.8233 817.987 85.69C817.467 85.5567 817.011 85.3667 816.617 85.12C816.231 84.88 815.921 84.5967 815.687 84.27L816.827 83.18C816.954 83.3533 817.124 83.5367 817.337 83.73C817.557 83.93 817.854 84.1 818.227 84.24C818.601 84.38 819.087 84.45 819.687 84.45C820.274 84.45 820.771 84.3233 821.177 84.07C821.584 83.8233 821.894 83.4867 822.107 83.06C822.321 82.6333 822.427 82.1533 822.427 81.62V81.35H824.127V81.73C824.127 82.6367 823.931 83.3967 823.537 84.01C823.151 84.63 822.627 85.0967 821.967 85.41C821.307 85.73 820.567 85.89 819.747 85.89ZM822.427 81.5V79.9C822.374 80.0667 822.217 80.2967 821.957 80.59C821.704 80.8833 821.354 81.15 820.907 81.39C820.467 81.6233 819.947 81.74 819.347 81.74C818.587 81.74 817.897 81.56 817.277 81.2C816.664 80.84 816.174 80.3367 815.807 79.69C815.447 79.0367 815.267 78.2733 815.267 77.4C815.267 76.5267 815.447 75.7667 815.807 75.12C816.174 74.4667 816.664 73.96 817.277 73.6C817.897 73.2333 818.587 73.05 819.347 73.05C819.941 73.05 820.454 73.1567 820.887 73.37C821.327 73.5833 821.677 73.83 821.937 74.11C822.204 74.39 822.361 74.63 822.407 74.83V73.29H824.127V81.5H822.427ZM816.987 77.4C816.987 77.9933 817.117 78.5067 817.377 78.94C817.637 79.3733 817.974 79.71 818.387 79.95C818.807 80.1833 819.254 80.3 819.727 80.3C820.234 80.3 820.687 80.18 821.087 79.94C821.487 79.7 821.804 79.3633 822.037 78.93C822.271 78.49 822.387 77.98 822.387 77.4C822.387 76.82 822.271 76.3133 822.037 75.88C821.804 75.44 821.487 75.1 821.087 74.86C820.687 74.6133 820.234 74.49 819.727 74.49C819.254 74.49 818.807 74.61 818.387 74.85C817.974 75.09 817.637 75.4267 817.377 75.86C817.117 76.2933 816.987 76.8067 816.987 77.4ZM830.45 85.89C829.804 85.89 829.217 85.8233 828.69 85.69C828.17 85.5567 827.714 85.3667 827.32 85.12C826.934 84.88 826.624 84.5967 826.39 84.27L827.53 83.18C827.657 83.3533 827.827 83.5367 828.04 83.73C828.26 83.93 828.557 84.1 828.93 84.24C829.304 84.38 829.79 84.45 830.39 84.45C830.977 84.45 831.474 84.3233 831.88 84.07C832.287 83.8233 832.597 83.4867 832.81 83.06C833.024 82.6333 833.13 82.1533 833.13 81.62V81.35H834.83V81.73C834.83 82.6367 834.634 83.3967 834.24 84.01C833.854 84.63 833.33 85.0967 832.67 85.41C832.01 85.73 831.27 85.89 830.45 85.89ZM833.13 81.5V79.9C833.077 80.0667 832.92 80.2967 832.66 80.59C832.407 80.8833 832.057 81.15 831.61 81.39C831.17 81.6233 830.65 81.74 830.05 81.74C829.29 81.74 828.6 81.56 827.98 81.2C827.367 80.84 826.877 80.3367 826.51 79.69C826.15 79.0367 825.97 78.2733 825.97 77.4C825.97 76.5267 826.15 75.7667 826.51 75.12C826.877 74.4667 827.367 73.96 827.98 73.6C828.6 73.2333 829.29 73.05 830.05 73.05C830.644 73.05 831.157 73.1567 831.59 73.37C832.03 73.5833 832.38 73.83 832.64 74.11C832.907 74.39 833.064 74.63 833.11 74.83V73.29H834.83V81.5H833.13ZM827.69 77.4C827.69 77.9933 827.82 78.5067 828.08 78.94C828.34 79.3733 828.677 79.71 829.09 79.95C829.51 80.1833 829.957 80.3 830.43 80.3C830.937 80.3 831.39 80.18 831.79 79.94C832.19 79.7 832.507 79.3633 832.74 78.93C832.974 78.49 833.09 77.98 833.09 77.4C833.09 76.82 832.974 76.3133 832.74 75.88C832.507 75.44 832.19 75.1 831.79 74.86C831.39 74.6133 830.937 74.49 830.43 74.49C829.957 74.49 829.51 74.61 829.09 74.85C828.677 75.09 828.34 75.4267 828.08 75.86C827.82 76.2933 827.69 76.8067 827.69 77.4ZM843.834 81.5V79.9C843.78 80.0667 843.624 80.2967 843.364 80.59C843.11 80.8833 842.76 81.15 842.314 81.39C841.874 81.6233 841.354 81.74 840.754 81.74C839.994 81.74 839.304 81.56 838.684 81.2C838.07 80.84 837.58 80.3367 837.214 79.69C836.854 79.0367 836.674 78.2733 836.674 77.4C836.674 76.5267 836.854 75.7667 837.214 75.12C837.58 74.4667 838.07 73.96 838.684 73.6C839.304 73.2333 839.994 73.05 840.754 73.05C841.347 73.05 841.86 73.1567 842.294 73.37C842.734 73.5833 843.084 73.83 843.344 74.11C843.61 74.39 843.767 74.63 843.814 74.83V73.29H845.534V81.5H843.834ZM838.394 77.4C838.394 77.9933 838.524 78.5067 838.784 78.94C839.044 79.3733 839.38 79.71 839.794 79.95C840.214 80.1833 840.66 80.3 841.134 80.3C841.64 80.3 842.094 80.18 842.494 79.94C842.894 79.7 843.21 79.3633 843.444 78.93C843.677 78.49 843.794 77.98 843.794 77.4C843.794 76.82 843.677 76.3133 843.444 75.88C843.21 75.44 842.894 75.1 842.494 74.86C842.094 74.6133 841.64 74.49 841.134 74.49C840.66 74.49 840.214 74.61 839.794 74.85C839.38 75.09 839.044 75.4267 838.784 75.86C838.524 76.2933 838.394 76.8067 838.394 77.4ZM852.449 73.05C852.989 73.05 853.512 73.1633 854.019 73.39C854.532 73.6167 854.952 73.9767 855.279 74.47C855.612 74.9567 855.779 75.5933 855.779 76.38V81.5H854.019V76.72C854.019 75.9067 853.829 75.3167 853.449 74.95C853.069 74.5767 852.579 74.39 851.979 74.39C851.585 74.39 851.205 74.5033 850.839 74.73C850.479 74.95 850.182 75.2567 849.949 75.65C849.715 76.0367 849.599 76.4767 849.599 76.97V81.5H847.859V73.29H849.599V74.75C849.659 74.5233 849.822 74.2767 850.089 74.01C850.355 73.7433 850.695 73.5167 851.109 73.33C851.522 73.1433 851.969 73.05 852.449 73.05ZM864.794 85.66H863.064V73.29H864.824V74.83C864.884 74.6233 865.051 74.38 865.324 74.1C865.598 73.82 865.964 73.5767 866.424 73.37C866.891 73.1567 867.424 73.05 868.024 73.05C868.784 73.05 869.458 73.2333 870.044 73.6C870.638 73.96 871.101 74.4667 871.434 75.12C871.774 75.7667 871.944 76.5267 871.944 77.4C871.944 78.2733 871.771 79.0367 871.424 79.69C871.078 80.3367 870.604 80.84 870.004 81.2C869.411 81.56 868.731 81.74 867.964 81.74C867.344 81.74 866.801 81.6233 866.334 81.39C865.874 81.1567 865.511 80.8933 865.244 80.6C864.984 80.3067 864.834 80.0733 864.794 79.9V85.66ZM870.224 77.4C870.224 76.8067 870.101 76.2933 869.854 75.86C869.614 75.4267 869.294 75.09 868.894 74.85C868.494 74.61 868.061 74.49 867.594 74.49C867.081 74.49 866.614 74.6133 866.194 74.86C865.774 75.1 865.441 75.44 865.194 75.88C864.948 76.3133 864.824 76.82 864.824 77.4C864.824 77.98 864.948 78.49 865.194 78.93C865.441 79.3633 865.774 79.7 866.194 79.94C866.614 80.18 867.081 80.3 867.594 80.3C868.061 80.3 868.494 80.1833 868.894 79.95C869.294 79.71 869.614 79.3733 869.854 78.94C870.101 78.5067 870.224 77.9933 870.224 77.4ZM875.387 77.43C875.387 78.29 875.57 78.9767 875.937 79.49C876.31 79.9967 876.88 80.25 877.647 80.25C878.42 80.25 878.99 79.9967 879.357 79.49C879.724 78.9767 879.907 78.29 879.907 77.43V73.29H881.627V77.67C881.627 78.47 881.47 79.1767 881.157 79.79C880.85 80.4033 880.4 80.8833 879.807 81.23C879.22 81.57 878.5 81.74 877.647 81.74C876.8 81.74 876.08 81.57 875.487 81.23C874.9 80.8833 874.45 80.4033 874.137 79.79C873.83 79.1767 873.677 78.47 873.677 77.67V73.29H875.387V77.43ZM890.591 81.5V79.9C890.538 80.0667 890.381 80.2967 890.121 80.59C889.868 80.8833 889.518 81.15 889.071 81.39C888.631 81.6233 888.111 81.74 887.511 81.74C886.751 81.74 886.061 81.56 885.441 81.2C884.828 80.84 884.338 80.3367 883.971 79.69C883.611 79.0367 883.431 78.2733 883.431 77.4C883.431 76.5267 883.611 75.7667 883.971 75.12C884.338 74.4667 884.828 73.96 885.441 73.6C886.061 73.2333 886.751 73.05 887.511 73.05C888.105 73.05 888.618 73.1567 889.051 73.37C889.491 73.5833 889.841 73.83 890.101 74.11C890.368 74.39 890.525 74.63 890.571 74.83V73.29H892.291V81.5H890.591ZM885.151 77.4C885.151 77.9933 885.281 78.5067 885.541 78.94C885.801 79.3733 886.138 79.71 886.551 79.95C886.971 80.1833 887.418 80.3 887.891 80.3C888.398 80.3 888.851 80.18 889.251 79.94C889.651 79.7 889.968 79.3633 890.201 78.93C890.435 78.49 890.551 77.98 890.551 77.4C890.551 76.82 890.435 76.3133 890.201 75.88C889.968 75.44 889.651 75.1 889.251 74.86C888.851 74.6133 888.398 74.49 887.891 74.49C887.418 74.49 886.971 74.61 886.551 74.85C886.138 75.09 885.801 75.4267 885.541 75.86C885.281 76.2933 885.151 76.8067 885.151 77.4ZM897.696 73.05C898.123 73.05 898.52 73.0933 898.886 73.18C899.26 73.2667 899.58 73.37 899.846 73.49C900.12 73.61 900.313 73.7167 900.426 73.81L899.736 74.91C899.603 74.79 899.363 74.6567 899.016 74.51C898.67 74.3567 898.283 74.28 897.856 74.28C897.39 74.28 896.993 74.3733 896.666 74.56C896.34 74.74 896.176 75.0033 896.176 75.35C896.176 75.6967 896.343 75.9733 896.676 76.18C897.016 76.38 897.47 76.5467 898.036 76.68C898.49 76.7867 898.913 76.93 899.306 77.11C899.706 77.29 900.03 77.54 900.276 77.86C900.523 78.1733 900.646 78.5933 900.646 79.12C900.646 79.6 900.546 80.01 900.346 80.35C900.146 80.6833 899.876 80.9533 899.536 81.16C899.196 81.36 898.816 81.5067 898.396 81.6C897.976 81.6933 897.55 81.74 897.116 81.74C896.61 81.74 896.153 81.6867 895.746 81.58C895.34 81.48 894.996 81.36 894.716 81.22C894.443 81.0733 894.243 80.9467 894.116 80.84L894.806 79.6C894.98 79.7667 895.263 79.9433 895.656 80.13C896.056 80.3167 896.51 80.41 897.016 80.41C897.576 80.41 898.03 80.2933 898.376 80.06C898.723 79.82 898.896 79.51 898.896 79.13C898.896 78.8433 898.813 78.6133 898.646 78.44C898.48 78.2667 898.256 78.1267 897.976 78.02C897.696 77.9133 897.39 77.82 897.056 77.74C896.736 77.6667 896.423 77.57 896.116 77.45C895.816 77.33 895.54 77.1767 895.286 76.99C895.04 76.7967 894.843 76.5633 894.696 76.29C894.55 76.01 894.476 75.6833 894.476 75.31C894.476 74.8367 894.626 74.4333 894.926 74.1C895.226 73.76 895.62 73.5 896.106 73.32C896.593 73.14 897.123 73.05 897.696 73.05Z" fill="#141F25"/>
<defs>
<linearGradient id="paint0_linear_1_604" x1="219.018" y1="71.6833" x2="240.404" y2="73.2021" gradientUnits="userSpaceOnUse">
<stop stop-color="#FFB629"/>
<stop offset="0.507189" stop-color="#FFDA56"/>
<stop offset="1" stop-color="#FFD7A6"/>
</linearGradient>
<linearGradient id="paint1_linear_1_604" x1="742.018" y1="71.6833" x2="763.404" y2="73.2021" gradientUnits="userSpaceOnUse">
<stop stop-color="#FFB629"/>
<stop offset="0.507189" stop-color="#FFDA56"/>
<stop offset="1" stop-color="#FFD7A6"/>
</linearGradient>
</defs>
</svg>
