<svg width="40" height="40" viewBox="0 0 40 40" fill="none" xmlns="http://www.w3.org/2000/svg">
<circle cx="20" cy="20" r="19.5" fill="#273D49" stroke="#273270"/>
<path d="M15.2216 14.0577C15.1361 14.0603 15.0521 14.0789 14.9745 14.1125C14.8968 14.1461 14.8272 14.1939 14.7696 14.2531C14.7121 14.3124 14.6678 14.3818 14.6394 14.4574C14.611 14.533 14.5991 14.6131 14.6044 14.6931C14.6898 16.0644 15.0923 19.4106 17.0196 21.4973C19.3275 24.0115 22.3332 24.8777 25.4169 24.7497C25.5822 24.7405 25.7376 24.6728 25.8517 24.5604C25.9658 24.448 26.0302 24.2992 26.0317 24.144V21.9476C26.0298 21.7426 25.9544 21.5443 25.8177 21.3843C25.681 21.2243 25.4909 21.1119 25.2779 21.0653L23.7336 20.7453C23.5426 20.7072 23.3437 20.7236 23.1628 20.7925C22.9819 20.8613 22.8272 20.9795 22.7187 21.1316L22.3771 21.6162C22.3458 21.6605 22.2989 21.6932 22.2445 21.7086C22.1902 21.7241 22.1318 21.7213 22.0795 21.7007C21.2939 21.383 18.1638 20.0117 17.8198 17.6986C17.8131 17.654 17.8206 17.6084 17.8415 17.5678C17.8623 17.5271 17.8955 17.4931 17.9369 17.4701L18.5566 17.1158C18.7266 17.0171 18.8601 16.8719 18.9391 16.6998C19.018 16.5277 19.0387 16.337 18.9982 16.1536L18.6591 14.6816C18.6095 14.4754 18.4852 14.2916 18.3072 14.1616C18.1293 14.0316 17.9088 13.9634 17.6832 13.9685L15.2216 14.0577Z" fill="#273D49" stroke="white"/>
</svg>
