<svg width="45" height="45" viewBox="0 0 45 45" fill="none" xmlns="http://www.w3.org/2000/svg">
<circle cx="22.5" cy="22.5" r="22.5" fill="url(#paint0_linear_30_5)"/>
<path d="M29.2858 20.8164H27.0414C26.7438 20.8164 26.4584 20.931 26.2479 21.1351C26.0375 21.3393 25.9192 21.6161 25.9192 21.9048V24.6258C25.9192 24.9145 26.0375 25.1913 26.2479 25.3954C26.4584 25.5995 26.7438 25.7142 27.0414 25.7142H28.1636C28.4612 25.7142 28.7467 25.5995 28.9571 25.3954C29.1676 25.1913 29.2858 24.9145 29.2858 24.6258V20.8164ZM29.2858 20.8164C29.2858 19.9542 29.1098 19.1005 28.7679 18.3046C28.4261 17.5087 27.9251 16.7864 27.2939 16.1793C26.6627 15.5721 25.9138 15.0922 25.0904 14.7673C24.2671 14.4423 23.3855 14.2787 22.4966 14.2859C21.6082 14.2796 20.7274 14.4439 19.9048 14.7692C19.0823 15.0946 18.3342 15.5747 17.7038 16.1817C17.0733 16.7887 16.573 17.5108 16.2315 18.3062C15.8901 19.1016 15.7143 19.9547 15.7144 20.8164V24.6258C15.7144 24.9145 15.8326 25.1913 16.043 25.3954C16.2535 25.5995 16.5389 25.7142 16.8365 25.7142H17.9587C18.2563 25.7142 18.5418 25.5995 18.7522 25.3954C18.9627 25.1913 19.0809 24.9145 19.0809 24.6258V21.9048C19.0809 21.6161 18.9627 21.3393 18.7522 21.1351C18.5418 20.931 18.2563 20.8164 17.9587 20.8164H15.7144" stroke="#141F25" stroke-width="2" stroke-linecap="round" stroke-linejoin="round"/>
<path d="M29.2857 25V26.5306C29.2857 27.0719 29.0436 27.591 28.6125 27.9737C28.1815 28.3564 27.5969 28.5714 26.9873 28.5714H22.8572" stroke="#141F25" stroke-width="2" stroke-linecap="round" stroke-linejoin="round"/>
<defs>
<linearGradient id="paint0_linear_30_5" x1="-1.27577" y1="9.74999" x2="55.3346" y2="13.7701" gradientUnits="userSpaceOnUse">
<stop stop-color="#FFB629"/>
<stop offset="0.507189" stop-color="#FFDA56"/>
<stop offset="1" stop-color="#FFD7A6"/>
</linearGradient>
</defs>
</svg>
