<svg width="156" height="38" viewBox="0 0 156 38" fill="none" xmlns="http://www.w3.org/2000/svg">
<circle cx="19" cy="19" r="19" fill="url(#paint0_linear_1_433)"/>
<path d="M17.7937 25.3333C20.2921 25.3333 22.3175 22.3628 22.3175 18.6984C22.3175 15.034 20.2921 12.0635 17.7937 12.0635C15.2953 12.0635 13.2699 15.034 13.2699 18.6984C13.2699 22.3628 15.2953 25.3333 17.7937 25.3333Z" stroke="#141F25" stroke-width="2" stroke-linecap="round" stroke-linejoin="round"/>
<path d="M18.0952 12.0635H21.4359C23.5864 12.0635 25.3333 15.0354 25.3333 18.6984C25.3333 22.3614 23.5864 25.3333 21.4359 25.3333H18.0952" stroke="#141F25" stroke-width="2" stroke-linecap="round" stroke-linejoin="round"/>
<path d="M21.7142 14.4762L23.5238 14.4762" stroke="#141F25" stroke-width="2" stroke-linecap="round" stroke-linejoin="round"/>
<path d="M22.3175 18.6984H25.3334" stroke="#141F25" stroke-width="2" stroke-linecap="round" stroke-linejoin="round"/>
<path d="M21.1111 23.5238H24.127" stroke="#141F25" stroke-width="2" stroke-linecap="round" stroke-linejoin="round"/>
<path d="M51.54 23.5C51.4373 23.5 51.358 23.472 51.302 23.416C51.246 23.3507 51.218 23.2713 51.218 23.178V14.036C51.218 13.9333 51.246 13.854 51.302 13.798C51.358 13.7327 51.4373 13.7 51.54 13.7H52.254C52.3567 13.7 52.436 13.7327 52.492 13.798C52.5573 13.854 52.59 13.9333 52.59 14.036V17.9H57.406V14.036C57.406 13.9333 57.434 13.854 57.49 13.798C57.5553 13.7327 57.6347 13.7 57.728 13.7H58.442C58.5447 13.7 58.624 13.7327 58.68 13.798C58.7453 13.854 58.778 13.9333 58.778 14.036V23.178C58.778 23.2713 58.7453 23.3507 58.68 23.416C58.624 23.472 58.5447 23.5 58.442 23.5H57.728C57.6347 23.5 57.5553 23.472 57.49 23.416C57.434 23.3507 57.406 23.2713 57.406 23.178V19.16H52.59V23.178C52.59 23.2713 52.5573 23.3507 52.492 23.416C52.436 23.472 52.3567 23.5 52.254 23.5H51.54ZM63.0465 23.64C62.5798 23.64 62.1551 23.5467 61.7725 23.36C61.3898 23.1733 61.0818 22.9213 60.8485 22.604C60.6151 22.2867 60.4985 21.9273 60.4985 21.526C60.4985 20.882 60.7598 20.3687 61.2825 19.986C61.8051 19.6033 62.4865 19.3513 63.3265 19.23L65.4125 18.936V18.53C65.4125 18.082 65.2818 17.732 65.0205 17.48C64.7685 17.228 64.3531 17.102 63.7745 17.102C63.3545 17.102 63.0138 17.186 62.7525 17.354C62.5005 17.522 62.3231 17.7367 62.2205 17.998C62.1645 18.138 62.0665 18.208 61.9265 18.208H61.2965C61.1938 18.208 61.1145 18.18 61.0585 18.124C61.0118 18.0587 60.9885 17.984 60.9885 17.9C60.9885 17.76 61.0398 17.5873 61.1425 17.382C61.2545 17.1767 61.4225 16.976 61.6465 16.78C61.8705 16.584 62.1551 16.4207 62.5005 16.29C62.8551 16.15 63.2845 16.08 63.7885 16.08C64.3485 16.08 64.8198 16.1547 65.2025 16.304C65.5851 16.444 65.8838 16.6353 66.0985 16.878C66.3225 17.1207 66.4811 17.396 66.5745 17.704C66.6771 18.012 66.7285 18.3247 66.7285 18.642V23.178C66.7285 23.2713 66.6958 23.3507 66.6305 23.416C66.5745 23.472 66.4998 23.5 66.4065 23.5H65.7625C65.6598 23.5 65.5805 23.472 65.5245 23.416C65.4685 23.3507 65.4405 23.2713 65.4405 23.178V22.576C65.3191 22.744 65.1558 22.912 64.9505 23.08C64.7451 23.2387 64.4885 23.374 64.1805 23.486C63.8725 23.5887 63.4945 23.64 63.0465 23.64ZM63.3405 22.59C63.7231 22.59 64.0731 22.5107 64.3905 22.352C64.7078 22.184 64.9551 21.9273 65.1325 21.582C65.3191 21.2367 65.4125 20.8027 65.4125 20.28V19.888L63.7885 20.126C63.1258 20.2193 62.6265 20.378 62.2905 20.602C61.9545 20.8167 61.7865 21.092 61.7865 21.428C61.7865 21.6893 61.8611 21.9087 62.0105 22.086C62.1691 22.254 62.3651 22.38 62.5985 22.464C62.8411 22.548 63.0885 22.59 63.3405 22.59ZM69.0631 23.5C68.9697 23.5 68.8904 23.472 68.8251 23.416C68.7691 23.3507 68.7411 23.2713 68.7411 23.178V16.556C68.7411 16.4627 68.7691 16.3833 68.8251 16.318C68.8904 16.2527 68.9697 16.22 69.0631 16.22H69.7071C69.8004 16.22 69.8797 16.2527 69.9451 16.318C70.0104 16.3833 70.0431 16.4627 70.0431 16.556V17.172C70.2297 16.8547 70.4864 16.6167 70.8131 16.458C71.1397 16.2993 71.5317 16.22 71.9891 16.22H72.5491C72.6424 16.22 72.7171 16.2527 72.7731 16.318C72.8291 16.374 72.8571 16.4487 72.8571 16.542V17.116C72.8571 17.2093 72.8291 17.284 72.7731 17.34C72.7171 17.396 72.6424 17.424 72.5491 17.424H71.7091C71.2051 17.424 70.8084 17.5733 70.5191 17.872C70.2297 18.1613 70.0851 18.558 70.0851 19.062V23.178C70.0851 23.2713 70.0524 23.3507 69.9871 23.416C69.9217 23.472 69.8424 23.5 69.7491 23.5H69.0631ZM76.891 26.58C76.2564 26.58 75.7337 26.496 75.323 26.328C74.9217 26.16 74.6044 25.9547 74.371 25.712C74.147 25.4787 73.9837 25.2407 73.881 24.998C73.7877 24.7647 73.7364 24.578 73.727 24.438C73.7177 24.3447 73.7457 24.2653 73.811 24.2C73.8857 24.1347 73.965 24.102 74.049 24.102H74.721C74.805 24.102 74.875 24.1207 74.931 24.158C74.987 24.1953 75.0337 24.2747 75.071 24.396C75.127 24.536 75.211 24.69 75.323 24.858C75.435 25.0353 75.6077 25.1847 75.841 25.306C76.0744 25.4367 76.401 25.502 76.821 25.502C77.2597 25.502 77.6284 25.4413 77.927 25.32C78.2257 25.208 78.4497 25.0027 78.599 24.704C78.7577 24.4147 78.837 24.0133 78.837 23.5V22.548C78.613 22.8373 78.319 23.08 77.955 23.276C77.591 23.4627 77.1337 23.556 76.583 23.556C76.0604 23.556 75.6124 23.4673 75.239 23.29C74.8657 23.1033 74.5577 22.856 74.315 22.548C74.0817 22.2307 73.9044 21.8713 73.783 21.47C73.671 21.0687 73.6057 20.6487 73.587 20.21C73.5777 19.9487 73.5777 19.692 73.587 19.44C73.6057 19.0013 73.671 18.5813 73.783 18.18C73.9044 17.7787 74.0817 17.4193 74.315 17.102C74.5577 16.7847 74.8657 16.5373 75.239 16.36C75.6124 16.1733 76.0604 16.08 76.583 16.08C77.143 16.08 77.605 16.1873 77.969 16.402C78.3424 16.6073 78.6457 16.8593 78.879 17.158V16.556C78.879 16.4627 78.907 16.3833 78.963 16.318C79.0284 16.2527 79.1077 16.22 79.201 16.22H79.845C79.9384 16.22 80.0177 16.2527 80.083 16.318C80.1484 16.3833 80.181 16.4627 80.181 16.556V23.346C80.181 23.9713 80.0737 24.5267 79.859 25.012C79.6537 25.4973 79.3084 25.88 78.823 26.16C78.347 26.44 77.703 26.58 76.891 26.58ZM76.863 22.436C77.3297 22.436 77.703 22.3287 77.983 22.114C78.2724 21.8993 78.4824 21.6287 78.613 21.302C78.753 20.9753 78.8277 20.644 78.837 20.308C78.8464 20.1773 78.851 20.0187 78.851 19.832C78.851 19.636 78.8464 19.4727 78.837 19.342C78.8277 19.006 78.753 18.6747 78.613 18.348C78.4824 18.0213 78.2724 17.7507 77.983 17.536C77.703 17.3213 77.3297 17.214 76.863 17.214C76.3964 17.214 76.023 17.3213 75.743 17.536C75.463 17.7413 75.2624 18.0167 75.141 18.362C75.0197 18.698 74.9497 19.062 74.931 19.454C74.9217 19.6967 74.9217 19.944 74.931 20.196C74.9497 20.588 75.0197 20.9567 75.141 21.302C75.2624 21.638 75.463 21.9133 75.743 22.128C76.023 22.3333 76.3964 22.436 76.863 22.436ZM84.2926 23.64C83.8259 23.64 83.4012 23.5467 83.0186 23.36C82.6359 23.1733 82.3279 22.9213 82.0946 22.604C81.8612 22.2867 81.7446 21.9273 81.7446 21.526C81.7446 20.882 82.0059 20.3687 82.5286 19.986C83.0512 19.6033 83.7326 19.3513 84.5726 19.23L86.6586 18.936V18.53C86.6586 18.082 86.5279 17.732 86.2666 17.48C86.0146 17.228 85.5992 17.102 85.0206 17.102C84.6006 17.102 84.2599 17.186 83.9986 17.354C83.7466 17.522 83.5692 17.7367 83.4666 17.998C83.4106 18.138 83.3126 18.208 83.1726 18.208H82.5426C82.4399 18.208 82.3606 18.18 82.3046 18.124C82.2579 18.0587 82.2346 17.984 82.2346 17.9C82.2346 17.76 82.2859 17.5873 82.3886 17.382C82.5006 17.1767 82.6686 16.976 82.8926 16.78C83.1166 16.584 83.4012 16.4207 83.7466 16.29C84.1012 16.15 84.5306 16.08 85.0346 16.08C85.5946 16.08 86.0659 16.1547 86.4486 16.304C86.8312 16.444 87.1299 16.6353 87.3446 16.878C87.5686 17.1207 87.7272 17.396 87.8206 17.704C87.9232 18.012 87.9746 18.3247 87.9746 18.642V23.178C87.9746 23.2713 87.9419 23.3507 87.8766 23.416C87.8206 23.472 87.7459 23.5 87.6526 23.5H87.0086C86.9059 23.5 86.8266 23.472 86.7706 23.416C86.7146 23.3507 86.6866 23.2713 86.6866 23.178V22.576C86.5652 22.744 86.4019 22.912 86.1966 23.08C85.9912 23.2387 85.7346 23.374 85.4266 23.486C85.1186 23.5887 84.7406 23.64 84.2926 23.64ZM84.5866 22.59C84.9692 22.59 85.3192 22.5107 85.6366 22.352C85.9539 22.184 86.2012 21.9273 86.3786 21.582C86.5652 21.2367 86.6586 20.8027 86.6586 20.28V19.888L85.0346 20.126C84.3719 20.2193 83.8726 20.378 83.5366 20.602C83.2006 20.8167 83.0326 21.092 83.0326 21.428C83.0326 21.6893 83.1072 21.9087 83.2566 22.086C83.4152 22.254 83.6112 22.38 83.8446 22.464C84.0872 22.548 84.3346 22.59 84.5866 22.59ZM93.9228 23.5C93.8201 23.5 93.7408 23.472 93.6848 23.416C93.6288 23.3507 93.6008 23.2713 93.6008 23.178V14.036C93.6008 13.9333 93.6288 13.854 93.6848 13.798C93.7408 13.7327 93.8201 13.7 93.9228 13.7H99.6348C99.7375 13.7 99.8168 13.7327 99.8728 13.798C99.9288 13.854 99.9568 13.9333 99.9568 14.036V14.596C99.9568 14.6987 99.9288 14.778 99.8728 14.834C99.8168 14.89 99.7375 14.918 99.6348 14.918H94.9588V18.18H99.3548C99.4575 18.18 99.5368 18.2127 99.5928 18.278C99.6488 18.334 99.6768 18.4133 99.6768 18.516V19.076C99.6768 19.1693 99.6488 19.2487 99.5928 19.314C99.5368 19.37 99.4575 19.398 99.3548 19.398H94.9588V23.178C94.9588 23.2713 94.9261 23.3507 94.8608 23.416C94.8048 23.472 94.7255 23.5 94.6228 23.5H93.9228ZM101.931 23.5C101.837 23.5 101.758 23.472 101.693 23.416C101.637 23.3507 101.609 23.2713 101.609 23.178V13.882C101.609 13.7887 101.637 13.714 101.693 13.658C101.758 13.5927 101.837 13.56 101.931 13.56H102.589C102.691 13.56 102.771 13.5927 102.827 13.658C102.883 13.714 102.911 13.7887 102.911 13.882V23.178C102.911 23.2713 102.883 23.3507 102.827 23.416C102.771 23.472 102.691 23.5 102.589 23.5H101.931ZM107.897 23.64C106.936 23.64 106.17 23.346 105.601 22.758C105.032 22.1607 104.719 21.3487 104.663 20.322C104.654 20.2007 104.649 20.0467 104.649 19.86C104.649 19.664 104.654 19.5053 104.663 19.384C104.7 18.7213 104.854 18.1427 105.125 17.648C105.396 17.144 105.764 16.7567 106.231 16.486C106.707 16.2153 107.262 16.08 107.897 16.08C108.606 16.08 109.199 16.2293 109.675 16.528C110.16 16.8267 110.529 17.2513 110.781 17.802C111.033 18.3527 111.159 18.9967 111.159 19.734V19.972C111.159 20.0747 111.126 20.154 111.061 20.21C111.005 20.266 110.93 20.294 110.837 20.294H105.993C105.993 20.3033 105.993 20.322 105.993 20.35C105.993 20.378 105.993 20.4013 105.993 20.42C106.012 20.8027 106.096 21.162 106.245 21.498C106.394 21.8247 106.609 22.0907 106.889 22.296C107.169 22.5013 107.505 22.604 107.897 22.604C108.233 22.604 108.513 22.5527 108.737 22.45C108.961 22.3473 109.143 22.2353 109.283 22.114C109.423 21.9833 109.516 21.8853 109.563 21.82C109.647 21.6987 109.712 21.6287 109.759 21.61C109.806 21.582 109.88 21.568 109.983 21.568H110.655C110.748 21.568 110.823 21.596 110.879 21.652C110.944 21.6987 110.972 21.7687 110.963 21.862C110.954 22.002 110.879 22.1747 110.739 22.38C110.599 22.576 110.398 22.772 110.137 22.968C109.876 23.164 109.558 23.3273 109.185 23.458C108.812 23.5793 108.382 23.64 107.897 23.64ZM105.993 19.328H109.829V19.286C109.829 18.866 109.75 18.4927 109.591 18.166C109.442 17.8393 109.222 17.5827 108.933 17.396C108.644 17.2 108.298 17.102 107.897 17.102C107.496 17.102 107.15 17.2 106.861 17.396C106.581 17.5827 106.366 17.8393 106.217 18.166C106.068 18.4927 105.993 18.866 105.993 19.286V19.328ZM113.169 23.5C113.076 23.5 112.996 23.472 112.931 23.416C112.875 23.3507 112.847 23.2713 112.847 23.178V13.882C112.847 13.7887 112.875 13.714 112.931 13.658C112.996 13.5927 113.076 13.56 113.169 13.56H113.827C113.92 13.56 113.995 13.5927 114.051 13.658C114.116 13.714 114.149 13.7887 114.149 13.882V18.754L116.907 16.458C117.019 16.3647 117.103 16.304 117.159 16.276C117.224 16.2387 117.327 16.22 117.467 16.22H118.209C118.293 16.22 118.363 16.248 118.419 16.304C118.475 16.36 118.503 16.43 118.503 16.514C118.503 16.5513 118.489 16.5933 118.461 16.64C118.442 16.6867 118.4 16.7333 118.335 16.78L115.101 19.468L118.685 22.954C118.797 23.0473 118.853 23.1313 118.853 23.206C118.853 23.29 118.825 23.36 118.769 23.416C118.713 23.472 118.643 23.5 118.559 23.5H117.831C117.691 23.5 117.588 23.486 117.523 23.458C117.458 23.4207 117.374 23.3553 117.271 23.262L114.149 20.28V23.178C114.149 23.2713 114.116 23.3507 114.051 23.416C113.995 23.472 113.92 23.5 113.827 23.5H113.169ZM122.435 23.64C121.912 23.64 121.464 23.5747 121.091 23.444C120.718 23.3133 120.414 23.1547 120.181 22.968C119.948 22.7813 119.77 22.5947 119.649 22.408C119.537 22.2213 119.476 22.072 119.467 21.96C119.458 21.8573 119.49 21.778 119.565 21.722C119.64 21.666 119.714 21.638 119.789 21.638H120.405C120.461 21.638 120.503 21.6473 120.531 21.666C120.568 21.6753 120.615 21.7127 120.671 21.778C120.792 21.9087 120.928 22.0393 121.077 22.17C121.226 22.3007 121.408 22.408 121.623 22.492C121.847 22.576 122.122 22.618 122.449 22.618C122.925 22.618 123.317 22.5293 123.625 22.352C123.933 22.1653 124.087 21.8947 124.087 21.54C124.087 21.3067 124.022 21.12 123.891 20.98C123.77 20.84 123.546 20.714 123.219 20.602C122.902 20.49 122.463 20.3733 121.903 20.252C121.343 20.1213 120.9 19.9627 120.573 19.776C120.246 19.58 120.013 19.3513 119.873 19.09C119.733 18.8193 119.663 18.516 119.663 18.18C119.663 17.8347 119.766 17.5033 119.971 17.186C120.176 16.8593 120.475 16.5933 120.867 16.388C121.268 16.1827 121.768 16.08 122.365 16.08C122.85 16.08 123.266 16.1407 123.611 16.262C123.956 16.3833 124.241 16.5373 124.465 16.724C124.689 16.9013 124.857 17.0787 124.969 17.256C125.081 17.4333 125.142 17.5827 125.151 17.704C125.16 17.7973 125.132 17.8767 125.067 17.942C125.002 17.998 124.927 18.026 124.843 18.026H124.255C124.19 18.026 124.134 18.012 124.087 17.984C124.05 17.956 124.012 17.9233 123.975 17.886C123.882 17.7647 123.77 17.6433 123.639 17.522C123.518 17.4007 123.354 17.3027 123.149 17.228C122.953 17.144 122.692 17.102 122.365 17.102C121.898 17.102 121.548 17.2 121.315 17.396C121.082 17.592 120.965 17.8393 120.965 18.138C120.965 18.3153 121.016 18.474 121.119 18.614C121.222 18.754 121.418 18.88 121.707 18.992C121.996 19.104 122.426 19.2253 122.995 19.356C123.611 19.4773 124.096 19.6407 124.451 19.846C124.806 20.0513 125.058 20.2893 125.207 20.56C125.356 20.8307 125.431 21.1433 125.431 21.498C125.431 21.89 125.314 22.2493 125.081 22.576C124.857 22.9027 124.521 23.164 124.073 23.36C123.634 23.5467 123.088 23.64 122.435 23.64ZM127.374 23.5C127.28 23.5 127.201 23.472 127.136 23.416C127.08 23.3507 127.052 23.2713 127.052 23.178V16.542C127.052 16.4487 127.08 16.374 127.136 16.318C127.201 16.2527 127.28 16.22 127.374 16.22H128.046C128.139 16.22 128.214 16.2527 128.27 16.318C128.326 16.374 128.354 16.4487 128.354 16.542V23.178C128.354 23.2713 128.326 23.3507 128.27 23.416C128.214 23.472 128.139 23.5 128.046 23.5H127.374ZM127.262 14.862C127.168 14.862 127.089 14.834 127.024 14.778C126.968 14.7127 126.94 14.6333 126.94 14.54V13.784C126.94 13.6907 126.968 13.616 127.024 13.56C127.089 13.4947 127.168 13.462 127.262 13.462H128.144C128.237 13.462 128.312 13.4947 128.368 13.56C128.433 13.616 128.466 13.6907 128.466 13.784V14.54C128.466 14.6333 128.433 14.7127 128.368 14.778C128.312 14.834 128.237 14.862 128.144 14.862H127.262ZM134.04 23.64C133.48 23.64 133.014 23.542 132.64 23.346C132.267 23.1407 131.968 22.8887 131.744 22.59V23.178C131.744 23.2713 131.712 23.3507 131.646 23.416C131.59 23.472 131.516 23.5 131.422 23.5H130.778C130.685 23.5 130.606 23.472 130.54 23.416C130.484 23.3507 130.456 23.2713 130.456 23.178V13.882C130.456 13.7887 130.484 13.714 130.54 13.658C130.606 13.5927 130.685 13.56 130.778 13.56H131.45C131.553 13.56 131.632 13.5927 131.688 13.658C131.744 13.714 131.772 13.7887 131.772 13.882V17.102C132.006 16.8127 132.304 16.57 132.668 16.374C133.042 16.178 133.499 16.08 134.04 16.08C134.563 16.08 135.006 16.1733 135.37 16.36C135.744 16.5373 136.047 16.7847 136.28 17.102C136.523 17.4193 136.705 17.7787 136.826 18.18C136.948 18.5813 137.013 19.0013 137.022 19.44C137.032 19.5893 137.036 19.7293 137.036 19.86C137.036 19.9907 137.032 20.1307 137.022 20.28C137.013 20.728 136.948 21.1527 136.826 21.554C136.705 21.9553 136.523 22.3147 136.28 22.632C136.047 22.94 135.744 23.1873 135.37 23.374C135.006 23.5513 134.563 23.64 134.04 23.64ZM133.746 22.506C134.232 22.506 134.61 22.4033 134.88 22.198C135.16 21.9833 135.361 21.708 135.482 21.372C135.604 21.0267 135.674 20.658 135.692 20.266C135.702 19.9953 135.702 19.7247 135.692 19.454C135.674 19.062 135.604 18.698 135.482 18.362C135.361 18.0167 135.16 17.7413 134.88 17.536C134.61 17.3213 134.232 17.214 133.746 17.214C133.308 17.214 132.944 17.3167 132.654 17.522C132.365 17.7273 132.146 17.9887 131.996 18.306C131.856 18.6233 131.782 18.9453 131.772 19.272C131.763 19.4213 131.758 19.6033 131.758 19.818C131.758 20.0233 131.763 20.2007 131.772 20.35C131.791 20.6953 131.866 21.036 131.996 21.372C132.136 21.6987 132.346 21.9693 132.626 22.184C132.916 22.3987 133.289 22.506 133.746 22.506ZM141.666 23.64C140.705 23.64 139.94 23.346 139.37 22.758C138.801 22.1607 138.488 21.3487 138.432 20.322C138.423 20.2007 138.418 20.0467 138.418 19.86C138.418 19.664 138.423 19.5053 138.432 19.384C138.47 18.7213 138.624 18.1427 138.894 17.648C139.165 17.144 139.534 16.7567 140 16.486C140.476 16.2153 141.032 16.08 141.666 16.08C142.376 16.08 142.968 16.2293 143.444 16.528C143.93 16.8267 144.298 17.2513 144.55 17.802C144.802 18.3527 144.928 18.9967 144.928 19.734V19.972C144.928 20.0747 144.896 20.154 144.83 20.21C144.774 20.266 144.7 20.294 144.606 20.294H139.762C139.762 20.3033 139.762 20.322 139.762 20.35C139.762 20.378 139.762 20.4013 139.762 20.42C139.781 20.8027 139.865 21.162 140.014 21.498C140.164 21.8247 140.378 22.0907 140.658 22.296C140.938 22.5013 141.274 22.604 141.666 22.604C142.002 22.604 142.282 22.5527 142.506 22.45C142.73 22.3473 142.912 22.2353 143.052 22.114C143.192 21.9833 143.286 21.8853 143.332 21.82C143.416 21.6987 143.482 21.6287 143.528 21.61C143.575 21.582 143.65 21.568 143.752 21.568H144.424C144.518 21.568 144.592 21.596 144.648 21.652C144.714 21.6987 144.742 21.7687 144.732 21.862C144.723 22.002 144.648 22.1747 144.508 22.38C144.368 22.576 144.168 22.772 143.906 22.968C143.645 23.164 143.328 23.3273 142.954 23.458C142.581 23.5793 142.152 23.64 141.666 23.64ZM139.762 19.328H143.598V19.286C143.598 18.866 143.519 18.4927 143.36 18.166C143.211 17.8393 142.992 17.5827 142.702 17.396C142.413 17.2 142.068 17.102 141.666 17.102C141.265 17.102 140.92 17.2 140.63 17.396C140.35 17.5827 140.136 17.8393 139.986 18.166C139.837 18.4927 139.762 18.866 139.762 19.286V19.328ZM146.938 23.5C146.845 23.5 146.766 23.472 146.7 23.416C146.644 23.3507 146.616 23.2713 146.616 23.178V13.882C146.616 13.7887 146.644 13.714 146.7 13.658C146.766 13.5927 146.845 13.56 146.938 13.56H147.596C147.699 13.56 147.778 13.5927 147.834 13.658C147.89 13.714 147.918 13.7887 147.918 13.882V23.178C147.918 23.2713 147.89 23.3507 147.834 23.416C147.778 23.472 147.699 23.5 147.596 23.5H146.938Z" fill="#141F25"/>
<defs>
<linearGradient id="paint0_linear_1_433" x1="-1.07732" y1="8.23332" x2="46.727" y2="11.6281" gradientUnits="userSpaceOnUse">
<stop stop-color="#FFB629"/>
<stop offset="0.507189" stop-color="#FFDA56"/>
<stop offset="1" stop-color="#FFD7A6"/>
</linearGradient>
</defs>
</svg>
