<svg width="220" height="39" viewBox="0 0 220 39" fill="none" xmlns="http://www.w3.org/2000/svg">
<circle cx="19" cy="19.3113" r="19" fill="url(#paint0_linear_1_415)"/>
<path d="M19.3016 14.1843V12.3748" stroke="#141F25" stroke-width="2" stroke-linecap="round" stroke-linejoin="round"/>
<path d="M25.3334 21.1129C24.4161 24.3307 20.1687 25.4537 19.4147 25.6304C19.3405 25.6494 19.2628 25.6494 19.1885 25.6304C18.4346 25.4537 14.1872 24.3307 13.2699 21.1129V18.9552C13.2699 18.8489 13.3033 18.7453 13.3653 18.6592C13.4274 18.5731 13.5149 18.5089 13.6155 18.4756L19.1446 16.6207C19.2469 16.5891 19.3564 16.5891 19.4587 16.6207L24.9878 18.4756C25.0884 18.5089 25.1759 18.5731 25.2379 18.6592C25.3 18.7453 25.3334 18.8489 25.3334 18.9552V21.1129Z" stroke="#141F25" stroke-width="2" stroke-linecap="round" stroke-linejoin="round"/>
<path d="M19.3016 21.4224V16.597" stroke="#141F25" stroke-width="2" stroke-linecap="round" stroke-linejoin="round"/>
<path d="M15.0793 17.8033V14.6367C15.0793 14.5167 15.1323 14.4016 15.2266 14.3168C15.3208 14.232 15.4487 14.1843 15.582 14.1843H23.6243C23.7576 14.1843 23.8855 14.232 23.9797 14.3168C24.074 14.4016 24.127 14.5167 24.127 14.6367V17.8033" stroke="#141F25" stroke-width="2" stroke-linecap="round" stroke-linejoin="round"/>
<path d="M50.56 23.8113C50.4853 23.8113 50.42 23.7833 50.364 23.7273C50.308 23.6713 50.28 23.6059 50.28 23.5313C50.28 23.4846 50.2847 23.4333 50.294 23.3773L53.766 14.3193C53.8033 14.2259 53.8547 14.1513 53.92 14.0953C53.9853 14.0393 54.0833 14.0113 54.214 14.0113H55.166C55.2873 14.0113 55.3807 14.0393 55.446 14.0953C55.5207 14.1513 55.5767 14.2259 55.614 14.3193L59.072 23.3773C59.0907 23.4333 59.1 23.4846 59.1 23.5313C59.1 23.6059 59.072 23.6713 59.016 23.7273C58.96 23.7833 58.8947 23.8113 58.82 23.8113H58.106C57.994 23.8113 57.91 23.7833 57.854 23.7273C57.8073 23.6713 57.7747 23.6199 57.756 23.5733L56.986 21.5853H52.394L51.624 23.5733C51.6147 23.6199 51.582 23.6713 51.526 23.7273C51.47 23.7833 51.386 23.8113 51.274 23.8113H50.56ZM52.8 20.3813H56.58L54.69 15.4113L52.8 20.3813ZM60.7369 23.8113C60.6436 23.8113 60.5642 23.7833 60.4989 23.7273C60.4429 23.6619 60.4149 23.5826 60.4149 23.4893V16.8673C60.4149 16.7739 60.4429 16.6946 60.4989 16.6293C60.5642 16.5639 60.6436 16.5313 60.7369 16.5313H61.3809C61.4742 16.5313 61.5536 16.5639 61.6189 16.6293C61.6842 16.6946 61.7169 16.7739 61.7169 16.8673V17.4833C61.9036 17.1659 62.1602 16.9279 62.4869 16.7693C62.8136 16.6106 63.2056 16.5313 63.6629 16.5313H64.2229C64.3162 16.5313 64.3909 16.5639 64.4469 16.6293C64.5029 16.6853 64.5309 16.7599 64.5309 16.8533V17.4273C64.5309 17.5206 64.5029 17.5953 64.4469 17.6513C64.3909 17.7073 64.3162 17.7353 64.2229 17.7353H63.3829C62.8789 17.7353 62.4822 17.8846 62.1929 18.1833C61.9036 18.4726 61.7589 18.8693 61.7589 19.3733V23.4893C61.7589 23.5826 61.7262 23.6619 61.6609 23.7273C61.5956 23.7833 61.5162 23.8113 61.4229 23.8113H60.7369ZM66.0553 23.8113C65.9619 23.8113 65.8826 23.7833 65.8173 23.7273C65.7613 23.6619 65.7333 23.5826 65.7333 23.4893V16.8533C65.7333 16.7599 65.7613 16.6853 65.8173 16.6293C65.8826 16.5639 65.9619 16.5313 66.0553 16.5313H66.6853C66.7786 16.5313 66.8533 16.5639 66.9093 16.6293C66.9746 16.6853 67.0073 16.7599 67.0073 16.8533V17.3433C67.2219 17.0539 67.4926 16.8253 67.8193 16.6573C68.1459 16.4799 68.5379 16.3913 68.9953 16.3913C70.0499 16.3819 70.7966 16.8113 71.2353 17.6793C71.4499 17.2873 71.7626 16.9746 72.1733 16.7413C72.5839 16.5079 73.0506 16.3913 73.5733 16.3913C74.0586 16.3913 74.4973 16.5033 74.8893 16.7273C75.2906 16.9513 75.6033 17.2919 75.8273 17.7493C76.0606 18.1973 76.1773 18.7619 76.1773 19.4433V23.4893C76.1773 23.5826 76.1446 23.6619 76.0793 23.7273C76.0233 23.7833 75.9486 23.8113 75.8553 23.8113H75.1973C75.1039 23.8113 75.0246 23.7833 74.9593 23.7273C74.9033 23.6619 74.8753 23.5826 74.8753 23.4893V19.5693C74.8753 19.0466 74.8006 18.6359 74.6513 18.3373C74.5019 18.0386 74.3013 17.8286 74.0493 17.7073C73.7973 17.5859 73.5219 17.5253 73.2233 17.5253C72.9806 17.5253 72.7333 17.5859 72.4813 17.7073C72.2293 17.8286 72.0193 18.0386 71.8513 18.3373C71.6926 18.6359 71.6133 19.0466 71.6133 19.5693V23.4893C71.6133 23.5826 71.5806 23.6619 71.5153 23.7273C71.4593 23.7833 71.3846 23.8113 71.2913 23.8113H70.6333C70.5399 23.8113 70.4606 23.7833 70.3953 23.7273C70.3393 23.6619 70.3113 23.5826 70.3113 23.4893V19.5693C70.3113 19.0466 70.2319 18.6359 70.0733 18.3373C69.9146 18.0386 69.7093 17.8286 69.4573 17.7073C69.2053 17.5859 68.9393 17.5253 68.6593 17.5253C68.4166 17.5253 68.1693 17.5859 67.9173 17.7073C67.6653 17.8286 67.4553 18.0386 67.2873 18.3373C67.1286 18.6359 67.0493 19.0419 67.0493 19.5553V23.4893C67.0493 23.5826 67.0166 23.6619 66.9513 23.7273C66.8953 23.7833 66.8206 23.8113 66.7273 23.8113H66.0553ZM80.2047 23.9513C79.738 23.9513 79.3133 23.8579 78.9307 23.6713C78.548 23.4846 78.24 23.2326 78.0067 22.9153C77.7733 22.5979 77.6567 22.2386 77.6567 21.8373C77.6567 21.1933 77.918 20.6799 78.4407 20.2973C78.9633 19.9146 79.6447 19.6626 80.4847 19.5413L82.5707 19.2473V18.8413C82.5707 18.3933 82.44 18.0433 82.1787 17.7913C81.9267 17.5393 81.5113 17.4133 80.9327 17.4133C80.5127 17.4133 80.172 17.4973 79.9107 17.6653C79.6587 17.8333 79.4813 18.0479 79.3787 18.3093C79.3227 18.4493 79.2247 18.5193 79.0847 18.5193H78.4547C78.352 18.5193 78.2727 18.4913 78.2167 18.4353C78.17 18.3699 78.1467 18.2953 78.1467 18.2113C78.1467 18.0713 78.198 17.8986 78.3007 17.6933C78.4127 17.4879 78.5807 17.2873 78.8047 17.0913C79.0287 16.8953 79.3133 16.7319 79.6587 16.6013C80.0133 16.4613 80.4427 16.3913 80.9467 16.3913C81.5067 16.3913 81.978 16.4659 82.3607 16.6153C82.7433 16.7553 83.042 16.9466 83.2567 17.1893C83.4807 17.4319 83.6393 17.7073 83.7327 18.0153C83.8353 18.3233 83.8867 18.6359 83.8867 18.9533V23.4893C83.8867 23.5826 83.854 23.6619 83.7887 23.7273C83.7327 23.7833 83.658 23.8113 83.5647 23.8113H82.9207C82.818 23.8113 82.7387 23.7833 82.6827 23.7273C82.6267 23.6619 82.5987 23.5826 82.5987 23.4893V22.8873C82.4773 23.0553 82.314 23.2233 82.1087 23.3913C81.9033 23.5499 81.6467 23.6853 81.3387 23.7973C81.0307 23.8999 80.6527 23.9513 80.2047 23.9513ZM80.4987 22.9013C80.8813 22.9013 81.2313 22.8219 81.5487 22.6633C81.866 22.4953 82.1133 22.2386 82.2907 21.8933C82.4773 21.5479 82.5707 21.1139 82.5707 20.5913V20.1993L80.9467 20.4373C80.284 20.5306 79.7847 20.6893 79.4487 20.9133C79.1127 21.1279 78.9447 21.4033 78.9447 21.7393C78.9447 22.0006 79.0193 22.2199 79.1687 22.3973C79.3273 22.5653 79.5233 22.6913 79.7567 22.7753C79.9993 22.8593 80.2467 22.9013 80.4987 22.9013ZM88.5593 23.9513C88.0459 23.9513 87.6026 23.8626 87.2293 23.6853C86.8559 23.4986 86.5479 23.2513 86.3053 22.9433C86.0719 22.6259 85.8946 22.2666 85.7733 21.8653C85.6613 21.4639 85.5959 21.0393 85.5773 20.5913C85.5679 20.4419 85.5633 20.3019 85.5633 20.1713C85.5633 20.0406 85.5679 19.9006 85.5773 19.7513C85.5959 19.3126 85.6613 18.8926 85.7733 18.4913C85.8946 18.0899 86.0719 17.7306 86.3053 17.4133C86.5479 17.0959 86.8559 16.8486 87.2293 16.6713C87.6026 16.4846 88.0459 16.3913 88.5593 16.3913C89.1099 16.3913 89.5673 16.4893 89.9313 16.6853C90.2953 16.8813 90.5939 17.1239 90.8273 17.4133V14.1933C90.8273 14.0999 90.8553 14.0253 90.9113 13.9693C90.9766 13.9039 91.0559 13.8713 91.1493 13.8713H91.8213C91.9146 13.8713 91.9893 13.9039 92.0453 13.9693C92.1106 14.0253 92.1433 14.0999 92.1433 14.1933V23.4893C92.1433 23.5826 92.1106 23.6619 92.0453 23.7273C91.9893 23.7833 91.9146 23.8113 91.8213 23.8113H91.1913C91.0886 23.8113 91.0093 23.7833 90.9533 23.7273C90.8973 23.6619 90.8693 23.5826 90.8693 23.4893V22.9013C90.6359 23.1999 90.3326 23.4519 89.9593 23.6573C89.5859 23.8533 89.1193 23.9513 88.5593 23.9513ZM88.8533 22.8173C89.3199 22.8173 89.6933 22.7099 89.9733 22.4953C90.2533 22.2806 90.4633 22.0099 90.6033 21.6833C90.7433 21.3473 90.8179 21.0066 90.8273 20.6613C90.8366 20.5119 90.8413 20.3346 90.8413 20.1293C90.8413 19.9146 90.8366 19.7326 90.8273 19.5833C90.8179 19.2566 90.7386 18.9346 90.5893 18.6173C90.4493 18.2999 90.2346 18.0386 89.9453 17.8333C89.6653 17.6279 89.3013 17.5253 88.8533 17.5253C88.3773 17.5253 87.9993 17.6326 87.7193 17.8473C87.4393 18.0526 87.2386 18.3279 87.1173 18.6733C86.9959 19.0093 86.9259 19.3733 86.9073 19.7653C86.8979 20.0359 86.8979 20.3066 86.9073 20.5773C86.9259 20.9693 86.9959 21.3379 87.1173 21.6833C87.2386 22.0193 87.4393 22.2946 87.7193 22.5093C87.9993 22.7146 88.3773 22.8173 88.8533 22.8173ZM96.2555 23.9513C95.7888 23.9513 95.3641 23.8579 94.9815 23.6713C94.5988 23.4846 94.2908 23.2326 94.0575 22.9153C93.8241 22.5979 93.7075 22.2386 93.7075 21.8373C93.7075 21.1933 93.9688 20.6799 94.4915 20.2973C95.0141 19.9146 95.6955 19.6626 96.5355 19.5413L98.6215 19.2473V18.8413C98.6215 18.3933 98.4908 18.0433 98.2295 17.7913C97.9775 17.5393 97.5621 17.4133 96.9835 17.4133C96.5635 17.4133 96.2228 17.4973 95.9615 17.6653C95.7095 17.8333 95.5321 18.0479 95.4295 18.3093C95.3735 18.4493 95.2755 18.5193 95.1355 18.5193H94.5055C94.4028 18.5193 94.3235 18.4913 94.2675 18.4353C94.2208 18.3699 94.1975 18.2953 94.1975 18.2113C94.1975 18.0713 94.2488 17.8986 94.3515 17.6933C94.4635 17.4879 94.6315 17.2873 94.8555 17.0913C95.0795 16.8953 95.3641 16.7319 95.7095 16.6013C96.0641 16.4613 96.4935 16.3913 96.9975 16.3913C97.5575 16.3913 98.0288 16.4659 98.4115 16.6153C98.7941 16.7553 99.0928 16.9466 99.3075 17.1893C99.5315 17.4319 99.6901 17.7073 99.7835 18.0153C99.8861 18.3233 99.9375 18.6359 99.9375 18.9533V23.4893C99.9375 23.5826 99.9048 23.6619 99.8395 23.7273C99.7835 23.7833 99.7088 23.8113 99.6155 23.8113H98.9715C98.8688 23.8113 98.7895 23.7833 98.7335 23.7273C98.6775 23.6619 98.6495 23.5826 98.6495 23.4893V22.8873C98.5281 23.0553 98.3648 23.2233 98.1595 23.3913C97.9541 23.5499 97.6975 23.6853 97.3895 23.7973C97.0815 23.8999 96.7035 23.9513 96.2555 23.9513ZM96.5495 22.9013C96.9321 22.9013 97.2821 22.8219 97.5995 22.6633C97.9168 22.4953 98.1641 22.2386 98.3415 21.8933C98.5281 21.5479 98.6215 21.1139 98.6215 20.5913V20.1993L96.9975 20.4373C96.3348 20.5306 95.8355 20.6893 95.4995 20.9133C95.1635 21.1279 94.9955 21.4033 94.9955 21.7393C94.9955 22.0006 95.0701 22.2199 95.2195 22.3973C95.3781 22.5653 95.5741 22.6913 95.8075 22.7753C96.0501 22.8593 96.2975 22.9013 96.5495 22.9013ZM105.886 23.8113C105.783 23.8113 105.704 23.7833 105.648 23.7273C105.592 23.6619 105.564 23.5826 105.564 23.4893V14.3473C105.564 14.2446 105.592 14.1653 105.648 14.1093C105.704 14.0439 105.783 14.0113 105.886 14.0113H109.722C110.422 14.0113 110.991 14.1279 111.43 14.3613C111.878 14.5853 112.204 14.8933 112.41 15.2853C112.624 15.6773 112.732 16.1159 112.732 16.6013C112.732 16.9839 112.666 17.3153 112.536 17.5953C112.414 17.8659 112.26 18.0899 112.074 18.2673C111.887 18.4353 111.705 18.5659 111.528 18.6593C111.892 18.8366 112.214 19.1259 112.494 19.5273C112.783 19.9286 112.928 20.4139 112.928 20.9833C112.928 21.4966 112.811 21.9679 112.578 22.3973C112.344 22.8266 111.994 23.1719 111.528 23.4333C111.07 23.6853 110.501 23.8113 109.82 23.8113H105.886ZM106.936 22.6773H109.638C110.244 22.6773 110.711 22.5139 111.038 22.1873C111.364 21.8606 111.528 21.4593 111.528 20.9833C111.528 20.4886 111.364 20.0826 111.038 19.7653C110.711 19.4386 110.244 19.2753 109.638 19.2753H106.936V22.6773ZM106.936 18.1553H109.512C110.109 18.1553 110.562 18.0199 110.87 17.7493C111.178 17.4693 111.332 17.0913 111.332 16.6153C111.332 16.1393 111.178 15.7753 110.87 15.5233C110.562 15.2713 110.109 15.1453 109.512 15.1453H106.936V18.1553ZM117.631 23.9513C116.67 23.9513 115.905 23.6573 115.335 23.0693C114.766 22.4719 114.453 21.6599 114.397 20.6333C114.388 20.5119 114.383 20.3579 114.383 20.1713C114.383 19.9753 114.388 19.8166 114.397 19.6953C114.435 19.0326 114.589 18.4539 114.859 17.9593C115.13 17.4553 115.499 17.0679 115.965 16.7973C116.441 16.5266 116.997 16.3913 117.631 16.3913C118.341 16.3913 118.933 16.5406 119.409 16.8393C119.895 17.1379 120.263 17.5626 120.515 18.1133C120.767 18.6639 120.893 19.3079 120.893 20.0453V20.2833C120.893 20.3859 120.861 20.4653 120.795 20.5213C120.739 20.5773 120.665 20.6053 120.571 20.6053H115.727C115.727 20.6146 115.727 20.6333 115.727 20.6613C115.727 20.6893 115.727 20.7126 115.727 20.7313C115.746 21.1139 115.83 21.4733 115.979 21.8093C116.129 22.1359 116.343 22.4019 116.623 22.6073C116.903 22.8126 117.239 22.9153 117.631 22.9153C117.967 22.9153 118.247 22.8639 118.471 22.7613C118.695 22.6586 118.877 22.5466 119.017 22.4253C119.157 22.2946 119.251 22.1966 119.297 22.1313C119.381 22.0099 119.447 21.9399 119.493 21.9213C119.54 21.8933 119.615 21.8793 119.717 21.8793H120.389C120.483 21.8793 120.557 21.9073 120.613 21.9633C120.679 22.0099 120.707 22.0799 120.697 22.1733C120.688 22.3133 120.613 22.4859 120.473 22.6913C120.333 22.8873 120.133 23.0833 119.871 23.2793C119.61 23.4753 119.293 23.6386 118.919 23.7693C118.546 23.8906 118.117 23.9513 117.631 23.9513ZM115.727 19.6393H119.563V19.5973C119.563 19.1773 119.484 18.8039 119.325 18.4773C119.176 18.1506 118.957 17.8939 118.667 17.7073C118.378 17.5113 118.033 17.4133 117.631 17.4133C117.23 17.4133 116.885 17.5113 116.595 17.7073C116.315 17.8939 116.101 18.1506 115.951 18.4773C115.802 18.8039 115.727 19.1773 115.727 19.5973V19.6393ZM122.889 23.8113C122.796 23.8113 122.717 23.7833 122.651 23.7273C122.595 23.6619 122.567 23.5826 122.567 23.4893V16.8673C122.567 16.7739 122.595 16.6946 122.651 16.6293C122.717 16.5639 122.796 16.5313 122.889 16.5313H123.533C123.627 16.5313 123.706 16.5639 123.771 16.6293C123.837 16.6946 123.869 16.7739 123.869 16.8673V17.4833C124.056 17.1659 124.313 16.9279 124.639 16.7693C124.966 16.6106 125.358 16.5313 125.815 16.5313H126.375C126.469 16.5313 126.543 16.5639 126.599 16.6293C126.655 16.6853 126.683 16.7599 126.683 16.8533V17.4273C126.683 17.5206 126.655 17.5953 126.599 17.6513C126.543 17.7073 126.469 17.7353 126.375 17.7353H125.535C125.031 17.7353 124.635 17.8846 124.345 18.1833C124.056 18.4726 123.911 18.8693 123.911 19.3733V23.4893C123.911 23.5826 123.879 23.6619 123.813 23.7273C123.748 23.7833 123.669 23.8113 123.575 23.8113H122.889ZM128.222 23.8113C128.128 23.8113 128.049 23.7833 127.984 23.7273C127.928 23.6619 127.9 23.5826 127.9 23.4893V14.1933C127.9 14.0999 127.928 14.0253 127.984 13.9693C128.049 13.9039 128.128 13.8713 128.222 13.8713H128.88C128.973 13.8713 129.048 13.9039 129.104 13.9693C129.169 14.0253 129.202 14.0999 129.202 14.1933V19.0653L131.96 16.7693C132.072 16.6759 132.156 16.6153 132.212 16.5873C132.277 16.5499 132.38 16.5313 132.52 16.5313H133.262C133.346 16.5313 133.416 16.5593 133.472 16.6153C133.528 16.6713 133.556 16.7413 133.556 16.8253C133.556 16.8626 133.542 16.9046 133.514 16.9513C133.495 16.9979 133.453 17.0446 133.388 17.0913L130.154 19.7793L133.738 23.2653C133.85 23.3586 133.906 23.4426 133.906 23.5173C133.906 23.6013 133.878 23.6713 133.822 23.7273C133.766 23.7833 133.696 23.8113 133.612 23.8113H132.884C132.744 23.8113 132.641 23.7973 132.576 23.7693C132.51 23.7319 132.426 23.6666 132.324 23.5733L129.202 20.5913V23.4893C129.202 23.5826 129.169 23.6619 129.104 23.7273C129.048 23.7833 128.973 23.8113 128.88 23.8113H128.222ZM137.807 23.9513C137.209 23.9513 136.701 23.8206 136.281 23.5593C135.87 23.2886 135.557 22.9153 135.343 22.4393C135.128 21.9633 135.021 21.4173 135.021 20.8013V16.8533C135.021 16.7599 135.049 16.6853 135.105 16.6293C135.17 16.5639 135.249 16.5313 135.343 16.5313H136.043C136.136 16.5313 136.211 16.5639 136.267 16.6293C136.332 16.6853 136.365 16.7599 136.365 16.8533V20.7313C136.365 22.1219 136.971 22.8173 138.185 22.8173C138.763 22.8173 139.225 22.6353 139.571 22.2713C139.925 21.8979 140.103 21.3846 140.103 20.7313V16.8533C140.103 16.7599 140.131 16.6853 140.187 16.6293C140.252 16.5639 140.331 16.5313 140.425 16.5313H141.111C141.213 16.5313 141.293 16.5639 141.349 16.6293C141.405 16.6853 141.433 16.7599 141.433 16.8533V23.4893C141.433 23.5826 141.405 23.6619 141.349 23.7273C141.293 23.7833 141.213 23.8113 141.111 23.8113H140.467C140.373 23.8113 140.294 23.7833 140.229 23.7273C140.173 23.6619 140.145 23.5826 140.145 23.4893V22.8733C139.893 23.1999 139.585 23.4613 139.221 23.6573C138.866 23.8533 138.395 23.9513 137.807 23.9513ZM145.543 23.9513C145.076 23.9513 144.651 23.8579 144.269 23.6713C143.886 23.4846 143.578 23.2326 143.345 22.9153C143.111 22.5979 142.995 22.2386 142.995 21.8373C142.995 21.1933 143.256 20.6799 143.779 20.2973C144.301 19.9146 144.983 19.6626 145.823 19.5413L147.909 19.2473V18.8413C147.909 18.3933 147.778 18.0433 147.517 17.7913C147.265 17.5393 146.849 17.4133 146.271 17.4133C145.851 17.4133 145.51 17.4973 145.249 17.6653C144.997 17.8333 144.819 18.0479 144.717 18.3093C144.661 18.4493 144.563 18.5193 144.423 18.5193H143.793C143.69 18.5193 143.611 18.4913 143.555 18.4353C143.508 18.3699 143.485 18.2953 143.485 18.2113C143.485 18.0713 143.536 17.8986 143.639 17.6933C143.751 17.4879 143.919 17.2873 144.143 17.0913C144.367 16.8953 144.651 16.7319 144.997 16.6013C145.351 16.4613 145.781 16.3913 146.285 16.3913C146.845 16.3913 147.316 16.4659 147.699 16.6153C148.081 16.7553 148.38 16.9466 148.595 17.1893C148.819 17.4319 148.977 17.7073 149.071 18.0153C149.173 18.3233 149.225 18.6359 149.225 18.9533V23.4893C149.225 23.5826 149.192 23.6619 149.127 23.7273C149.071 23.7833 148.996 23.8113 148.903 23.8113H148.259C148.156 23.8113 148.077 23.7833 148.021 23.7273C147.965 23.6619 147.937 23.5826 147.937 23.4893V22.8873C147.815 23.0553 147.652 23.2233 147.447 23.3913C147.241 23.5499 146.985 23.6853 146.677 23.7973C146.369 23.8999 145.991 23.9513 145.543 23.9513ZM145.837 22.9013C146.219 22.9013 146.569 22.8219 146.887 22.6633C147.204 22.4953 147.451 22.2386 147.629 21.8933C147.815 21.5479 147.909 21.1139 147.909 20.5913V20.1993L146.285 20.4373C145.622 20.5306 145.123 20.6893 144.787 20.9133C144.451 21.1279 144.283 21.4033 144.283 21.7393C144.283 22.0006 144.357 22.2199 144.507 22.3973C144.665 22.5653 144.861 22.6913 145.095 22.7753C145.337 22.8593 145.585 22.9013 145.837 22.9013ZM151.573 23.8113C151.48 23.8113 151.401 23.7833 151.335 23.7273C151.279 23.6619 151.251 23.5826 151.251 23.4893V14.1933C151.251 14.0999 151.279 14.0253 151.335 13.9693C151.401 13.9039 151.48 13.8713 151.573 13.8713H152.231C152.334 13.8713 152.413 13.9039 152.469 13.9693C152.525 14.0253 152.553 14.0999 152.553 14.1933V23.4893C152.553 23.5826 152.525 23.6619 152.469 23.7273C152.413 23.7833 152.334 23.8113 152.231 23.8113H151.573ZM155.1 23.8113C155.007 23.8113 154.928 23.7833 154.862 23.7273C154.806 23.6619 154.778 23.5826 154.778 23.4893V16.8533C154.778 16.7599 154.806 16.6853 154.862 16.6293C154.928 16.5639 155.007 16.5313 155.1 16.5313H155.772C155.866 16.5313 155.94 16.5639 155.996 16.6293C156.052 16.6853 156.08 16.7599 156.08 16.8533V23.4893C156.08 23.5826 156.052 23.6619 155.996 23.7273C155.94 23.7833 155.866 23.8113 155.772 23.8113H155.1ZM154.988 15.1733C154.895 15.1733 154.816 15.1453 154.75 15.0893C154.694 15.0239 154.666 14.9446 154.666 14.8513V14.0953C154.666 14.0019 154.694 13.9273 154.75 13.8713C154.816 13.8059 154.895 13.7733 154.988 13.7733H155.87C155.964 13.7733 156.038 13.8059 156.094 13.8713C156.16 13.9273 156.192 14.0019 156.192 14.0953V14.8513C156.192 14.9446 156.16 15.0239 156.094 15.0893C156.038 15.1453 155.964 15.1733 155.87 15.1733H154.988ZM161.011 23.8113C160.488 23.8113 160.063 23.7133 159.737 23.5173C159.41 23.3119 159.172 23.0273 159.023 22.6633C158.873 22.2899 158.799 21.8513 158.799 21.3473V17.6513H157.707C157.613 17.6513 157.534 17.6233 157.469 17.5673C157.413 17.5019 157.385 17.4226 157.385 17.3293V16.8533C157.385 16.7599 157.413 16.6853 157.469 16.6293C157.534 16.5639 157.613 16.5313 157.707 16.5313H158.799V14.1933C158.799 14.0999 158.827 14.0253 158.883 13.9693C158.948 13.9039 159.027 13.8713 159.121 13.8713H159.779C159.872 13.8713 159.947 13.9039 160.003 13.9693C160.068 14.0253 160.101 14.0999 160.101 14.1933V16.5313H161.837C161.93 16.5313 162.005 16.5639 162.061 16.6293C162.126 16.6853 162.159 16.7599 162.159 16.8533V17.3293C162.159 17.4226 162.126 17.5019 162.061 17.5673C162.005 17.6233 161.93 17.6513 161.837 17.6513H160.101V21.2493C160.101 21.6879 160.175 22.0333 160.325 22.2853C160.474 22.5373 160.74 22.6633 161.123 22.6633H161.977C162.07 22.6633 162.145 22.6959 162.201 22.7613C162.266 22.8173 162.299 22.8919 162.299 22.9853V23.4893C162.299 23.5826 162.266 23.6619 162.201 23.7273C162.145 23.7833 162.07 23.8113 161.977 23.8113H161.011ZM165.668 23.9513C165.201 23.9513 164.776 23.8579 164.394 23.6713C164.011 23.4846 163.703 23.2326 163.47 22.9153C163.236 22.5979 163.12 22.2386 163.12 21.8373C163.12 21.1933 163.381 20.6799 163.904 20.2973C164.426 19.9146 165.108 19.6626 165.948 19.5413L168.034 19.2473V18.8413C168.034 18.3933 167.903 18.0433 167.642 17.7913C167.39 17.5393 166.974 17.4133 166.396 17.4133C165.976 17.4133 165.635 17.4973 165.374 17.6653C165.122 17.8333 164.944 18.0479 164.842 18.3093C164.786 18.4493 164.688 18.5193 164.548 18.5193H163.918C163.815 18.5193 163.736 18.4913 163.68 18.4353C163.633 18.3699 163.61 18.2953 163.61 18.2113C163.61 18.0713 163.661 17.8986 163.764 17.6933C163.876 17.4879 164.044 17.2873 164.268 17.0913C164.492 16.8953 164.776 16.7319 165.122 16.6013C165.476 16.4613 165.906 16.3913 166.41 16.3913C166.97 16.3913 167.441 16.4659 167.824 16.6153C168.206 16.7553 168.505 16.9466 168.72 17.1893C168.944 17.4319 169.102 17.7073 169.196 18.0153C169.298 18.3233 169.35 18.6359 169.35 18.9533V23.4893C169.35 23.5826 169.317 23.6619 169.252 23.7273C169.196 23.7833 169.121 23.8113 169.028 23.8113H168.384C168.281 23.8113 168.202 23.7833 168.146 23.7273C168.09 23.6619 168.062 23.5826 168.062 23.4893V22.8873C167.94 23.0553 167.777 23.2233 167.572 23.3913C167.366 23.5499 167.11 23.6853 166.802 23.7973C166.494 23.8999 166.116 23.9513 165.668 23.9513ZM165.962 22.9013C166.344 22.9013 166.694 22.8219 167.012 22.6633C167.329 22.4953 167.576 22.2386 167.754 21.8933C167.94 21.5479 168.034 21.1139 168.034 20.5913V20.1993L166.41 20.4373C165.747 20.5306 165.248 20.6893 164.912 20.9133C164.576 21.1279 164.408 21.4033 164.408 21.7393C164.408 22.0006 164.482 22.2199 164.632 22.3973C164.79 22.5653 164.986 22.6913 165.22 22.7753C165.462 22.8593 165.71 22.9013 165.962 22.9013ZM173.882 23.9513C173.36 23.9513 172.912 23.8859 172.538 23.7553C172.165 23.6246 171.862 23.4659 171.628 23.2793C171.395 23.0926 171.218 22.9059 171.096 22.7193C170.984 22.5326 170.924 22.3833 170.914 22.2713C170.905 22.1686 170.938 22.0893 171.012 22.0333C171.087 21.9773 171.162 21.9493 171.236 21.9493H171.852C171.908 21.9493 171.95 21.9586 171.978 21.9773C172.016 21.9866 172.062 22.0239 172.118 22.0893C172.24 22.2199 172.375 22.3506 172.524 22.4813C172.674 22.6119 172.856 22.7193 173.07 22.8033C173.294 22.8873 173.57 22.9293 173.896 22.9293C174.372 22.9293 174.764 22.8406 175.072 22.6633C175.38 22.4766 175.534 22.2059 175.534 21.8513C175.534 21.6179 175.469 21.4313 175.338 21.2913C175.217 21.1513 174.993 21.0253 174.666 20.9133C174.349 20.8013 173.91 20.6846 173.35 20.5633C172.79 20.4326 172.347 20.2739 172.02 20.0873C171.694 19.8913 171.46 19.6626 171.32 19.4013C171.18 19.1306 171.11 18.8273 171.11 18.4913C171.11 18.1459 171.213 17.8146 171.418 17.4973C171.624 17.1706 171.922 16.9046 172.314 16.6993C172.716 16.4939 173.215 16.3913 173.812 16.3913C174.298 16.3913 174.713 16.4519 175.058 16.5733C175.404 16.6946 175.688 16.8486 175.912 17.0353C176.136 17.2126 176.304 17.3899 176.416 17.5673C176.528 17.7446 176.589 17.8939 176.598 18.0153C176.608 18.1086 176.58 18.1879 176.514 18.2533C176.449 18.3093 176.374 18.3373 176.29 18.3373H175.702C175.637 18.3373 175.581 18.3233 175.534 18.2953C175.497 18.2673 175.46 18.2346 175.422 18.1973C175.329 18.0759 175.217 17.9546 175.086 17.8333C174.965 17.7119 174.802 17.6139 174.596 17.5393C174.4 17.4553 174.139 17.4133 173.812 17.4133C173.346 17.4133 172.996 17.5113 172.762 17.7073C172.529 17.9033 172.412 18.1506 172.412 18.4493C172.412 18.6266 172.464 18.7853 172.566 18.9253C172.669 19.0653 172.865 19.1913 173.154 19.3033C173.444 19.4153 173.873 19.5366 174.442 19.6673C175.058 19.7886 175.544 19.9519 175.898 20.1573C176.253 20.3626 176.505 20.6006 176.654 20.8713C176.804 21.1419 176.878 21.4546 176.878 21.8093C176.878 22.2013 176.762 22.5606 176.528 22.8873C176.304 23.2139 175.968 23.4753 175.52 23.6713C175.082 23.8579 174.536 23.9513 173.882 23.9513Z" fill="#141F25"/>
<defs>
<linearGradient id="paint0_linear_1_415" x1="-1.07732" y1="8.5446" x2="46.727" y2="11.9394" gradientUnits="userSpaceOnUse">
<stop stop-color="#FFB629"/>
<stop offset="0.507189" stop-color="#FFDA56"/>
<stop offset="1" stop-color="#FFD7A6"/>
</linearGradient>
</defs>
</svg>
