<svg width="189" height="38" viewBox="0 0 189 38" fill="none" xmlns="http://www.w3.org/2000/svg">
<circle cx="19" cy="19" r="19" fill="url(#paint0_linear_1_408)"/>
<path d="M19.3015 25.3333C22.9659 25.3333 25.9365 22.3628 25.9365 18.6984C25.9365 15.034 22.9659 12.0635 19.3015 12.0635C15.6372 12.0635 12.6666 15.034 12.6666 18.6984C12.6666 22.3628 15.6372 25.3333 19.3015 25.3333Z" stroke="#141F25" stroke-width="2" stroke-linecap="round" stroke-linejoin="round"/>
<path d="M19.3016 15.0794V18.6984H23.5239" stroke="#141F25" stroke-width="2" stroke-linecap="round" stroke-linejoin="round"/>
<path d="M54.746 23.64C53.8873 23.64 53.1733 23.4813 52.604 23.164C52.044 22.8467 51.6193 22.4033 51.33 21.834C51.0407 21.2647 50.882 20.602 50.854 19.846C50.8447 19.4633 50.84 19.0527 50.84 18.614C50.84 18.1753 50.8447 17.7553 50.854 17.354C50.882 16.598 51.0407 15.9353 51.33 15.366C51.6193 14.7967 52.044 14.3533 52.604 14.036C53.1733 13.7187 53.8873 13.56 54.746 13.56C55.39 13.56 55.9547 13.6487 56.44 13.826C56.9253 14.0033 57.3267 14.2413 57.644 14.54C57.9707 14.8387 58.218 15.1747 58.386 15.548C58.554 15.912 58.6473 16.29 58.666 16.682C58.6753 16.766 58.6473 16.836 58.582 16.892C58.526 16.948 58.456 16.976 58.372 16.976H57.602C57.518 16.976 57.4433 16.9527 57.378 16.906C57.322 16.8593 57.28 16.7753 57.252 16.654C57.0933 15.926 56.7947 15.4267 56.356 15.156C55.9267 14.8853 55.3853 14.75 54.732 14.75C53.9853 14.75 53.3927 14.9647 52.954 15.394C52.5153 15.814 52.2773 16.4907 52.24 17.424C52.212 18.1893 52.212 18.9733 52.24 19.776C52.2773 20.7093 52.5153 21.3907 52.954 21.82C53.3927 22.24 53.9853 22.45 54.732 22.45C55.3853 22.45 55.9267 22.3147 56.356 22.044C56.7947 21.7733 57.0933 21.274 57.252 20.546C57.28 20.4247 57.322 20.3407 57.378 20.294C57.4433 20.2473 57.518 20.224 57.602 20.224H58.372C58.456 20.224 58.526 20.252 58.582 20.308C58.6473 20.364 58.6753 20.434 58.666 20.518C58.6473 20.91 58.554 21.2927 58.386 21.666C58.218 22.03 57.9707 22.3613 57.644 22.66C57.3267 22.9587 56.9253 23.1967 56.44 23.374C55.9547 23.5513 55.39 23.64 54.746 23.64ZM63.2582 23.64C62.2969 23.64 61.5316 23.346 60.9622 22.758C60.3929 22.1607 60.0802 21.3487 60.0242 20.322C60.0149 20.2007 60.0102 20.0467 60.0102 19.86C60.0102 19.664 60.0149 19.5053 60.0242 19.384C60.0616 18.7213 60.2156 18.1427 60.4862 17.648C60.7569 17.144 61.1256 16.7567 61.5922 16.486C62.0682 16.2153 62.6236 16.08 63.2582 16.08C63.9676 16.08 64.5602 16.2293 65.0362 16.528C65.5216 16.8267 65.8902 17.2513 66.1422 17.802C66.3942 18.3527 66.5202 18.9967 66.5202 19.734V19.972C66.5202 20.0747 66.4876 20.154 66.4222 20.21C66.3662 20.266 66.2916 20.294 66.1982 20.294H61.3542C61.3542 20.3033 61.3542 20.322 61.3542 20.35C61.3542 20.378 61.3542 20.4013 61.3542 20.42C61.3729 20.8027 61.4569 21.162 61.6062 21.498C61.7556 21.8247 61.9702 22.0907 62.2502 22.296C62.5302 22.5013 62.8662 22.604 63.2582 22.604C63.5942 22.604 63.8742 22.5527 64.0982 22.45C64.3222 22.3473 64.5042 22.2353 64.6442 22.114C64.7842 21.9833 64.8776 21.8853 64.9242 21.82C65.0082 21.6987 65.0736 21.6287 65.1202 21.61C65.1669 21.582 65.2416 21.568 65.3442 21.568H66.0162C66.1096 21.568 66.1842 21.596 66.2402 21.652C66.3056 21.6987 66.3336 21.7687 66.3242 21.862C66.3149 22.002 66.2402 22.1747 66.1002 22.38C65.9602 22.576 65.7596 22.772 65.4982 22.968C65.2369 23.164 64.9196 23.3273 64.5462 23.458C64.1729 23.5793 63.7436 23.64 63.2582 23.64ZM61.3542 19.328H65.1902V19.286C65.1902 18.866 65.1109 18.4927 64.9522 18.166C64.8029 17.8393 64.5836 17.5827 64.2942 17.396C64.0049 17.2 63.6596 17.102 63.2582 17.102C62.8569 17.102 62.5116 17.2 62.2222 17.396C61.9422 17.5827 61.7276 17.8393 61.5782 18.166C61.4289 18.4927 61.3542 18.866 61.3542 19.286V19.328ZM68.5302 26.16C68.4369 26.16 68.3575 26.1273 68.2922 26.062C68.2362 26.006 68.2082 25.9313 68.2082 25.838V16.542C68.2082 16.4487 68.2362 16.374 68.2922 16.318C68.3575 16.2527 68.4369 16.22 68.5302 16.22H69.1742C69.2675 16.22 69.3422 16.2527 69.3982 16.318C69.4635 16.374 69.4962 16.4487 69.4962 16.542V17.158C69.7202 16.85 70.0189 16.5933 70.3922 16.388C70.7655 16.1827 71.2322 16.08 71.7922 16.08C72.3149 16.08 72.7582 16.1687 73.1222 16.346C73.4955 16.5233 73.7989 16.766 74.0322 17.074C74.2749 17.382 74.4569 17.732 74.5782 18.124C74.6995 18.516 74.7649 18.936 74.7742 19.384C74.7835 19.5333 74.7882 19.692 74.7882 19.86C74.7882 20.028 74.7835 20.1867 74.7742 20.336C74.7649 20.7747 74.6995 21.1947 74.5782 21.596C74.4569 21.988 74.2749 22.338 74.0322 22.646C73.7989 22.9447 73.4955 23.1873 73.1222 23.374C72.7582 23.5513 72.3149 23.64 71.7922 23.64C71.2509 23.64 70.7935 23.542 70.4202 23.346C70.0562 23.1407 69.7575 22.8887 69.5242 22.59V25.838C69.5242 25.9313 69.4962 26.006 69.4402 26.062C69.3842 26.1273 69.3049 26.16 69.2022 26.16H68.5302ZM71.4982 22.506C71.9835 22.506 72.3615 22.4033 72.6322 22.198C72.9122 21.9833 73.1129 21.708 73.2342 21.372C73.3555 21.0267 73.4255 20.658 73.4442 20.266C73.4535 19.9953 73.4535 19.7247 73.4442 19.454C73.4255 19.062 73.3555 18.698 73.2342 18.362C73.1129 18.0167 72.9122 17.7413 72.6322 17.536C72.3615 17.3213 71.9835 17.214 71.4982 17.214C71.0409 17.214 70.6675 17.3213 70.3782 17.536C70.0982 17.7507 69.8882 18.026 69.7482 18.362C69.6175 18.6887 69.5429 19.0247 69.5242 19.37C69.5149 19.5193 69.5102 19.6967 69.5102 19.902C69.5102 20.1073 69.5149 20.2893 69.5242 20.448C69.5335 20.7747 69.6082 21.0967 69.7482 21.414C69.8975 21.7313 70.1169 21.9927 70.4062 22.198C70.6955 22.4033 71.0595 22.506 71.4982 22.506ZM78.564 23.64C78.0974 23.64 77.6727 23.5467 77.29 23.36C76.9074 23.1733 76.5994 22.9213 76.366 22.604C76.1327 22.2867 76.016 21.9273 76.016 21.526C76.016 20.882 76.2774 20.3687 76.8 19.986C77.3227 19.6033 78.004 19.3513 78.844 19.23L80.93 18.936V18.53C80.93 18.082 80.7994 17.732 80.538 17.48C80.286 17.228 79.8707 17.102 79.292 17.102C78.872 17.102 78.5314 17.186 78.27 17.354C78.018 17.522 77.8407 17.7367 77.738 17.998C77.682 18.138 77.584 18.208 77.444 18.208H76.814C76.7114 18.208 76.632 18.18 76.576 18.124C76.5294 18.0587 76.506 17.984 76.506 17.9C76.506 17.76 76.5574 17.5873 76.66 17.382C76.772 17.1767 76.94 16.976 77.164 16.78C77.388 16.584 77.6727 16.4207 78.018 16.29C78.3727 16.15 78.802 16.08 79.306 16.08C79.866 16.08 80.3374 16.1547 80.72 16.304C81.1027 16.444 81.4014 16.6353 81.616 16.878C81.84 17.1207 81.9987 17.396 82.092 17.704C82.1947 18.012 82.246 18.3247 82.246 18.642V23.178C82.246 23.2713 82.2134 23.3507 82.148 23.416C82.092 23.472 82.0174 23.5 81.924 23.5H81.28C81.1774 23.5 81.098 23.472 81.042 23.416C80.986 23.3507 80.958 23.2713 80.958 23.178V22.576C80.8367 22.744 80.6734 22.912 80.468 23.08C80.2627 23.2387 80.006 23.374 79.698 23.486C79.39 23.5887 79.012 23.64 78.564 23.64ZM78.858 22.59C79.2407 22.59 79.5907 22.5107 79.908 22.352C80.2254 22.184 80.4727 21.9273 80.65 21.582C80.8367 21.2367 80.93 20.8027 80.93 20.28V19.888L79.306 20.126C78.6434 20.2193 78.144 20.378 77.808 20.602C77.472 20.8167 77.304 21.092 77.304 21.428C77.304 21.6893 77.3787 21.9087 77.528 22.086C77.6867 22.254 77.8827 22.38 78.116 22.464C78.3587 22.548 78.606 22.59 78.858 22.59ZM87.0323 23.5C86.5096 23.5 86.085 23.402 85.7583 23.206C85.4316 23.0007 85.1936 22.716 85.0443 22.352C84.895 21.9787 84.8203 21.54 84.8203 21.036V17.34H83.7283C83.635 17.34 83.5556 17.312 83.4903 17.256C83.4343 17.1907 83.4063 17.1113 83.4063 17.018V16.542C83.4063 16.4487 83.4343 16.374 83.4903 16.318C83.5556 16.2527 83.635 16.22 83.7283 16.22H84.8203V13.882C84.8203 13.7887 84.8483 13.714 84.9043 13.658C84.9696 13.5927 85.049 13.56 85.1423 13.56H85.8003C85.8936 13.56 85.9683 13.5927 86.0243 13.658C86.0896 13.714 86.1223 13.7887 86.1223 13.882V16.22H87.8583C87.9516 16.22 88.0263 16.2527 88.0823 16.318C88.1476 16.374 88.1803 16.4487 88.1803 16.542V17.018C88.1803 17.1113 88.1476 17.1907 88.0823 17.256C88.0263 17.312 87.9516 17.34 87.8583 17.34H86.1223V20.938C86.1223 21.3767 86.197 21.722 86.3463 21.974C86.4956 22.226 86.7616 22.352 87.1443 22.352H87.9983C88.0916 22.352 88.1663 22.3847 88.2223 22.45C88.2876 22.506 88.3203 22.5807 88.3203 22.674V23.178C88.3203 23.2713 88.2876 23.3507 88.2223 23.416C88.1663 23.472 88.0916 23.5 87.9983 23.5H87.0323ZM96.0727 23.64C95.4287 23.64 94.864 23.5233 94.3787 23.29C93.8934 23.0567 93.5154 22.7347 93.2447 22.324C92.974 21.904 92.8387 21.4233 92.8387 20.882C92.8387 20.4527 92.9274 20.0793 93.1047 19.762C93.2914 19.4353 93.534 19.146 93.8327 18.894C94.1314 18.642 94.458 18.4133 94.8127 18.208C94.374 17.7413 94.0614 17.3307 93.8747 16.976C93.6974 16.6213 93.6087 16.2527 93.6087 15.87C93.6087 15.45 93.716 15.0673 93.9307 14.722C94.1454 14.3767 94.4487 14.0967 94.8407 13.882C95.2327 13.6673 95.6947 13.56 96.2267 13.56C96.74 13.56 97.188 13.6627 97.5707 13.868C97.9627 14.0733 98.266 14.3487 98.4807 14.694C98.6954 15.0393 98.8027 15.4267 98.8027 15.856C98.8027 16.2667 98.7047 16.626 98.5087 16.934C98.3127 17.242 98.0514 17.5173 97.7247 17.76C97.4074 18.0027 97.0574 18.2313 96.6747 18.446L99.0547 20.784C99.204 20.5227 99.344 20.2193 99.4747 19.874C99.6147 19.5287 99.722 19.1227 99.7967 18.656C99.8247 18.4693 99.9274 18.376 100.105 18.376H100.721C100.805 18.376 100.875 18.404 100.931 18.46C100.987 18.516 101.015 18.586 101.015 18.67C101.005 18.8753 100.973 19.0947 100.917 19.328C100.87 19.5613 100.795 19.8087 100.693 20.07C100.599 20.3313 100.483 20.5927 100.343 20.854C100.212 21.106 100.058 21.358 99.8807 21.61L101.309 23.024C101.393 23.0987 101.435 23.1687 101.435 23.234C101.435 23.318 101.411 23.3833 101.365 23.43C101.318 23.4767 101.248 23.5 101.155 23.5H100.371C100.277 23.5 100.198 23.486 100.133 23.458C100.077 23.43 100.03 23.3973 99.9927 23.36L99.0687 22.45C98.7047 22.8047 98.2754 23.094 97.7807 23.318C97.286 23.5327 96.7167 23.64 96.0727 23.64ZM96.0727 22.52C96.446 22.52 96.8194 22.4453 97.1927 22.296C97.566 22.1373 97.9114 21.904 98.2287 21.596L95.6107 19.034C95.2094 19.258 94.8594 19.5147 94.5607 19.804C94.2714 20.084 94.1267 20.434 94.1267 20.854C94.1267 21.2087 94.2154 21.512 94.3927 21.764C94.5794 22.0067 94.822 22.1933 95.1207 22.324C95.4194 22.4547 95.7367 22.52 96.0727 22.52ZM95.9047 17.634C96.2034 17.466 96.4787 17.298 96.7307 17.13C96.992 16.962 97.1974 16.7753 97.3467 16.57C97.5054 16.3647 97.5847 16.1313 97.5847 15.87C97.5847 15.4967 97.454 15.198 97.1927 14.974C96.9314 14.75 96.6094 14.638 96.2267 14.638C95.8627 14.638 95.5407 14.75 95.2607 14.974C94.99 15.1887 94.8547 15.492 94.8547 15.884C94.8547 16.0427 94.8827 16.206 94.9387 16.374C95.004 16.5327 95.1114 16.71 95.2607 16.906C95.41 17.102 95.6247 17.3447 95.9047 17.634ZM108.534 23.5C108.44 23.5 108.361 23.472 108.296 23.416C108.24 23.3507 108.212 23.2713 108.212 23.178V14.946H105.524C105.43 14.946 105.351 14.918 105.286 14.862C105.23 14.7967 105.202 14.7173 105.202 14.624V14.036C105.202 13.9333 105.23 13.854 105.286 13.798C105.351 13.7327 105.43 13.7 105.524 13.7H112.272C112.374 13.7 112.454 13.7327 112.51 13.798C112.575 13.854 112.608 13.9333 112.608 14.036V14.624C112.608 14.7173 112.575 14.7967 112.51 14.862C112.454 14.918 112.374 14.946 112.272 14.946H109.598V23.178C109.598 23.2713 109.565 23.3507 109.5 23.416C109.444 23.472 109.364 23.5 109.262 23.5H108.534ZM115.553 23.64C114.592 23.64 113.826 23.346 113.257 22.758C112.688 22.1607 112.375 21.3487 112.319 20.322C112.31 20.2007 112.305 20.0467 112.305 19.86C112.305 19.664 112.31 19.5053 112.319 19.384C112.356 18.7213 112.51 18.1427 112.781 17.648C113.052 17.144 113.42 16.7567 113.887 16.486C114.363 16.2153 114.918 16.08 115.553 16.08C116.262 16.08 116.855 16.2293 117.331 16.528C117.816 16.8267 118.185 17.2513 118.437 17.802C118.689 18.3527 118.815 18.9967 118.815 19.734V19.972C118.815 20.0747 118.782 20.154 118.717 20.21C118.661 20.266 118.586 20.294 118.493 20.294H113.649C113.649 20.3033 113.649 20.322 113.649 20.35C113.649 20.378 113.649 20.4013 113.649 20.42C113.668 20.8027 113.752 21.162 113.901 21.498C114.05 21.8247 114.265 22.0907 114.545 22.296C114.825 22.5013 115.161 22.604 115.553 22.604C115.889 22.604 116.169 22.5527 116.393 22.45C116.617 22.3473 116.799 22.2353 116.939 22.114C117.079 21.9833 117.172 21.8853 117.219 21.82C117.303 21.6987 117.368 21.6287 117.415 21.61C117.462 21.582 117.536 21.568 117.639 21.568H118.311C118.404 21.568 118.479 21.596 118.535 21.652C118.6 21.6987 118.628 21.7687 118.619 21.862C118.61 22.002 118.535 22.1747 118.395 22.38C118.255 22.576 118.054 22.772 117.793 22.968C117.532 23.164 117.214 23.3273 116.841 23.458C116.468 23.5793 116.038 23.64 115.553 23.64ZM113.649 19.328H117.485V19.286C117.485 18.866 117.406 18.4927 117.247 18.166C117.098 17.8393 116.878 17.5827 116.589 17.396C116.3 17.2 115.954 17.102 115.553 17.102C115.152 17.102 114.806 17.2 114.517 17.396C114.237 17.5827 114.022 17.8393 113.873 18.166C113.724 18.4927 113.649 18.866 113.649 19.286V19.328ZM120.811 23.5C120.718 23.5 120.638 23.472 120.573 23.416C120.517 23.3507 120.489 23.2713 120.489 23.178V16.556C120.489 16.4627 120.517 16.3833 120.573 16.318C120.638 16.2527 120.718 16.22 120.811 16.22H121.455C121.548 16.22 121.628 16.2527 121.693 16.318C121.758 16.3833 121.791 16.4627 121.791 16.556V17.172C121.978 16.8547 122.234 16.6167 122.561 16.458C122.888 16.2993 123.28 16.22 123.737 16.22H124.297C124.39 16.22 124.465 16.2527 124.521 16.318C124.577 16.374 124.605 16.4487 124.605 16.542V17.116C124.605 17.2093 124.577 17.284 124.521 17.34C124.465 17.396 124.39 17.424 124.297 17.424H123.457C122.953 17.424 122.556 17.5733 122.267 17.872C121.978 18.1613 121.833 18.558 121.833 19.062V23.178C121.833 23.2713 121.8 23.3507 121.735 23.416C121.67 23.472 121.59 23.5 121.497 23.5H120.811ZM126.143 26.16C126.05 26.16 125.971 26.1273 125.905 26.062C125.849 26.006 125.821 25.9313 125.821 25.838V16.542C125.821 16.4487 125.849 16.374 125.905 16.318C125.971 16.2527 126.05 16.22 126.143 16.22H126.787C126.881 16.22 126.955 16.2527 127.011 16.318C127.077 16.374 127.109 16.4487 127.109 16.542V17.158C127.333 16.85 127.632 16.5933 128.005 16.388C128.379 16.1827 128.845 16.08 129.405 16.08C129.928 16.08 130.371 16.1687 130.735 16.346C131.109 16.5233 131.412 16.766 131.645 17.074C131.888 17.382 132.07 17.732 132.191 18.124C132.313 18.516 132.378 18.936 132.387 19.384C132.397 19.5333 132.401 19.692 132.401 19.86C132.401 20.028 132.397 20.1867 132.387 20.336C132.378 20.7747 132.313 21.1947 132.191 21.596C132.07 21.988 131.888 22.338 131.645 22.646C131.412 22.9447 131.109 23.1873 130.735 23.374C130.371 23.5513 129.928 23.64 129.405 23.64C128.864 23.64 128.407 23.542 128.033 23.346C127.669 23.1407 127.371 22.8887 127.137 22.59V25.838C127.137 25.9313 127.109 26.006 127.053 26.062C126.997 26.1273 126.918 26.16 126.815 26.16H126.143ZM129.111 22.506C129.597 22.506 129.975 22.4033 130.245 22.198C130.525 21.9833 130.726 21.708 130.847 21.372C130.969 21.0267 131.039 20.658 131.057 20.266C131.067 19.9953 131.067 19.7247 131.057 19.454C131.039 19.062 130.969 18.698 130.847 18.362C130.726 18.0167 130.525 17.7413 130.245 17.536C129.975 17.3213 129.597 17.214 129.111 17.214C128.654 17.214 128.281 17.3213 127.991 17.536C127.711 17.7507 127.501 18.026 127.361 18.362C127.231 18.6887 127.156 19.0247 127.137 19.37C127.128 19.5193 127.123 19.6967 127.123 19.902C127.123 20.1073 127.128 20.2893 127.137 20.448C127.147 20.7747 127.221 21.0967 127.361 21.414C127.511 21.7313 127.73 21.9927 128.019 22.198C128.309 22.4033 128.673 22.506 129.111 22.506ZM137.045 23.64C136.084 23.64 135.319 23.346 134.749 22.758C134.18 22.1607 133.867 21.3487 133.811 20.322C133.802 20.2007 133.797 20.0467 133.797 19.86C133.797 19.664 133.802 19.5053 133.811 19.384C133.849 18.7213 134.003 18.1427 134.273 17.648C134.544 17.144 134.913 16.7567 135.379 16.486C135.855 16.2153 136.411 16.08 137.045 16.08C137.755 16.08 138.347 16.2293 138.823 16.528C139.309 16.8267 139.677 17.2513 139.929 17.802C140.181 18.3527 140.307 18.9967 140.307 19.734V19.972C140.307 20.0747 140.275 20.154 140.209 20.21C140.153 20.266 140.079 20.294 139.985 20.294H135.141C135.141 20.3033 135.141 20.322 135.141 20.35C135.141 20.378 135.141 20.4013 135.141 20.42C135.16 20.8027 135.244 21.162 135.393 21.498C135.543 21.8247 135.757 22.0907 136.037 22.296C136.317 22.5013 136.653 22.604 137.045 22.604C137.381 22.604 137.661 22.5527 137.885 22.45C138.109 22.3473 138.291 22.2353 138.431 22.114C138.571 21.9833 138.665 21.8853 138.711 21.82C138.795 21.6987 138.861 21.6287 138.907 21.61C138.954 21.582 139.029 21.568 139.131 21.568H139.803C139.897 21.568 139.971 21.596 140.027 21.652C140.093 21.6987 140.121 21.7687 140.111 21.862C140.102 22.002 140.027 22.1747 139.887 22.38C139.747 22.576 139.547 22.772 139.285 22.968C139.024 23.164 138.707 23.3273 138.333 23.458C137.96 23.5793 137.531 23.64 137.045 23.64ZM135.141 19.328H138.977V19.286C138.977 18.866 138.898 18.4927 138.739 18.166C138.59 17.8393 138.371 17.5827 138.081 17.396C137.792 17.2 137.447 17.102 137.045 17.102C136.644 17.102 136.299 17.2 136.009 17.396C135.729 17.5827 135.515 17.8393 135.365 18.166C135.216 18.4927 135.141 18.866 135.141 19.286V19.328ZM142.303 23.5C142.21 23.5 142.131 23.472 142.065 23.416C142.009 23.3507 141.981 23.2713 141.981 23.178V16.556C141.981 16.4627 142.009 16.3833 142.065 16.318C142.131 16.2527 142.21 16.22 142.303 16.22H142.947C143.041 16.22 143.12 16.2527 143.185 16.318C143.251 16.3833 143.283 16.4627 143.283 16.556V17.172C143.47 16.8547 143.727 16.6167 144.053 16.458C144.38 16.2993 144.772 16.22 145.229 16.22H145.789C145.883 16.22 145.957 16.2527 146.013 16.318C146.069 16.374 146.097 16.4487 146.097 16.542V17.116C146.097 17.2093 146.069 17.284 146.013 17.34C145.957 17.396 145.883 17.424 145.789 17.424H144.949C144.445 17.424 144.049 17.5733 143.759 17.872C143.47 18.1613 143.325 18.558 143.325 19.062V23.178C143.325 23.2713 143.293 23.3507 143.227 23.416C143.162 23.472 143.083 23.5 142.989 23.5H142.303ZM150.103 23.64C149.44 23.64 148.866 23.514 148.381 23.262C147.905 23.0007 147.536 22.632 147.275 22.156C147.014 21.6707 146.874 21.092 146.855 20.42C146.846 20.28 146.841 20.0933 146.841 19.86C146.841 19.6267 146.846 19.44 146.855 19.3C146.874 18.628 147.014 18.054 147.275 17.578C147.536 17.0927 147.905 16.724 148.381 16.472C148.866 16.2107 149.44 16.08 150.103 16.08C150.644 16.08 151.106 16.1547 151.489 16.304C151.881 16.4533 152.203 16.6447 152.455 16.878C152.707 17.1113 152.894 17.3633 153.015 17.634C153.146 17.9047 153.216 18.1613 153.225 18.404C153.234 18.4973 153.206 18.572 153.141 18.628C153.076 18.684 152.996 18.712 152.903 18.712H152.231C152.138 18.712 152.068 18.6933 152.021 18.656C151.974 18.6093 151.928 18.5347 151.881 18.432C151.713 17.9747 151.484 17.6527 151.195 17.466C150.906 17.2793 150.546 17.186 150.117 17.186C149.557 17.186 149.1 17.3587 148.745 17.704C148.4 18.0493 148.213 18.6047 148.185 19.37C148.176 19.706 148.176 20.0327 148.185 20.35C148.213 21.1247 148.4 21.6847 148.745 22.03C149.1 22.366 149.557 22.534 150.117 22.534C150.546 22.534 150.906 22.4407 151.195 22.254C151.484 22.0673 151.713 21.7453 151.881 21.288C151.928 21.1853 151.974 21.1153 152.021 21.078C152.068 21.0313 152.138 21.008 152.231 21.008H152.903C152.996 21.008 153.076 21.036 153.141 21.092C153.206 21.148 153.234 21.2227 153.225 21.316C153.216 21.512 153.174 21.7127 153.099 21.918C153.024 22.1233 152.903 22.3333 152.735 22.548C152.576 22.7533 152.376 22.94 152.133 23.108C151.89 23.2667 151.596 23.3973 151.251 23.5C150.915 23.5933 150.532 23.64 150.103 23.64ZM156.918 23.64C156.451 23.64 156.026 23.5467 155.644 23.36C155.261 23.1733 154.953 22.9213 154.72 22.604C154.486 22.2867 154.37 21.9273 154.37 21.526C154.37 20.882 154.631 20.3687 155.154 19.986C155.676 19.6033 156.358 19.3513 157.198 19.23L159.284 18.936V18.53C159.284 18.082 159.153 17.732 158.892 17.48C158.64 17.228 158.224 17.102 157.646 17.102C157.226 17.102 156.885 17.186 156.624 17.354C156.372 17.522 156.194 17.7367 156.092 17.998C156.036 18.138 155.938 18.208 155.798 18.208H155.168C155.065 18.208 154.986 18.18 154.93 18.124C154.883 18.0587 154.86 17.984 154.86 17.9C154.86 17.76 154.911 17.5873 155.014 17.382C155.126 17.1767 155.294 16.976 155.518 16.78C155.742 16.584 156.026 16.4207 156.372 16.29C156.726 16.15 157.156 16.08 157.66 16.08C158.22 16.08 158.691 16.1547 159.074 16.304C159.456 16.444 159.755 16.6353 159.97 16.878C160.194 17.1207 160.352 17.396 160.446 17.704C160.548 18.012 160.6 18.3247 160.6 18.642V23.178C160.6 23.2713 160.567 23.3507 160.502 23.416C160.446 23.472 160.371 23.5 160.278 23.5H159.634C159.531 23.5 159.452 23.472 159.396 23.416C159.34 23.3507 159.312 23.2713 159.312 23.178V22.576C159.19 22.744 159.027 22.912 158.822 23.08C158.616 23.2387 158.36 23.374 158.052 23.486C157.744 23.5887 157.366 23.64 156.918 23.64ZM157.212 22.59C157.594 22.59 157.944 22.5107 158.262 22.352C158.579 22.184 158.826 21.9273 159.004 21.582C159.19 21.2367 159.284 20.8027 159.284 20.28V19.888L157.66 20.126C156.997 20.2193 156.498 20.378 156.162 20.602C155.826 20.8167 155.658 21.092 155.658 21.428C155.658 21.6893 155.732 21.9087 155.882 22.086C156.04 22.254 156.236 22.38 156.47 22.464C156.712 22.548 156.96 22.59 157.212 22.59ZM163.736 26.16C163.661 26.16 163.596 26.132 163.54 26.076C163.484 26.02 163.456 25.9547 163.456 25.88C163.456 25.8427 163.46 25.8053 163.47 25.768C163.479 25.7307 163.498 25.684 163.526 25.628L164.604 23.066L161.93 16.752C161.883 16.64 161.86 16.5607 161.86 16.514C161.86 16.43 161.888 16.36 161.944 16.304C162 16.248 162.07 16.22 162.154 16.22H162.84C162.933 16.22 163.008 16.2433 163.064 16.29C163.12 16.3367 163.157 16.3927 163.176 16.458L165.304 21.554L167.488 16.458C167.516 16.3927 167.553 16.3367 167.6 16.29C167.656 16.2433 167.735 16.22 167.838 16.22H168.496C168.58 16.22 168.65 16.248 168.706 16.304C168.762 16.36 168.79 16.4253 168.79 16.5C168.79 16.5467 168.766 16.6307 168.72 16.752L164.744 25.922C164.716 25.9873 164.674 26.0433 164.618 26.09C164.571 26.1367 164.496 26.16 164.394 26.16H163.736ZM171.943 23.64C171.476 23.64 171.052 23.5467 170.669 23.36C170.286 23.1733 169.978 22.9213 169.745 22.604C169.512 22.2867 169.395 21.9273 169.395 21.526C169.395 20.882 169.656 20.3687 170.179 19.986C170.702 19.6033 171.383 19.3513 172.223 19.23L174.309 18.936V18.53C174.309 18.082 174.178 17.732 173.917 17.48C173.665 17.228 173.25 17.102 172.671 17.102C172.251 17.102 171.91 17.186 171.649 17.354C171.397 17.522 171.22 17.7367 171.117 17.998C171.061 18.138 170.963 18.208 170.823 18.208H170.193C170.09 18.208 170.011 18.18 169.955 18.124C169.908 18.0587 169.885 17.984 169.885 17.9C169.885 17.76 169.936 17.5873 170.039 17.382C170.151 17.1767 170.319 16.976 170.543 16.78C170.767 16.584 171.052 16.4207 171.397 16.29C171.752 16.15 172.181 16.08 172.685 16.08C173.245 16.08 173.716 16.1547 174.099 16.304C174.482 16.444 174.78 16.6353 174.995 16.878C175.219 17.1207 175.378 17.396 175.471 17.704C175.574 18.012 175.625 18.3247 175.625 18.642V23.178C175.625 23.2713 175.592 23.3507 175.527 23.416C175.471 23.472 175.396 23.5 175.303 23.5H174.659C174.556 23.5 174.477 23.472 174.421 23.416C174.365 23.3507 174.337 23.2713 174.337 23.178V22.576C174.216 22.744 174.052 22.912 173.847 23.08C173.642 23.2387 173.385 23.374 173.077 23.486C172.769 23.5887 172.391 23.64 171.943 23.64ZM172.237 22.59C172.62 22.59 172.97 22.5107 173.287 22.352C173.604 22.184 173.852 21.9273 174.029 21.582C174.216 21.2367 174.309 20.8027 174.309 20.28V19.888L172.685 20.126C172.022 20.2193 171.523 20.378 171.187 20.602C170.851 20.8167 170.683 21.092 170.683 21.428C170.683 21.6893 170.758 21.9087 170.907 22.086C171.066 22.254 171.262 22.38 171.495 22.464C171.738 22.548 171.985 22.59 172.237 22.59Z" fill="#141F25"/>
<defs>
<linearGradient id="paint0_linear_1_408" x1="-1.07732" y1="8.23332" x2="46.727" y2="11.6281" gradientUnits="userSpaceOnUse">
<stop stop-color="#FFB629"/>
<stop offset="0.507189" stop-color="#FFDA56"/>
<stop offset="1" stop-color="#FFD7A6"/>
</linearGradient>
</defs>
</svg>
