<svg width="229" height="39" viewBox="0 0 229 39" fill="none" xmlns="http://www.w3.org/2000/svg">
<circle cx="19" cy="19.3113" r="19" fill="url(#paint0_linear_1_389)"/>
<path d="M16.7381 19.4997L18.2084 20.9699L20.6588 17.5394M18.6985 12.9419C17.2932 14.2727 15.3957 15.089 13.3076 15.089C13.2744 15.089 13.2413 15.0888 13.2082 15.0883C12.9547 15.8595 12.8175 16.6834 12.8175 17.5394C12.8175 21.1931 15.3165 24.2632 18.6985 25.1336C22.0805 24.2632 24.5794 21.1931 24.5794 17.5394C24.5794 16.6834 24.4423 15.8595 24.1887 15.0883C24.1556 15.0888 24.1225 15.089 24.0893 15.089C22.0012 15.089 20.1037 14.2727 18.6985 12.9419Z" stroke="#0F172A" stroke-width="1.5" stroke-linecap="round" stroke-linejoin="round"/>
<path d="M50.56 23.8113C50.4853 23.8113 50.42 23.7833 50.364 23.7273C50.308 23.6713 50.28 23.6059 50.28 23.5313C50.28 23.4846 50.2847 23.4333 50.294 23.3773L53.766 14.3193C53.8033 14.2259 53.8547 14.1513 53.92 14.0953C53.9853 14.0393 54.0833 14.0113 54.214 14.0113H55.166C55.2873 14.0113 55.3807 14.0393 55.446 14.0953C55.5207 14.1513 55.5767 14.2259 55.614 14.3193L59.072 23.3773C59.0907 23.4333 59.1 23.4846 59.1 23.5313C59.1 23.6059 59.072 23.6713 59.016 23.7273C58.96 23.7833 58.8947 23.8113 58.82 23.8113H58.106C57.994 23.8113 57.91 23.7833 57.854 23.7273C57.8073 23.6713 57.7747 23.6199 57.756 23.5733L56.986 21.5853H52.394L51.624 23.5733C51.6147 23.6199 51.582 23.6713 51.526 23.7273C51.47 23.7833 51.386 23.8113 51.274 23.8113H50.56ZM52.8 20.3813H56.58L54.69 15.4113L52.8 20.3813ZM62.9349 23.9513C62.4122 23.9513 61.9642 23.8859 61.5909 23.7553C61.2176 23.6246 60.9142 23.4659 60.6809 23.2793C60.4476 23.0926 60.2702 22.9059 60.1489 22.7193C60.0369 22.5326 59.9762 22.3833 59.9669 22.2713C59.9576 22.1686 59.9902 22.0893 60.0649 22.0333C60.1396 21.9773 60.2142 21.9493 60.2889 21.9493H60.9049C60.9609 21.9493 61.0029 21.9586 61.0309 21.9773C61.0682 21.9866 61.1149 22.0239 61.1709 22.0893C61.2922 22.2199 61.4276 22.3506 61.5769 22.4813C61.7262 22.6119 61.9082 22.7193 62.1229 22.8033C62.3469 22.8873 62.6222 22.9293 62.9489 22.9293C63.4249 22.9293 63.8169 22.8406 64.1249 22.6633C64.4329 22.4766 64.5869 22.2059 64.5869 21.8513C64.5869 21.6179 64.5216 21.4313 64.3909 21.2913C64.2696 21.1513 64.0456 21.0253 63.7189 20.9133C63.4016 20.8013 62.9629 20.6846 62.4029 20.5633C61.8429 20.4326 61.3996 20.2739 61.0729 20.0873C60.7462 19.8913 60.5129 19.6626 60.3729 19.4013C60.2329 19.1306 60.1629 18.8273 60.1629 18.4913C60.1629 18.1459 60.2656 17.8146 60.4709 17.4973C60.6762 17.1706 60.9749 16.9046 61.3669 16.6993C61.7682 16.4939 62.2676 16.3913 62.8649 16.3913C63.3502 16.3913 63.7656 16.4519 64.1109 16.5733C64.4562 16.6946 64.7409 16.8486 64.9649 17.0353C65.1889 17.2126 65.3569 17.3899 65.4689 17.5673C65.5809 17.7446 65.6416 17.8939 65.6509 18.0153C65.6602 18.1086 65.6322 18.1879 65.5669 18.2533C65.5016 18.3093 65.4269 18.3373 65.3429 18.3373H64.7549C64.6896 18.3373 64.6336 18.3233 64.5869 18.2953C64.5496 18.2673 64.5122 18.2346 64.4749 18.1973C64.3816 18.0759 64.2696 17.9546 64.1389 17.8333C64.0176 17.7119 63.8542 17.6139 63.6489 17.5393C63.4529 17.4553 63.1916 17.4133 62.8649 17.4133C62.3982 17.4133 62.0482 17.5113 61.8149 17.7073C61.5816 17.9033 61.4649 18.1506 61.4649 18.4493C61.4649 18.6266 61.5162 18.7853 61.6189 18.9253C61.7216 19.0653 61.9176 19.1913 62.2069 19.3033C62.4962 19.4153 62.9256 19.5366 63.4949 19.6673C64.1109 19.7886 64.5962 19.9519 64.9509 20.1573C65.3056 20.3626 65.5576 20.6006 65.7069 20.8713C65.8562 21.1419 65.9309 21.4546 65.9309 21.8093C65.9309 22.2013 65.8142 22.5606 65.5809 22.8873C65.3569 23.2139 65.0209 23.4753 64.5729 23.6713C64.1342 23.8579 63.5882 23.9513 62.9349 23.9513ZM70.2676 23.9513C69.6703 23.9513 69.1616 23.8206 68.7416 23.5593C68.331 23.2886 68.0183 22.9153 67.8036 22.4393C67.589 21.9633 67.4816 21.4173 67.4816 20.8013V16.8533C67.4816 16.7599 67.5096 16.6853 67.5656 16.6293C67.631 16.5639 67.7103 16.5313 67.8036 16.5313H68.5036C68.597 16.5313 68.6716 16.5639 68.7276 16.6293C68.793 16.6853 68.8256 16.7599 68.8256 16.8533V20.7313C68.8256 22.1219 69.4323 22.8173 70.6456 22.8173C71.2243 22.8173 71.6863 22.6353 72.0316 22.2713C72.3863 21.8979 72.5636 21.3846 72.5636 20.7313V16.8533C72.5636 16.7599 72.5916 16.6853 72.6476 16.6293C72.713 16.5639 72.7923 16.5313 72.8856 16.5313H73.5716C73.6743 16.5313 73.7536 16.5639 73.8096 16.6293C73.8656 16.6853 73.8936 16.7599 73.8936 16.8533V23.4893C73.8936 23.5826 73.8656 23.6619 73.8096 23.7273C73.7536 23.7833 73.6743 23.8113 73.5716 23.8113H72.9276C72.8343 23.8113 72.755 23.7833 72.6896 23.7273C72.6336 23.6619 72.6056 23.5826 72.6056 23.4893V22.8733C72.3536 23.1999 72.0456 23.4613 71.6816 23.6573C71.327 23.8533 70.8556 23.9513 70.2676 23.9513ZM76.2955 23.8113C76.2022 23.8113 76.1228 23.7833 76.0575 23.7273C76.0015 23.6619 75.9735 23.5826 75.9735 23.4893V16.8673C75.9735 16.7739 76.0015 16.6946 76.0575 16.6293C76.1228 16.5639 76.2022 16.5313 76.2955 16.5313H76.9395C77.0328 16.5313 77.1122 16.5639 77.1775 16.6293C77.2428 16.6946 77.2755 16.7739 77.2755 16.8673V17.4833C77.4622 17.1659 77.7188 16.9279 78.0455 16.7693C78.3722 16.6106 78.7642 16.5313 79.2215 16.5313H79.7815C79.8748 16.5313 79.9495 16.5639 80.0055 16.6293C80.0615 16.6853 80.0895 16.7599 80.0895 16.8533V17.4273C80.0895 17.5206 80.0615 17.5953 80.0055 17.6513C79.9495 17.7073 79.8748 17.7353 79.7815 17.7353H78.9415C78.4375 17.7353 78.0408 17.8846 77.7515 18.1833C77.4622 18.4726 77.3175 18.8693 77.3175 19.3733V23.4893C77.3175 23.5826 77.2848 23.6619 77.2195 23.7273C77.1542 23.7833 77.0748 23.8113 76.9815 23.8113H76.2955ZM83.2125 23.9513C82.7458 23.9513 82.3212 23.8579 81.9385 23.6713C81.5558 23.4846 81.2478 23.2326 81.0145 22.9153C80.7812 22.5979 80.6645 22.2386 80.6645 21.8373C80.6645 21.1933 80.9258 20.6799 81.4485 20.2973C81.9712 19.9146 82.6525 19.6626 83.4925 19.5413L85.5785 19.2473V18.8413C85.5785 18.3933 85.4478 18.0433 85.1865 17.7913C84.9345 17.5393 84.5192 17.4133 83.9405 17.4133C83.5205 17.4133 83.1798 17.4973 82.9185 17.6653C82.6665 17.8333 82.4892 18.0479 82.3865 18.3093C82.3305 18.4493 82.2325 18.5193 82.0925 18.5193H81.4625C81.3598 18.5193 81.2805 18.4913 81.2245 18.4353C81.1778 18.3699 81.1545 18.2953 81.1545 18.2113C81.1545 18.0713 81.2058 17.8986 81.3085 17.6933C81.4205 17.4879 81.5885 17.2873 81.8125 17.0913C82.0365 16.8953 82.3212 16.7319 82.6665 16.6013C83.0212 16.4613 83.4505 16.3913 83.9545 16.3913C84.5145 16.3913 84.9858 16.4659 85.3685 16.6153C85.7512 16.7553 86.0498 16.9466 86.2645 17.1893C86.4885 17.4319 86.6472 17.7073 86.7405 18.0153C86.8432 18.3233 86.8945 18.6359 86.8945 18.9533V23.4893C86.8945 23.5826 86.8618 23.6619 86.7965 23.7273C86.7405 23.7833 86.6658 23.8113 86.5725 23.8113H85.9285C85.8258 23.8113 85.7465 23.7833 85.6905 23.7273C85.6345 23.6619 85.6065 23.5826 85.6065 23.4893V22.8873C85.4852 23.0553 85.3218 23.2233 85.1165 23.3913C84.9112 23.5499 84.6545 23.6853 84.3465 23.7973C84.0385 23.8999 83.6605 23.9513 83.2125 23.9513ZM83.5065 22.9013C83.8892 22.9013 84.2392 22.8219 84.5565 22.6633C84.8738 22.4953 85.1212 22.2386 85.2985 21.8933C85.4852 21.5479 85.5785 21.1139 85.5785 20.5913V20.1993L83.9545 20.4373C83.2918 20.5306 82.7925 20.6893 82.4565 20.9133C82.1205 21.1279 81.9525 21.4033 81.9525 21.7393C81.9525 22.0006 82.0272 22.2199 82.1765 22.3973C82.3352 22.5653 82.5312 22.6913 82.7645 22.7753C83.0072 22.8593 83.2545 22.9013 83.5065 22.9013ZM89.2291 23.8113C89.1358 23.8113 89.0564 23.7833 88.9911 23.7273C88.9351 23.6619 88.9071 23.5826 88.9071 23.4893V16.8533C88.9071 16.7599 88.9351 16.6853 88.9911 16.6293C89.0564 16.5639 89.1358 16.5313 89.2291 16.5313H89.8871C89.9804 16.5313 90.0551 16.5639 90.1111 16.6293C90.1764 16.6853 90.2091 16.7599 90.2091 16.8533V17.4693C90.4518 17.1519 90.7551 16.8953 91.1191 16.6993C91.4924 16.4939 91.9684 16.3913 92.5471 16.3913C93.1538 16.3913 93.6671 16.5266 94.0871 16.7973C94.5164 17.0586 94.8384 17.4273 95.0531 17.9033C95.2678 18.3699 95.3751 18.9159 95.3751 19.5413V23.4893C95.3751 23.5826 95.3471 23.6619 95.2911 23.7273C95.2351 23.7833 95.1604 23.8113 95.0671 23.8113H94.3671C94.2738 23.8113 94.1944 23.7833 94.1291 23.7273C94.0731 23.6619 94.0451 23.5826 94.0451 23.4893V19.6113C94.0451 18.9579 93.8864 18.4493 93.5691 18.0853C93.2518 17.7119 92.7851 17.5253 92.1691 17.5253C91.5904 17.5253 91.1238 17.7119 90.7691 18.0853C90.4238 18.4493 90.2511 18.9579 90.2511 19.6113V23.4893C90.2511 23.5826 90.2184 23.6619 90.1531 23.7273C90.0971 23.7833 90.0224 23.8113 89.9291 23.8113H89.2291ZM99.9173 23.9513C99.3947 23.9513 98.9467 23.8859 98.5733 23.7553C98.2 23.6246 97.8967 23.4659 97.6633 23.2793C97.43 23.0926 97.2527 22.9059 97.1313 22.7193C97.0193 22.5326 96.9587 22.3833 96.9493 22.2713C96.94 22.1686 96.9727 22.0893 97.0473 22.0333C97.122 21.9773 97.1967 21.9493 97.2713 21.9493H97.8873C97.9433 21.9493 97.9853 21.9586 98.0133 21.9773C98.0507 21.9866 98.0973 22.0239 98.1533 22.0893C98.2747 22.2199 98.41 22.3506 98.5593 22.4813C98.7087 22.6119 98.8907 22.7193 99.1053 22.8033C99.3293 22.8873 99.6047 22.9293 99.9313 22.9293C100.407 22.9293 100.799 22.8406 101.107 22.6633C101.415 22.4766 101.569 22.2059 101.569 21.8513C101.569 21.6179 101.504 21.4313 101.373 21.2913C101.252 21.1513 101.028 21.0253 100.701 20.9133C100.384 20.8013 99.9453 20.6846 99.3853 20.5633C98.8253 20.4326 98.382 20.2739 98.0553 20.0873C97.7287 19.8913 97.4953 19.6626 97.3553 19.4013C97.2153 19.1306 97.1453 18.8273 97.1453 18.4913C97.1453 18.1459 97.248 17.8146 97.4533 17.4973C97.6587 17.1706 97.9573 16.9046 98.3493 16.6993C98.7507 16.4939 99.25 16.3913 99.8473 16.3913C100.333 16.3913 100.748 16.4519 101.093 16.5733C101.439 16.6946 101.723 16.8486 101.947 17.0353C102.171 17.2126 102.339 17.3899 102.451 17.5673C102.563 17.7446 102.624 17.8939 102.633 18.0153C102.643 18.1086 102.615 18.1879 102.549 18.2533C102.484 18.3093 102.409 18.3373 102.325 18.3373H101.737C101.672 18.3373 101.616 18.3233 101.569 18.2953C101.532 18.2673 101.495 18.2346 101.457 18.1973C101.364 18.0759 101.252 17.9546 101.121 17.8333C101 17.7119 100.837 17.6139 100.631 17.5393C100.435 17.4553 100.174 17.4133 99.8473 17.4133C99.3807 17.4133 99.0307 17.5113 98.7973 17.7073C98.564 17.9033 98.4473 18.1506 98.4473 18.4493C98.4473 18.6266 98.4987 18.7853 98.6013 18.9253C98.704 19.0653 98.9 19.1913 99.1893 19.3033C99.4787 19.4153 99.908 19.5366 100.477 19.6673C101.093 19.7886 101.579 19.9519 101.933 20.1573C102.288 20.3626 102.54 20.6006 102.689 20.8713C102.839 21.1419 102.913 21.4546 102.913 21.8093C102.913 22.2013 102.797 22.5606 102.563 22.8873C102.339 23.2139 102.003 23.4753 101.555 23.6713C101.117 23.8579 100.571 23.9513 99.9173 23.9513ZM104.856 23.8113C104.763 23.8113 104.683 23.7833 104.618 23.7273C104.562 23.6619 104.534 23.5826 104.534 23.4893V16.8533C104.534 16.7599 104.562 16.6853 104.618 16.6293C104.683 16.5639 104.763 16.5313 104.856 16.5313H105.528C105.621 16.5313 105.696 16.5639 105.752 16.6293C105.808 16.6853 105.836 16.7599 105.836 16.8533V23.4893C105.836 23.5826 105.808 23.6619 105.752 23.7273C105.696 23.7833 105.621 23.8113 105.528 23.8113H104.856ZM104.744 15.1733C104.651 15.1733 104.571 15.1453 104.506 15.0893C104.45 15.0239 104.422 14.9446 104.422 14.8513V14.0953C104.422 14.0019 104.45 13.9273 104.506 13.8713C104.571 13.8059 104.651 13.7733 104.744 13.7733H105.626C105.719 13.7733 105.794 13.8059 105.85 13.8713C105.915 13.9273 105.948 14.0019 105.948 14.0953V14.8513C105.948 14.9446 105.915 15.0239 105.85 15.0893C105.794 15.1453 105.719 15.1733 105.626 15.1733H104.744ZM111.86 23.8113C111.758 23.8113 111.678 23.7833 111.622 23.7273C111.566 23.6619 111.538 23.5826 111.538 23.4893V14.3473C111.538 14.2446 111.566 14.1653 111.622 14.1093C111.678 14.0439 111.758 14.0113 111.86 14.0113H115.696C116.396 14.0113 116.966 14.1279 117.404 14.3613C117.852 14.5853 118.179 14.8933 118.384 15.2853C118.599 15.6773 118.706 16.1159 118.706 16.6013C118.706 16.9839 118.641 17.3153 118.51 17.5953C118.389 17.8659 118.235 18.0899 118.048 18.2673C117.862 18.4353 117.68 18.5659 117.502 18.6593C117.866 18.8366 118.188 19.1259 118.468 19.5273C118.758 19.9286 118.902 20.4139 118.902 20.9833C118.902 21.4966 118.786 21.9679 118.552 22.3973C118.319 22.8266 117.969 23.1719 117.502 23.4333C117.045 23.6853 116.476 23.8113 115.794 23.8113H111.86ZM112.91 22.6773H115.612C116.219 22.6773 116.686 22.5139 117.012 22.1873C117.339 21.8606 117.502 21.4593 117.502 20.9833C117.502 20.4886 117.339 20.0826 117.012 19.7653C116.686 19.4386 116.219 19.2753 115.612 19.2753H112.91V22.6773ZM112.91 18.1553H115.486C116.084 18.1553 116.536 18.0199 116.844 17.7493C117.152 17.4693 117.306 17.0913 117.306 16.6153C117.306 16.1393 117.152 15.7753 116.844 15.5233C116.536 15.2713 116.084 15.1453 115.486 15.1453H112.91V18.1553ZM122.738 23.9513C122.271 23.9513 121.847 23.8579 121.464 23.6713C121.081 23.4846 120.773 23.2326 120.54 22.9153C120.307 22.5979 120.19 22.2386 120.19 21.8373C120.19 21.1933 120.451 20.6799 120.974 20.2973C121.497 19.9146 122.178 19.6626 123.018 19.5413L125.104 19.2473V18.8413C125.104 18.3933 124.973 18.0433 124.712 17.7913C124.46 17.5393 124.045 17.4133 123.466 17.4133C123.046 17.4133 122.705 17.4973 122.444 17.6653C122.192 17.8333 122.015 18.0479 121.912 18.3093C121.856 18.4493 121.758 18.5193 121.618 18.5193H120.988C120.885 18.5193 120.806 18.4913 120.75 18.4353C120.703 18.3699 120.68 18.2953 120.68 18.2113C120.68 18.0713 120.731 17.8986 120.834 17.6933C120.946 17.4879 121.114 17.2873 121.338 17.0913C121.562 16.8953 121.847 16.7319 122.192 16.6013C122.547 16.4613 122.976 16.3913 123.48 16.3913C124.04 16.3913 124.511 16.4659 124.894 16.6153C125.277 16.7553 125.575 16.9466 125.79 17.1893C126.014 17.4319 126.173 17.7073 126.266 18.0153C126.369 18.3233 126.42 18.6359 126.42 18.9533V23.4893C126.42 23.5826 126.387 23.6619 126.322 23.7273C126.266 23.7833 126.191 23.8113 126.098 23.8113H125.454C125.351 23.8113 125.272 23.7833 125.216 23.7273C125.16 23.6619 125.132 23.5826 125.132 23.4893V22.8873C125.011 23.0553 124.847 23.2233 124.642 23.3913C124.437 23.5499 124.18 23.6853 123.872 23.7973C123.564 23.8999 123.186 23.9513 122.738 23.9513ZM123.032 22.9013C123.415 22.9013 123.765 22.8219 124.082 22.6633C124.399 22.4953 124.647 22.2386 124.824 21.8933C125.011 21.5479 125.104 21.1139 125.104 20.5913V20.1993L123.48 20.4373C122.817 20.5306 122.318 20.6893 121.982 20.9133C121.646 21.1279 121.478 21.4033 121.478 21.7393C121.478 22.0006 121.553 22.2199 121.702 22.3973C121.861 22.5653 122.057 22.6913 122.29 22.7753C122.533 22.8593 122.78 22.9013 123.032 22.9013ZM128.754 23.8113C128.661 23.8113 128.582 23.7833 128.516 23.7273C128.46 23.6619 128.432 23.5826 128.432 23.4893V16.8673C128.432 16.7739 128.46 16.6946 128.516 16.6293C128.582 16.5639 128.661 16.5313 128.754 16.5313H129.398C129.492 16.5313 129.571 16.5639 129.636 16.6293C129.702 16.6946 129.734 16.7739 129.734 16.8673V17.4833C129.921 17.1659 130.178 16.9279 130.504 16.7693C130.831 16.6106 131.223 16.5313 131.68 16.5313H132.24C132.334 16.5313 132.408 16.5639 132.464 16.6293C132.52 16.6853 132.548 16.7599 132.548 16.8533V17.4273C132.548 17.5206 132.52 17.5953 132.464 17.6513C132.408 17.7073 132.334 17.7353 132.24 17.7353H131.4C130.896 17.7353 130.5 17.8846 130.21 18.1833C129.921 18.4726 129.776 18.8693 129.776 19.3733V23.4893C129.776 23.5826 129.744 23.6619 129.678 23.7273C129.613 23.7833 129.534 23.8113 129.44 23.8113H128.754ZM135.671 23.9513C135.205 23.9513 134.78 23.8579 134.397 23.6713C134.015 23.4846 133.707 23.2326 133.473 22.9153C133.24 22.5979 133.123 22.2386 133.123 21.8373C133.123 21.1933 133.385 20.6799 133.907 20.2973C134.43 19.9146 135.111 19.6626 135.951 19.5413L138.037 19.2473V18.8413C138.037 18.3933 137.907 18.0433 137.645 17.7913C137.393 17.5393 136.978 17.4133 136.399 17.4133C135.979 17.4133 135.639 17.4973 135.377 17.6653C135.125 17.8333 134.948 18.0479 134.845 18.3093C134.789 18.4493 134.691 18.5193 134.551 18.5193H133.921C133.819 18.5193 133.739 18.4913 133.683 18.4353C133.637 18.3699 133.613 18.2953 133.613 18.2113C133.613 18.0713 133.665 17.8986 133.767 17.6933C133.879 17.4879 134.047 17.2873 134.271 17.0913C134.495 16.8953 134.78 16.7319 135.125 16.6013C135.48 16.4613 135.909 16.3913 136.413 16.3913C136.973 16.3913 137.445 16.4659 137.827 16.6153C138.21 16.7553 138.509 16.9466 138.723 17.1893C138.947 17.4319 139.106 17.7073 139.199 18.0153C139.302 18.3233 139.353 18.6359 139.353 18.9533V23.4893C139.353 23.5826 139.321 23.6619 139.255 23.7273C139.199 23.7833 139.125 23.8113 139.031 23.8113H138.387C138.285 23.8113 138.205 23.7833 138.149 23.7273C138.093 23.6619 138.065 23.5826 138.065 23.4893V22.8873C137.944 23.0553 137.781 23.2233 137.575 23.3913C137.37 23.5499 137.113 23.6853 136.805 23.7973C136.497 23.8999 136.119 23.9513 135.671 23.9513ZM135.965 22.9013C136.348 22.9013 136.698 22.8219 137.015 22.6633C137.333 22.4953 137.58 22.2386 137.757 21.8933C137.944 21.5479 138.037 21.1139 138.037 20.5913V20.1993L136.413 20.4373C135.751 20.5306 135.251 20.6893 134.915 20.9133C134.579 21.1279 134.411 21.4033 134.411 21.7393C134.411 22.0006 134.486 22.2199 134.635 22.3973C134.794 22.5653 134.99 22.6913 135.223 22.7753C135.466 22.8593 135.713 22.9013 135.965 22.9013ZM141.688 23.8113C141.595 23.8113 141.515 23.7833 141.45 23.7273C141.394 23.6619 141.366 23.5826 141.366 23.4893V16.8533C141.366 16.7599 141.394 16.6853 141.45 16.6293C141.515 16.5639 141.595 16.5313 141.688 16.5313H142.346C142.439 16.5313 142.514 16.5639 142.57 16.6293C142.635 16.6853 142.668 16.7599 142.668 16.8533V17.4693C142.911 17.1519 143.214 16.8953 143.578 16.6993C143.951 16.4939 144.427 16.3913 145.006 16.3913C145.613 16.3913 146.126 16.5266 146.546 16.7973C146.975 17.0586 147.297 17.4273 147.512 17.9033C147.727 18.3699 147.834 18.9159 147.834 19.5413V23.4893C147.834 23.5826 147.806 23.6619 147.75 23.7273C147.694 23.7833 147.619 23.8113 147.526 23.8113H146.826C146.733 23.8113 146.653 23.7833 146.588 23.7273C146.532 23.6619 146.504 23.5826 146.504 23.4893V19.6113C146.504 18.9579 146.345 18.4493 146.028 18.0853C145.711 17.7119 145.244 17.5253 144.628 17.5253C144.049 17.5253 143.583 17.7119 143.228 18.0853C142.883 18.4493 142.71 18.9579 142.71 19.6113V23.4893C142.71 23.5826 142.677 23.6619 142.612 23.7273C142.556 23.7833 142.481 23.8113 142.388 23.8113H141.688ZM152.838 26.8913C152.204 26.8913 151.681 26.8073 151.27 26.6393C150.869 26.4713 150.552 26.2659 150.318 26.0233C150.094 25.7899 149.931 25.5519 149.828 25.3093C149.735 25.0759 149.684 24.8893 149.674 24.7493C149.665 24.6559 149.693 24.5766 149.758 24.5113C149.833 24.4459 149.912 24.4133 149.996 24.4133H150.668C150.752 24.4133 150.822 24.4319 150.878 24.4693C150.934 24.5066 150.981 24.5859 151.018 24.7073C151.074 24.8473 151.158 25.0013 151.27 25.1693C151.382 25.3466 151.555 25.4959 151.788 25.6173C152.022 25.7479 152.348 25.8133 152.768 25.8133C153.207 25.8133 153.576 25.7526 153.874 25.6313C154.173 25.5193 154.397 25.3139 154.546 25.0153C154.705 24.7259 154.784 24.3246 154.784 23.8113V22.8593C154.56 23.1486 154.266 23.3913 153.902 23.5873C153.538 23.7739 153.081 23.8673 152.53 23.8673C152.008 23.8673 151.56 23.7786 151.186 23.6013C150.813 23.4146 150.505 23.1673 150.262 22.8593C150.029 22.5419 149.852 22.1826 149.73 21.7813C149.618 21.3799 149.553 20.9599 149.534 20.5213C149.525 20.2599 149.525 20.0033 149.534 19.7513C149.553 19.3126 149.618 18.8926 149.73 18.4913C149.852 18.0899 150.029 17.7306 150.262 17.4133C150.505 17.0959 150.813 16.8486 151.186 16.6713C151.56 16.4846 152.008 16.3913 152.53 16.3913C153.09 16.3913 153.552 16.4986 153.916 16.7133C154.29 16.9186 154.593 17.1706 154.826 17.4693V16.8673C154.826 16.7739 154.854 16.6946 154.91 16.6293C154.976 16.5639 155.055 16.5313 155.148 16.5313H155.792C155.886 16.5313 155.965 16.5639 156.03 16.6293C156.096 16.6946 156.128 16.7739 156.128 16.8673V23.6573C156.128 24.2826 156.021 24.8379 155.806 25.3233C155.601 25.8086 155.256 26.1913 154.77 26.4713C154.294 26.7513 153.65 26.8913 152.838 26.8913ZM152.81 22.7473C153.277 22.7473 153.65 22.6399 153.93 22.4253C154.22 22.2106 154.43 21.9399 154.56 21.6133C154.7 21.2866 154.775 20.9553 154.784 20.6193C154.794 20.4886 154.798 20.3299 154.798 20.1433C154.798 19.9473 154.794 19.7839 154.784 19.6533C154.775 19.3173 154.7 18.9859 154.56 18.6593C154.43 18.3326 154.22 18.0619 153.93 17.8473C153.65 17.6326 153.277 17.5253 152.81 17.5253C152.344 17.5253 151.97 17.6326 151.69 17.8473C151.41 18.0526 151.21 18.3279 151.088 18.6733C150.967 19.0093 150.897 19.3733 150.878 19.7653C150.869 20.0079 150.869 20.2553 150.878 20.5073C150.897 20.8993 150.967 21.2679 151.088 21.6133C151.21 21.9493 151.41 22.2246 151.69 22.4393C151.97 22.6446 152.344 22.7473 152.81 22.7473Z" fill="#141F25"/>
<defs>
<linearGradient id="paint0_linear_1_389" x1="-1.07732" y1="8.5446" x2="46.727" y2="11.9394" gradientUnits="userSpaceOnUse">
<stop stop-color="#FFB629"/>
<stop offset="0.507189" stop-color="#FFDA56"/>
<stop offset="1" stop-color="#FFD7A6"/>
</linearGradient>
</defs>
</svg>
