<svg width="113" height="109" viewBox="0 0 113 109" fill="none" xmlns="http://www.w3.org/2000/svg">
<path d="M2.376 60C2.2 60 2.056 59.944 1.944 59.832C1.832 59.72 1.776 59.576 1.776 59.4V43.8C1.776 43.624 1.832 43.48 1.944 43.368C2.056 43.256 2.2 43.2 2.376 43.2H4.992C5.168 43.2 5.312 43.256 5.424 43.368C5.536 43.48 5.592 43.624 5.592 43.8V49.8H12.096V43.8C12.096 43.624 12.152 43.48 12.264 43.368C12.376 43.256 12.52 43.2 12.696 43.2H15.312C15.488 43.2 15.632 43.256 15.744 43.368C15.856 43.48 15.912 43.624 15.912 43.8V59.4C15.912 59.576 15.856 59.72 15.744 59.832C15.632 59.944 15.488 60 15.312 60H12.696C12.52 60 12.376 59.944 12.264 59.832C12.152 59.72 12.096 59.576 12.096 59.4V53.208H5.592V59.4C5.592 59.576 5.536 59.72 5.424 59.832C5.312 59.944 5.168 60 4.992 60H2.376ZM24.7753 60.24C22.9353 60.24 21.4713 59.728 20.3833 58.704C19.3113 57.68 18.7433 56.192 18.6793 54.24C18.6793 54.112 18.6793 53.944 18.6793 53.736C18.6793 53.512 18.6793 53.336 18.6793 53.208C18.7433 51.976 19.0233 50.92 19.5193 50.04C20.0153 49.144 20.7113 48.464 21.6073 48C22.5033 47.52 23.5513 47.28 24.7513 47.28C26.0953 47.28 27.2153 47.56 28.1113 48.12C29.0233 48.664 29.7033 49.416 30.1513 50.376C30.6153 51.32 30.8473 52.408 30.8473 53.64V54.192C30.8473 54.352 30.7833 54.488 30.6553 54.6C30.5433 54.712 30.4073 54.768 30.2473 54.768H22.3993C22.3993 54.784 22.3993 54.816 22.3993 54.864C22.3993 54.896 22.3993 54.928 22.3993 54.96C22.4153 55.472 22.5113 55.944 22.6873 56.376C22.8793 56.792 23.1433 57.128 23.4793 57.384C23.8313 57.64 24.2473 57.768 24.7273 57.768C25.1273 57.768 25.4553 57.712 25.7113 57.6C25.9673 57.488 26.1753 57.352 26.3353 57.192C26.5113 57.032 26.6393 56.896 26.7193 56.784C26.8633 56.624 26.9753 56.528 27.0553 56.496C27.1513 56.448 27.2953 56.424 27.4873 56.424H29.9833C30.1433 56.424 30.2713 56.472 30.3673 56.568C30.4793 56.648 30.5273 56.768 30.5113 56.928C30.4953 57.184 30.3593 57.504 30.1033 57.888C29.8633 58.256 29.5033 58.624 29.0233 58.992C28.5433 59.344 27.9433 59.64 27.2233 59.88C26.5193 60.12 25.7033 60.24 24.7753 60.24ZM22.3993 52.584H27.1033V52.536C27.1033 51.96 27.0073 51.464 26.8153 51.048C26.6393 50.616 26.3753 50.28 26.0233 50.04C25.6713 49.8 25.2473 49.68 24.7513 49.68C24.2553 49.68 23.8313 49.8 23.4793 50.04C23.1273 50.28 22.8553 50.616 22.6633 51.048C22.4873 51.464 22.3993 51.96 22.3993 52.536V52.584ZM33.8224 60C33.6624 60 33.5264 59.944 33.4144 59.832C33.3024 59.72 33.2464 59.576 33.2464 59.4V48.12C33.2464 47.944 33.3024 47.8 33.4144 47.688C33.5264 47.576 33.6624 47.52 33.8224 47.52H36.0544C36.2144 47.52 36.3504 47.576 36.4624 47.688C36.5904 47.8 36.6544 47.944 36.6544 48.12V48.936C36.9744 48.488 37.4144 48.104 37.9744 47.784C38.5504 47.464 39.2304 47.296 40.0144 47.28C41.8704 47.248 43.1424 47.952 43.8304 49.392C44.1984 48.768 44.7264 48.264 45.4144 47.88C46.1184 47.48 46.8864 47.28 47.7184 47.28C48.5504 47.28 49.3024 47.472 49.9744 47.856C50.6464 48.224 51.1744 48.8 51.5584 49.584C51.9584 50.352 52.1584 51.344 52.1584 52.56V59.4C52.1584 59.576 52.1024 59.72 51.9904 59.832C51.8784 59.944 51.7424 60 51.5824 60H49.2064C49.0464 60 48.9104 59.944 48.7984 59.832C48.6864 59.72 48.6304 59.576 48.6304 59.4V52.752C48.6304 52.096 48.5344 51.584 48.3424 51.216C48.1504 50.832 47.8944 50.56 47.5744 50.4C47.2704 50.24 46.9264 50.16 46.5424 50.16C46.2064 50.16 45.8784 50.24 45.5584 50.4C45.2544 50.56 44.9984 50.832 44.7904 51.216C44.5984 51.584 44.5024 52.096 44.5024 52.752V59.4C44.5024 59.576 44.4464 59.72 44.3344 59.832C44.2224 59.944 44.0784 60 43.9024 60H41.5504C41.3744 60 41.2304 59.944 41.1184 59.832C41.0064 59.72 40.9504 59.576 40.9504 59.4V52.752C40.9504 52.096 40.8544 51.584 40.6624 51.216C40.4704 50.832 40.2144 50.56 39.8944 50.4C39.5904 50.24 39.2544 50.16 38.8864 50.16C38.5504 50.16 38.2224 50.248 37.9024 50.424C37.5824 50.584 37.3184 50.848 37.1104 51.216C36.9184 51.584 36.8224 52.088 36.8224 52.728V59.4C36.8224 59.576 36.7664 59.72 36.6544 59.832C36.5424 59.944 36.4064 60 36.2464 60H33.8224ZM58.7387 60.24C57.8907 60.24 57.1307 60.08 56.4587 59.76C55.7867 59.424 55.2507 58.976 54.8507 58.416C54.4507 57.856 54.2507 57.232 54.2507 56.544C54.2507 55.408 54.7067 54.512 55.6187 53.856C56.5467 53.2 57.7627 52.752 59.2667 52.512L62.4107 52.056V51.624C62.4107 51 62.2667 50.52 61.9787 50.184C61.6907 49.848 61.1867 49.68 60.4667 49.68C59.9387 49.68 59.5147 49.784 59.1947 49.992C58.8747 50.2 58.6267 50.472 58.4507 50.808C58.3227 51.016 58.1387 51.12 57.8987 51.12H55.6187C55.4427 51.12 55.3067 51.072 55.2107 50.976C55.1147 50.864 55.0747 50.736 55.0907 50.592C55.0907 50.32 55.1947 50 55.4027 49.632C55.6107 49.264 55.9307 48.904 56.3627 48.552C56.7947 48.184 57.3467 47.88 58.0187 47.64C58.6907 47.4 59.5147 47.28 60.4907 47.28C61.4987 47.28 62.3627 47.4 63.0827 47.64C63.8027 47.88 64.3787 48.216 64.8107 48.648C65.2427 49.08 65.5627 49.584 65.7707 50.16C65.9787 50.72 66.0827 51.328 66.0827 51.984V59.4C66.0827 59.576 66.0267 59.72 65.9147 59.832C65.8027 59.944 65.6587 60 65.4827 60H63.1307C62.9707 60 62.8347 59.944 62.7227 59.832C62.6107 59.72 62.5547 59.576 62.5547 59.4V58.512C62.3467 58.816 62.0667 59.104 61.7147 59.376C61.3627 59.632 60.9387 59.84 60.4427 60C59.9627 60.16 59.3947 60.24 58.7387 60.24ZM59.6987 57.744C60.2267 57.744 60.6987 57.632 61.1147 57.408C61.5307 57.184 61.8587 56.84 62.0987 56.376C62.3387 55.912 62.4587 55.328 62.4587 54.624V54.216L60.2267 54.576C59.3627 54.72 58.7307 54.936 58.3307 55.224C57.9307 55.512 57.7307 55.864 57.7307 56.28C57.7307 56.584 57.8187 56.848 57.9947 57.072C58.1867 57.296 58.4347 57.464 58.7387 57.576C59.0427 57.688 59.3627 57.744 59.6987 57.744ZM74.8948 60C73.9028 60 73.0548 59.84 72.3508 59.52C71.6468 59.184 71.1108 58.672 70.7428 57.984C70.3908 57.296 70.2148 56.432 70.2148 55.392V50.352H68.3428C68.1668 50.352 68.0228 50.296 67.9108 50.184C67.7988 50.072 67.7428 49.928 67.7428 49.752V48.12C67.7428 47.944 67.7988 47.8 67.9108 47.688C68.0228 47.576 68.1668 47.52 68.3428 47.52H70.2148V43.56C70.2148 43.384 70.2708 43.24 70.3828 43.128C70.5108 43.016 70.6548 42.96 70.8148 42.96H73.1668C73.3428 42.96 73.4868 43.016 73.5988 43.128C73.7108 43.24 73.7668 43.384 73.7668 43.56V47.52H76.7668C76.9268 47.52 77.0628 47.576 77.1748 47.688C77.2868 47.8 77.3428 47.944 77.3428 48.12V49.752C77.3428 49.928 77.2868 50.072 77.1748 50.184C77.0628 50.296 76.9268 50.352 76.7668 50.352H73.7668V55.104C73.7668 55.712 73.8708 56.192 74.0788 56.544C74.3028 56.88 74.6868 57.048 75.2308 57.048H76.9828C77.1428 57.048 77.2788 57.104 77.3908 57.216C77.5028 57.328 77.5588 57.464 77.5588 57.624V59.4C77.5588 59.576 77.5028 59.72 77.3908 59.832C77.2788 59.944 77.1428 60 76.9828 60H74.8948ZM90.5415 60.24C89.3415 60.24 88.2935 60.048 87.3975 59.664C86.5015 59.264 85.8055 58.696 85.3095 57.96C84.8135 57.224 84.5655 56.36 84.5655 55.368C84.5655 54.664 84.7015 54.04 84.9735 53.496C85.2615 52.952 85.6535 52.464 86.1495 52.032C86.6455 51.584 87.2135 51.176 87.8535 50.808C87.1975 50.104 86.7255 49.464 86.4375 48.888C86.1655 48.312 86.0295 47.72 86.0295 47.112C86.0295 46.376 86.2215 45.696 86.6055 45.072C86.9895 44.448 87.5575 43.944 88.3095 43.56C89.0615 43.16 89.9815 42.96 91.0695 42.96C92.0935 42.96 92.9655 43.152 93.6855 43.536C94.4055 43.904 94.9575 44.4 95.3415 45.024C95.7255 45.648 95.9175 46.328 95.9175 47.064C95.9175 47.72 95.7655 48.312 95.4615 48.84C95.1735 49.352 94.7735 49.816 94.2615 50.232C93.7495 50.648 93.1655 51.048 92.5095 51.432L95.6535 54.576C95.8135 54.304 96.0135 53.928 96.2535 53.448C96.4935 52.968 96.7095 52.352 96.9015 51.6C96.9495 51.344 97.1175 51.216 97.4055 51.216H99.4935C99.6375 51.216 99.7495 51.264 99.8295 51.36C99.9255 51.44 99.9735 51.552 99.9735 51.696C99.9575 52 99.8855 52.36 99.7575 52.776C99.6295 53.176 99.4535 53.6 99.2295 54.048C99.0055 54.496 98.7575 54.936 98.4855 55.368C98.2135 55.8 97.9415 56.2 97.6695 56.568L100.286 59.208C100.398 59.336 100.454 59.456 100.454 59.568C100.454 59.696 100.414 59.8 100.334 59.88C100.254 59.96 100.142 60 99.9975 60H97.2375C97.0775 60 96.9495 59.976 96.8535 59.928C96.7575 59.864 96.6695 59.808 96.5895 59.76L95.3895 58.608C94.7495 59.136 94.0295 59.544 93.2295 59.832C92.4455 60.104 91.5495 60.24 90.5415 60.24ZM90.5415 57.48C91.0695 57.48 91.5655 57.4 92.0295 57.24C92.5095 57.064 92.9495 56.784 93.3495 56.4L89.7975 52.92C89.3015 53.192 88.8775 53.52 88.5255 53.904C88.1735 54.272 87.9975 54.72 87.9975 55.248C87.9975 55.712 88.1175 56.112 88.3575 56.448C88.5975 56.784 88.9095 57.04 89.2935 57.216C89.6935 57.392 90.1095 57.48 90.5415 57.48ZM90.6375 49.44C91.0375 49.216 91.4055 49 91.7415 48.792C92.0775 48.568 92.3415 48.328 92.5335 48.072C92.7255 47.8 92.8215 47.496 92.8215 47.16C92.8215 46.664 92.6535 46.272 92.3175 45.984C91.9815 45.696 91.5655 45.552 91.0695 45.552C90.6055 45.552 90.1975 45.696 89.8455 45.984C89.4935 46.272 89.3175 46.664 89.3175 47.16C89.3175 47.384 89.3575 47.608 89.4375 47.832C89.5175 48.04 89.6535 48.272 89.8455 48.528C90.0375 48.784 90.3015 49.088 90.6375 49.44ZM8.448 88.24C6.944 88.24 5.664 87.992 4.608 87.496C3.568 86.984 2.76 86.248 2.184 85.288C1.608 84.312 1.288 83.128 1.224 81.736C1.208 81.08 1.2 80.376 1.2 79.624C1.2 78.872 1.208 78.152 1.224 77.464C1.288 76.088 1.608 74.92 2.184 73.96C2.776 72.984 3.6 72.24 4.656 71.728C5.712 71.216 6.976 70.96 8.448 70.96C9.52 70.96 10.496 71.096 11.376 71.368C12.256 71.64 13.016 72.032 13.656 72.544C14.296 73.056 14.792 73.656 15.144 74.344C15.496 75.032 15.688 75.8 15.72 76.648C15.72 76.792 15.664 76.912 15.552 77.008C15.456 77.104 15.336 77.152 15.192 77.152H12.456C12.264 77.152 12.112 77.104 12 77.008C11.888 76.912 11.8 76.752 11.736 76.528C11.496 75.584 11.096 74.936 10.536 74.584C9.976 74.232 9.28 74.056 8.448 74.056C7.456 74.056 6.672 74.328 6.096 74.872C5.52 75.416 5.208 76.32 5.16 77.584C5.112 78.896 5.112 80.24 5.16 81.616C5.208 82.88 5.52 83.784 6.096 84.328C6.672 84.872 7.456 85.144 8.448 85.144C9.28 85.144 9.976 84.968 10.536 84.616C11.112 84.248 11.512 83.6 11.736 82.672C11.8 82.432 11.888 82.272 12 82.192C12.112 82.096 12.264 82.048 12.456 82.048H15.192C15.336 82.048 15.456 82.096 15.552 82.192C15.664 82.288 15.72 82.408 15.72 82.552C15.688 83.4 15.496 84.168 15.144 84.856C14.792 85.544 14.296 86.144 13.656 86.656C13.016 87.168 12.256 87.56 11.376 87.832C10.496 88.104 9.52 88.24 8.448 88.24ZM23.7206 88.24C21.8806 88.24 20.4166 87.728 19.3286 86.704C18.2566 85.68 17.6886 84.192 17.6246 82.24C17.6246 82.112 17.6246 81.944 17.6246 81.736C17.6246 81.512 17.6246 81.336 17.6246 81.208C17.6886 79.976 17.9686 78.92 18.4646 78.04C18.9606 77.144 19.6566 76.464 20.5526 76C21.4486 75.52 22.4966 75.28 23.6966 75.28C25.0406 75.28 26.1606 75.56 27.0566 76.12C27.9686 76.664 28.6486 77.416 29.0966 78.376C29.5606 79.32 29.7926 80.408 29.7926 81.64V82.192C29.7926 82.352 29.7286 82.488 29.6006 82.6C29.4886 82.712 29.3526 82.768 29.1926 82.768H21.3446C21.3446 82.784 21.3446 82.816 21.3446 82.864C21.3446 82.896 21.3446 82.928 21.3446 82.96C21.3606 83.472 21.4566 83.944 21.6326 84.376C21.8246 84.792 22.0886 85.128 22.4246 85.384C22.7766 85.64 23.1926 85.768 23.6726 85.768C24.0726 85.768 24.4006 85.712 24.6566 85.6C24.9126 85.488 25.1206 85.352 25.2806 85.192C25.4566 85.032 25.5846 84.896 25.6646 84.784C25.8086 84.624 25.9206 84.528 26.0006 84.496C26.0966 84.448 26.2406 84.424 26.4326 84.424H28.9286C29.0886 84.424 29.2166 84.472 29.3126 84.568C29.4246 84.648 29.4726 84.768 29.4566 84.928C29.4406 85.184 29.3046 85.504 29.0486 85.888C28.8086 86.256 28.4486 86.624 27.9686 86.992C27.4886 87.344 26.8886 87.64 26.1686 87.88C25.4646 88.12 24.6486 88.24 23.7206 88.24ZM21.3446 80.584H26.0486V80.536C26.0486 79.96 25.9526 79.464 25.7606 79.048C25.5846 78.616 25.3206 78.28 24.9686 78.04C24.6166 77.8 24.1926 77.68 23.6966 77.68C23.2006 77.68 22.7766 77.8 22.4246 78.04C22.0726 78.28 21.8006 78.616 21.6086 79.048C21.4326 79.464 21.3446 79.96 21.3446 80.536V80.584ZM32.7917 92.56C32.6157 92.56 32.4717 92.504 32.3597 92.392C32.2477 92.28 32.1917 92.136 32.1917 91.96V76.12C32.1917 75.944 32.2477 75.8 32.3597 75.688C32.4717 75.576 32.6157 75.52 32.7917 75.52H35.0717C35.2477 75.52 35.3917 75.576 35.5037 75.688C35.6157 75.8 35.6717 75.944 35.6717 76.12V77.032C36.0557 76.52 36.5517 76.104 37.1597 75.784C37.7677 75.448 38.5277 75.28 39.4397 75.28C40.2717 75.28 40.9917 75.416 41.5997 75.688C42.2237 75.944 42.7437 76.32 43.1597 76.816C43.5917 77.296 43.9197 77.88 44.1437 78.568C44.3837 79.256 44.5197 80.032 44.5517 80.896C44.5677 81.2 44.5757 81.488 44.5757 81.76C44.5757 82.032 44.5677 82.328 44.5517 82.648C44.5357 83.464 44.4077 84.216 44.1677 84.904C43.9437 85.592 43.6157 86.184 43.1837 86.68C42.7517 87.176 42.2237 87.56 41.5997 87.832C40.9917 88.104 40.2717 88.24 39.4397 88.24C38.6237 88.24 37.9117 88.096 37.3037 87.808C36.7117 87.504 36.2237 87.096 35.8397 86.584V91.96C35.8397 92.136 35.7837 92.28 35.6717 92.392C35.5597 92.504 35.4237 92.56 35.2637 92.56H32.7917ZM38.3597 85.36C38.9677 85.36 39.4477 85.232 39.7997 84.976C40.1517 84.704 40.3997 84.352 40.5437 83.92C40.7037 83.488 40.7997 83.016 40.8317 82.504C40.8637 82.008 40.8637 81.512 40.8317 81.016C40.7997 80.504 40.7037 80.032 40.5437 79.6C40.3997 79.168 40.1517 78.824 39.7997 78.568C39.4477 78.296 38.9677 78.16 38.3597 78.16C37.7677 78.16 37.2877 78.296 36.9197 78.568C36.5517 78.84 36.2877 79.184 36.1277 79.6C35.9677 80.016 35.8717 80.464 35.8397 80.944C35.8237 81.232 35.8157 81.528 35.8157 81.832C35.8157 82.136 35.8237 82.44 35.8397 82.744C35.8557 83.192 35.9517 83.616 36.1277 84.016C36.3197 84.4 36.5917 84.72 36.9437 84.976C37.3117 85.232 37.7837 85.36 38.3597 85.36ZM50.7934 88.24C49.9454 88.24 49.1854 88.08 48.5134 87.76C47.8414 87.424 47.3054 86.976 46.9054 86.416C46.5054 85.856 46.3054 85.232 46.3054 84.544C46.3054 83.408 46.7614 82.512 47.6734 81.856C48.6014 81.2 49.8174 80.752 51.3214 80.512L54.4654 80.056V79.624C54.4654 79 54.3214 78.52 54.0334 78.184C53.7454 77.848 53.2414 77.68 52.5214 77.68C51.9934 77.68 51.5694 77.784 51.2494 77.992C50.9294 78.2 50.6814 78.472 50.5054 78.808C50.3774 79.016 50.1934 79.12 49.9534 79.12H47.6734C47.4974 79.12 47.3614 79.072 47.2654 78.976C47.1694 78.864 47.1294 78.736 47.1454 78.592C47.1454 78.32 47.2494 78 47.4574 77.632C47.6654 77.264 47.9854 76.904 48.4174 76.552C48.8494 76.184 49.4014 75.88 50.0734 75.64C50.7454 75.4 51.5694 75.28 52.5454 75.28C53.5534 75.28 54.4174 75.4 55.1374 75.64C55.8574 75.88 56.4334 76.216 56.8654 76.648C57.2974 77.08 57.6174 77.584 57.8254 78.16C58.0334 78.72 58.1374 79.328 58.1374 79.984V87.4C58.1374 87.576 58.0814 87.72 57.9694 87.832C57.8574 87.944 57.7134 88 57.5374 88H55.1854C55.0254 88 54.8894 87.944 54.7774 87.832C54.6654 87.72 54.6094 87.576 54.6094 87.4V86.512C54.4014 86.816 54.1214 87.104 53.7694 87.376C53.4174 87.632 52.9934 87.84 52.4974 88C52.0174 88.16 51.4494 88.24 50.7934 88.24ZM51.7534 85.744C52.2814 85.744 52.7534 85.632 53.1694 85.408C53.5854 85.184 53.9134 84.84 54.1534 84.376C54.3934 83.912 54.5134 83.328 54.5134 82.624V82.216L52.2814 82.576C51.4174 82.72 50.7854 82.936 50.3854 83.224C49.9854 83.512 49.7854 83.864 49.7854 84.28C49.7854 84.584 49.8734 84.848 50.0494 85.072C50.2414 85.296 50.4894 85.464 50.7934 85.576C51.0974 85.688 51.4174 85.744 51.7534 85.744ZM66.9495 88C65.9575 88 65.1095 87.84 64.4055 87.52C63.7015 87.184 63.1655 86.672 62.7975 85.984C62.4455 85.296 62.2695 84.432 62.2695 83.392V78.352H60.3975C60.2215 78.352 60.0775 78.296 59.9655 78.184C59.8535 78.072 59.7975 77.928 59.7975 77.752V76.12C59.7975 75.944 59.8535 75.8 59.9655 75.688C60.0775 75.576 60.2215 75.52 60.3975 75.52H62.2695V71.56C62.2695 71.384 62.3255 71.24 62.4375 71.128C62.5655 71.016 62.7095 70.96 62.8695 70.96H65.2215C65.3975 70.96 65.5415 71.016 65.6535 71.128C65.7655 71.24 65.8215 71.384 65.8215 71.56V75.52H68.8215C68.9815 75.52 69.1175 75.576 69.2295 75.688C69.3415 75.8 69.3975 75.944 69.3975 76.12V77.752C69.3975 77.928 69.3415 78.072 69.2295 78.184C69.1175 78.296 68.9815 78.352 68.8215 78.352H65.8215V83.104C65.8215 83.712 65.9255 84.192 66.1335 84.544C66.3575 84.88 66.7415 85.048 67.2855 85.048H69.0375C69.1975 85.048 69.3335 85.104 69.4455 85.216C69.5575 85.328 69.6135 85.464 69.6135 85.624V87.4C69.6135 87.576 69.5575 87.72 69.4455 87.832C69.3335 87.944 69.1975 88 69.0375 88H66.9495Z" fill="#141F25"/>
<rect width="4" height="23" fill="url(#paint0_linear_71_24)"/>
<rect x="4" width="92" height="23" fill="#E8E8E8" fill-opacity="0.5"/>
<path d="M16.682 16C16.5887 16 16.5093 15.972 16.444 15.916C16.388 15.8507 16.36 15.7713 16.36 15.678V7.446H13.672C13.5787 7.446 13.4993 7.418 13.434 7.362C13.378 7.29667 13.35 7.21733 13.35 7.124V6.536C13.35 6.43333 13.378 6.354 13.434 6.298C13.4993 6.23267 13.5787 6.2 13.672 6.2H20.42C20.5227 6.2 20.602 6.23267 20.658 6.298C20.7233 6.354 20.756 6.43333 20.756 6.536V7.124C20.756 7.21733 20.7233 7.29667 20.658 7.362C20.602 7.418 20.5227 7.446 20.42 7.446H17.746V15.678C17.746 15.7713 17.7133 15.8507 17.648 15.916C17.592 15.972 17.5127 16 17.41 16H16.682ZM23.7016 16.14C22.7402 16.14 21.9749 15.846 21.4056 15.258C20.8362 14.6607 20.5236 13.8487 20.4676 12.822C20.4582 12.7007 20.4536 12.5467 20.4536 12.36C20.4536 12.164 20.4582 12.0053 20.4676 11.884C20.5049 11.2213 20.6589 10.6427 20.9296 10.148C21.2002 9.644 21.5689 9.25667 22.0356 8.986C22.5116 8.71533 23.0669 8.58 23.7016 8.58C24.4109 8.58 25.0036 8.72933 25.4796 9.028C25.9649 9.32667 26.3336 9.75133 26.5856 10.302C26.8376 10.8527 26.9636 11.4967 26.9636 12.234V12.472C26.9636 12.5747 26.9309 12.654 26.8656 12.71C26.8096 12.766 26.7349 12.794 26.6416 12.794H21.7976C21.7976 12.8033 21.7976 12.822 21.7976 12.85C21.7976 12.878 21.7976 12.9013 21.7976 12.92C21.8162 13.3027 21.9002 13.662 22.0496 13.998C22.1989 14.3247 22.4136 14.5907 22.6936 14.796C22.9736 15.0013 23.3096 15.104 23.7016 15.104C24.0376 15.104 24.3176 15.0527 24.5416 14.95C24.7656 14.8473 24.9476 14.7353 25.0876 14.614C25.2276 14.4833 25.3209 14.3853 25.3676 14.32C25.4516 14.1987 25.5169 14.1287 25.5636 14.11C25.6102 14.082 25.6849 14.068 25.7876 14.068H26.4596C26.5529 14.068 26.6276 14.096 26.6836 14.152C26.7489 14.1987 26.7769 14.2687 26.7676 14.362C26.7582 14.502 26.6836 14.6747 26.5436 14.88C26.4036 15.076 26.2029 15.272 25.9416 15.468C25.6802 15.664 25.3629 15.8273 24.9896 15.958C24.6162 16.0793 24.1869 16.14 23.7016 16.14ZM21.7976 11.828H25.6336V11.786C25.6336 11.366 25.5542 10.9927 25.3956 10.666C25.2462 10.3393 25.0269 10.0827 24.7376 9.896C24.4482 9.7 24.1029 9.602 23.7016 9.602C23.3002 9.602 22.9549 9.7 22.6656 9.896C22.3856 10.0827 22.1709 10.3393 22.0216 10.666C21.8722 10.9927 21.7976 11.366 21.7976 11.786V11.828ZM28.9596 16C28.8662 16 28.7869 15.972 28.7216 15.916C28.6656 15.8507 28.6376 15.7713 28.6376 15.678V9.042C28.6376 8.94867 28.6656 8.874 28.7216 8.818C28.7869 8.75267 28.8662 8.72 28.9596 8.72H29.6176C29.7109 8.72 29.7856 8.75267 29.8416 8.818C29.9069 8.874 29.9396 8.94867 29.9396 9.042V9.658C30.1822 9.34067 30.4856 9.084 30.8496 8.888C31.2229 8.68267 31.6989 8.58 32.2776 8.58C32.8842 8.58 33.3976 8.71533 33.8176 8.986C34.2469 9.24733 34.5689 9.616 34.7836 10.092C34.9982 10.5587 35.1056 11.1047 35.1056 11.73V15.678C35.1056 15.7713 35.0776 15.8507 35.0216 15.916C34.9656 15.972 34.8909 16 34.7976 16H34.0976C34.0042 16 33.9249 15.972 33.8596 15.916C33.8036 15.8507 33.7756 15.7713 33.7756 15.678V11.8C33.7756 11.1467 33.6169 10.638 33.2996 10.274C32.9822 9.90067 32.5156 9.714 31.8996 9.714C31.3209 9.714 30.8542 9.90067 30.4996 10.274C30.1542 10.638 29.9816 11.1467 29.9816 11.8V15.678C29.9816 15.7713 29.9489 15.8507 29.8836 15.916C29.8276 15.972 29.7529 16 29.6596 16H28.9596ZM39.8741 16C39.3514 16 38.9268 15.902 38.6001 15.706C38.2734 15.5007 38.0354 15.216 37.8861 14.852C37.7368 14.4787 37.6621 14.04 37.6621 13.536V9.84H36.5701C36.4768 9.84 36.3974 9.812 36.3321 9.756C36.2761 9.69067 36.2481 9.61133 36.2481 9.518V9.042C36.2481 8.94867 36.2761 8.874 36.3321 8.818C36.3974 8.75267 36.4768 8.72 36.5701 8.72H37.6621V6.382C37.6621 6.28867 37.6901 6.214 37.7461 6.158C37.8114 6.09267 37.8908 6.06 37.9841 6.06H38.6421C38.7354 6.06 38.8101 6.09267 38.8661 6.158C38.9314 6.214 38.9641 6.28867 38.9641 6.382V8.72H40.7001C40.7934 8.72 40.8681 8.75267 40.9241 8.818C40.9894 8.874 41.0221 8.94867 41.0221 9.042V9.518C41.0221 9.61133 40.9894 9.69067 40.9241 9.756C40.8681 9.812 40.7934 9.84 40.7001 9.84H38.9641V13.438C38.9641 13.8767 39.0388 14.222 39.1881 14.474C39.3374 14.726 39.6034 14.852 39.9861 14.852H40.8401C40.9334 14.852 41.0081 14.8847 41.0641 14.95C41.1294 15.006 41.1621 15.0807 41.1621 15.174V15.678C41.1621 15.7713 41.1294 15.8507 41.0641 15.916C41.0081 15.972 40.9334 16 40.8401 16H39.8741ZM44.5308 16.14C44.0642 16.14 43.6395 16.0467 43.2568 15.86C42.8742 15.6733 42.5662 15.4213 42.3328 15.104C42.0995 14.7867 41.9828 14.4273 41.9828 14.026C41.9828 13.382 42.2442 12.8687 42.7668 12.486C43.2895 12.1033 43.9708 11.8513 44.8108 11.73L46.8968 11.436V11.03C46.8968 10.582 46.7662 10.232 46.5048 9.98C46.2528 9.728 45.8375 9.602 45.2588 9.602C44.8388 9.602 44.4982 9.686 44.2368 9.854C43.9848 10.022 43.8075 10.2367 43.7048 10.498C43.6488 10.638 43.5508 10.708 43.4108 10.708H42.7808C42.6782 10.708 42.5988 10.68 42.5428 10.624C42.4962 10.5587 42.4728 10.484 42.4728 10.4C42.4728 10.26 42.5242 10.0873 42.6268 9.882C42.7388 9.67667 42.9068 9.476 43.1308 9.28C43.3548 9.084 43.6395 8.92067 43.9848 8.79C44.3395 8.65 44.7688 8.58 45.2728 8.58C45.8328 8.58 46.3042 8.65467 46.6868 8.804C47.0695 8.944 47.3682 9.13533 47.5828 9.378C47.8068 9.62067 47.9655 9.896 48.0588 10.204C48.1615 10.512 48.2128 10.8247 48.2128 11.142V15.678C48.2128 15.7713 48.1802 15.8507 48.1148 15.916C48.0588 15.972 47.9842 16 47.8908 16H47.2468C47.1442 16 47.0648 15.972 47.0088 15.916C46.9528 15.8507 46.9248 15.7713 46.9248 15.678V15.076C46.8035 15.244 46.6402 15.412 46.4348 15.58C46.2295 15.7387 45.9728 15.874 45.6648 15.986C45.3568 16.0887 44.9788 16.14 44.5308 16.14ZM44.8248 15.09C45.2075 15.09 45.5575 15.0107 45.8748 14.852C46.1922 14.684 46.4395 14.4273 46.6168 14.082C46.8035 13.7367 46.8968 13.3027 46.8968 12.78V12.388L45.2728 12.626C44.6102 12.7193 44.1108 12.878 43.7748 13.102C43.4388 13.3167 43.2708 13.592 43.2708 13.928C43.2708 14.1893 43.3455 14.4087 43.4948 14.586C43.6535 14.754 43.8495 14.88 44.0828 14.964C44.3255 15.048 44.5728 15.09 44.8248 15.09ZM50.5475 16C50.4541 16 50.3748 15.972 50.3095 15.916C50.2535 15.8507 50.2255 15.7713 50.2255 15.678V9.042C50.2255 8.94867 50.2535 8.874 50.3095 8.818C50.3748 8.75267 50.4541 8.72 50.5475 8.72H51.2055C51.2988 8.72 51.3735 8.75267 51.4295 8.818C51.4948 8.874 51.5275 8.94867 51.5275 9.042V9.658C51.7701 9.34067 52.0735 9.084 52.4375 8.888C52.8108 8.68267 53.2868 8.58 53.8655 8.58C54.4721 8.58 54.9855 8.71533 55.4055 8.986C55.8348 9.24733 56.1568 9.616 56.3715 10.092C56.5861 10.5587 56.6935 11.1047 56.6935 11.73V15.678C56.6935 15.7713 56.6655 15.8507 56.6095 15.916C56.5535 15.972 56.4788 16 56.3855 16H55.6855C55.5921 16 55.5128 15.972 55.4475 15.916C55.3915 15.8507 55.3635 15.7713 55.3635 15.678V11.8C55.3635 11.1467 55.2048 10.638 54.8875 10.274C54.5701 9.90067 54.1035 9.714 53.4875 9.714C52.9088 9.714 52.4421 9.90067 52.0875 10.274C51.7421 10.638 51.5695 11.1467 51.5695 11.8V15.678C51.5695 15.7713 51.5368 15.8507 51.4715 15.916C51.4155 15.972 51.3408 16 51.2475 16H50.5475ZM61.6977 19.08C61.063 19.08 60.5404 18.996 60.1297 18.828C59.7284 18.66 59.411 18.4547 59.1777 18.212C58.9537 17.9787 58.7904 17.7407 58.6877 17.498C58.5944 17.2647 58.543 17.078 58.5337 16.938C58.5244 16.8447 58.5524 16.7653 58.6177 16.7C58.6924 16.6347 58.7717 16.602 58.8557 16.602H59.5277C59.6117 16.602 59.6817 16.6207 59.7377 16.658C59.7937 16.6953 59.8404 16.7747 59.8777 16.896C59.9337 17.036 60.0177 17.19 60.1297 17.358C60.2417 17.5353 60.4144 17.6847 60.6477 17.806C60.881 17.9367 61.2077 18.002 61.6277 18.002C62.0664 18.002 62.435 17.9413 62.7337 17.82C63.0324 17.708 63.2564 17.5027 63.4057 17.204C63.5644 16.9147 63.6437 16.5133 63.6437 16V15.048C63.4197 15.3373 63.1257 15.58 62.7617 15.776C62.3977 15.9627 61.9404 16.056 61.3897 16.056C60.867 16.056 60.419 15.9673 60.0457 15.79C59.6724 15.6033 59.3644 15.356 59.1217 15.048C58.8884 14.7307 58.711 14.3713 58.5897 13.97C58.4777 13.5687 58.4124 13.1487 58.3937 12.71C58.3844 12.4487 58.3844 12.192 58.3937 11.94C58.4124 11.5013 58.4777 11.0813 58.5897 10.68C58.711 10.2787 58.8884 9.91933 59.1217 9.602C59.3644 9.28467 59.6724 9.03733 60.0457 8.86C60.419 8.67333 60.867 8.58 61.3897 8.58C61.9497 8.58 62.4117 8.68733 62.7757 8.902C63.149 9.10733 63.4524 9.35933 63.6857 9.658V9.056C63.6857 8.96267 63.7137 8.88333 63.7697 8.818C63.835 8.75267 63.9144 8.72 64.0077 8.72H64.6517C64.745 8.72 64.8244 8.75267 64.8897 8.818C64.955 8.88333 64.9877 8.96267 64.9877 9.056V15.846C64.9877 16.4713 64.8804 17.0267 64.6657 17.512C64.4604 17.9973 64.115 18.38 63.6297 18.66C63.1537 18.94 62.5097 19.08 61.6977 19.08ZM61.6697 14.936C62.1364 14.936 62.5097 14.8287 62.7897 14.614C63.079 14.3993 63.289 14.1287 63.4197 13.802C63.5597 13.4753 63.6344 13.144 63.6437 12.808C63.653 12.6773 63.6577 12.5187 63.6577 12.332C63.6577 12.136 63.653 11.9727 63.6437 11.842C63.6344 11.506 63.5597 11.1747 63.4197 10.848C63.289 10.5213 63.079 10.2507 62.7897 10.036C62.5097 9.82133 62.1364 9.714 61.6697 9.714C61.203 9.714 60.8297 9.82133 60.5497 10.036C60.2697 10.2413 60.069 10.5167 59.9477 10.862C59.8264 11.198 59.7564 11.562 59.7377 11.954C59.7284 12.1967 59.7284 12.444 59.7377 12.696C59.7564 13.088 59.8264 13.4567 59.9477 13.802C60.069 14.138 60.2697 14.4133 60.5497 14.628C60.8297 14.8333 61.203 14.936 61.6697 14.936Z" fill="#141F25"/>
<defs>
<linearGradient id="paint0_linear_71_24" x1="-0.113402" y1="4.98333" x2="4.94324" y2="5.04578" gradientUnits="userSpaceOnUse">
<stop stop-color="#FFB629"/>
<stop offset="0.507189" stop-color="#FFDA56"/>
<stop offset="1" stop-color="#FFD7A6"/>
</linearGradient>
</defs>
</svg>
