<svg width="132" height="23" viewBox="0 0 132 23" fill="none" xmlns="http://www.w3.org/2000/svg">
<rect x="0.5" width="4" height="23" fill="url(#paint0_linear_1_276)"/>
<rect width="127" height="23" transform="translate(4.5)" fill="#E8E8E8" fill-opacity="0.5"/>
<path d="M16.557 16C16.4637 16 16.3843 15.972 16.319 15.916C16.263 15.8507 16.235 15.7713 16.235 15.678V7.446H13.547C13.4537 7.446 13.3743 7.418 13.309 7.362C13.253 7.29667 13.225 7.21733 13.225 7.124V6.536C13.225 6.43333 13.253 6.354 13.309 6.298C13.3743 6.23267 13.4537 6.2 13.547 6.2H20.295C20.3977 6.2 20.477 6.23267 20.533 6.298C20.5983 6.354 20.631 6.43333 20.631 6.536V7.124C20.631 7.21733 20.5983 7.29667 20.533 7.362C20.477 7.418 20.3977 7.446 20.295 7.446H17.621V15.678C17.621 15.7713 17.5883 15.8507 17.523 15.916C17.467 15.972 17.3877 16 17.285 16H16.557ZM22.0673 16C21.974 16 21.8946 15.972 21.8293 15.916C21.7733 15.8507 21.7453 15.7713 21.7453 15.678V6.382C21.7453 6.28867 21.7733 6.214 21.8293 6.158C21.8946 6.09267 21.974 6.06 22.0673 6.06H22.7673C22.87 6.06 22.9493 6.09267 23.0053 6.158C23.0613 6.214 23.0893 6.28867 23.0893 6.382V9.644C23.3413 9.32667 23.6493 9.07 24.0133 8.874C24.3773 8.678 24.8393 8.58 25.3993 8.58C26.006 8.58 26.5193 8.71533 26.9393 8.986C27.3686 9.24733 27.6906 9.616 27.9053 10.092C28.1293 10.5587 28.2413 11.1047 28.2413 11.73V15.678C28.2413 15.7713 28.2133 15.8507 28.1573 15.916C28.1013 15.972 28.022 16 27.9193 16H27.2193C27.126 16 27.0466 15.972 26.9813 15.916C26.9253 15.8507 26.8973 15.7713 26.8973 15.678V11.8C26.8973 11.1467 26.7386 10.638 26.4213 10.274C26.104 9.90067 25.6373 9.714 25.0213 9.714C24.4426 9.714 23.976 9.90067 23.6213 10.274C23.2666 10.638 23.0893 11.1467 23.0893 11.8V15.678C23.0893 15.7713 23.0613 15.8507 23.0053 15.916C22.9493 15.972 22.87 16 22.7673 16H22.0673ZM33.1606 16.14C32.1992 16.14 31.4339 15.846 30.8646 15.258C30.2952 14.6607 29.9826 13.8487 29.9266 12.822C29.9172 12.7007 29.9126 12.5467 29.9126 12.36C29.9126 12.164 29.9172 12.0053 29.9266 11.884C29.9639 11.2213 30.1179 10.6427 30.3886 10.148C30.6592 9.644 31.0279 9.25667 31.4946 8.986C31.9706 8.71533 32.5259 8.58 33.1606 8.58C33.8699 8.58 34.4626 8.72933 34.9386 9.028C35.4239 9.32667 35.7926 9.75133 36.0446 10.302C36.2966 10.8527 36.4226 11.4967 36.4226 12.234V12.472C36.4226 12.5747 36.3899 12.654 36.3246 12.71C36.2686 12.766 36.1939 12.794 36.1006 12.794H31.2566C31.2566 12.8033 31.2566 12.822 31.2566 12.85C31.2566 12.878 31.2566 12.9013 31.2566 12.92C31.2752 13.3027 31.3592 13.662 31.5086 13.998C31.6579 14.3247 31.8726 14.5907 32.1526 14.796C32.4326 15.0013 32.7686 15.104 33.1606 15.104C33.4966 15.104 33.7766 15.0527 34.0006 14.95C34.2246 14.8473 34.4066 14.7353 34.5466 14.614C34.6866 14.4833 34.7799 14.3853 34.8266 14.32C34.9106 14.1987 34.9759 14.1287 35.0226 14.11C35.0692 14.082 35.1439 14.068 35.2466 14.068H35.9186C36.0119 14.068 36.0866 14.096 36.1426 14.152C36.2079 14.1987 36.2359 14.2687 36.2266 14.362C36.2172 14.502 36.1426 14.6747 36.0026 14.88C35.8626 15.076 35.6619 15.272 35.4006 15.468C35.1392 15.664 34.8219 15.8273 34.4486 15.958C34.0752 16.0793 33.6459 16.14 33.1606 16.14ZM31.2566 11.828H35.0926V11.786C35.0926 11.366 35.0132 10.9927 34.8546 10.666C34.7052 10.3393 34.4859 10.0827 34.1966 9.896C33.9072 9.7 33.5619 9.602 33.1606 9.602C32.7592 9.602 32.4139 9.7 32.1246 9.896C31.8446 10.0827 31.6299 10.3393 31.4806 10.666C31.3312 10.9927 31.2566 11.366 31.2566 11.786V11.828ZM43.8187 16C43.7254 16 43.6461 15.972 43.5807 15.916C43.5247 15.8507 43.4967 15.7713 43.4967 15.678V7.446H40.8087C40.7154 7.446 40.6361 7.418 40.5707 7.362C40.5147 7.29667 40.4867 7.21733 40.4867 7.124V6.536C40.4867 6.43333 40.5147 6.354 40.5707 6.298C40.6361 6.23267 40.7154 6.2 40.8087 6.2H47.5567C47.6594 6.2 47.7387 6.23267 47.7947 6.298C47.8601 6.354 47.8927 6.43333 47.8927 6.536V7.124C47.8927 7.21733 47.8601 7.29667 47.7947 7.362C47.7387 7.418 47.6594 7.446 47.5567 7.446H44.8827V15.678C44.8827 15.7713 44.8501 15.8507 44.7847 15.916C44.7287 15.972 44.6494 16 44.5467 16H43.8187ZM48.4674 16C48.374 16 48.2947 15.972 48.2294 15.916C48.1734 15.8507 48.1454 15.7713 48.1454 15.678V9.056C48.1454 8.96267 48.1734 8.88333 48.2294 8.818C48.2947 8.75267 48.374 8.72 48.4674 8.72H49.1114C49.2047 8.72 49.284 8.75267 49.3494 8.818C49.4147 8.88333 49.4474 8.96267 49.4474 9.056V9.672C49.634 9.35467 49.8907 9.11667 50.2174 8.958C50.544 8.79933 50.936 8.72 51.3934 8.72H51.9534C52.0467 8.72 52.1214 8.75267 52.1774 8.818C52.2334 8.874 52.2614 8.94867 52.2614 9.042V9.616C52.2614 9.70933 52.2334 9.784 52.1774 9.84C52.1214 9.896 52.0467 9.924 51.9534 9.924H51.1134C50.6094 9.924 50.2127 10.0733 49.9234 10.372C49.634 10.6613 49.4894 11.058 49.4894 11.562V15.678C49.4894 15.7713 49.4567 15.8507 49.3914 15.916C49.326 15.972 49.2467 16 49.1534 16H48.4674ZM55.3844 16.14C54.9177 16.14 54.493 16.0467 54.1104 15.86C53.7277 15.6733 53.4197 15.4213 53.1864 15.104C52.953 14.7867 52.8364 14.4273 52.8364 14.026C52.8364 13.382 53.0977 12.8687 53.6204 12.486C54.143 12.1033 54.8244 11.8513 55.6644 11.73L57.7504 11.436V11.03C57.7504 10.582 57.6197 10.232 57.3584 9.98C57.1064 9.728 56.691 9.602 56.1124 9.602C55.6924 9.602 55.3517 9.686 55.0904 9.854C54.8384 10.022 54.661 10.2367 54.5584 10.498C54.5024 10.638 54.4044 10.708 54.2644 10.708H53.6344C53.5317 10.708 53.4524 10.68 53.3964 10.624C53.3497 10.5587 53.3264 10.484 53.3264 10.4C53.3264 10.26 53.3777 10.0873 53.4804 9.882C53.5924 9.67667 53.7604 9.476 53.9844 9.28C54.2084 9.084 54.493 8.92067 54.8384 8.79C55.193 8.65 55.6224 8.58 56.1264 8.58C56.6864 8.58 57.1577 8.65467 57.5404 8.804C57.923 8.944 58.2217 9.13533 58.4364 9.378C58.6604 9.62067 58.819 9.896 58.9124 10.204C59.015 10.512 59.0664 10.8247 59.0664 11.142V15.678C59.0664 15.7713 59.0337 15.8507 58.9684 15.916C58.9124 15.972 58.8377 16 58.7444 16H58.1004C57.9977 16 57.9184 15.972 57.8624 15.916C57.8064 15.8507 57.7784 15.7713 57.7784 15.678V15.076C57.657 15.244 57.4937 15.412 57.2884 15.58C57.083 15.7387 56.8264 15.874 56.5184 15.986C56.2104 16.0887 55.8324 16.14 55.3844 16.14ZM55.6784 15.09C56.061 15.09 56.411 15.0107 56.7284 14.852C57.0457 14.684 57.293 14.4273 57.4704 14.082C57.657 13.7367 57.7504 13.3027 57.7504 12.78V12.388L56.1264 12.626C55.4637 12.7193 54.9644 12.878 54.6284 13.102C54.2924 13.3167 54.1244 13.592 54.1244 13.928C54.1244 14.1893 54.199 14.4087 54.3484 14.586C54.507 14.754 54.703 14.88 54.9364 14.964C55.179 15.048 55.4264 15.09 55.6784 15.09ZM61.401 16C61.3076 16 61.2283 15.972 61.163 15.916C61.107 15.8507 61.079 15.7713 61.079 15.678V9.042C61.079 8.94867 61.107 8.874 61.163 8.818C61.2283 8.75267 61.3076 8.72 61.401 8.72H62.059C62.1523 8.72 62.227 8.75267 62.283 8.818C62.3483 8.874 62.381 8.94867 62.381 9.042V9.658C62.6236 9.34067 62.927 9.084 63.291 8.888C63.6643 8.68267 64.1403 8.58 64.719 8.58C65.3256 8.58 65.839 8.71533 66.259 8.986C66.6883 9.24733 67.0103 9.616 67.225 10.092C67.4396 10.5587 67.547 11.1047 67.547 11.73V15.678C67.547 15.7713 67.519 15.8507 67.463 15.916C67.407 15.972 67.3323 16 67.239 16H66.539C66.4456 16 66.3663 15.972 66.301 15.916C66.245 15.8507 66.217 15.7713 66.217 15.678V11.8C66.217 11.1467 66.0583 10.638 65.741 10.274C65.4236 9.90067 64.957 9.714 64.341 9.714C63.7623 9.714 63.2956 9.90067 62.941 10.274C62.5956 10.638 62.423 11.1467 62.423 11.8V15.678C62.423 15.7713 62.3903 15.8507 62.325 15.916C62.269 15.972 62.1943 16 62.101 16H61.401ZM72.0892 16.14C71.5665 16.14 71.1185 16.0747 70.7452 15.944C70.3719 15.8133 70.0685 15.6547 69.8352 15.468C69.6019 15.2813 69.4245 15.0947 69.3032 14.908C69.1912 14.7213 69.1305 14.572 69.1212 14.46C69.1119 14.3573 69.1445 14.278 69.2192 14.222C69.2939 14.166 69.3685 14.138 69.4432 14.138H70.0592C70.1152 14.138 70.1572 14.1473 70.1852 14.166C70.2225 14.1753 70.2692 14.2127 70.3252 14.278C70.4465 14.4087 70.5819 14.5393 70.7312 14.67C70.8805 14.8007 71.0625 14.908 71.2772 14.992C71.5012 15.076 71.7765 15.118 72.1032 15.118C72.5792 15.118 72.9712 15.0293 73.2792 14.852C73.5872 14.6653 73.7412 14.3947 73.7412 14.04C73.7412 13.8067 73.6759 13.62 73.5452 13.48C73.4239 13.34 73.1999 13.214 72.8732 13.102C72.5559 12.99 72.1172 12.8733 71.5572 12.752C70.9972 12.6213 70.5539 12.4627 70.2272 12.276C69.9005 12.08 69.6672 11.8513 69.5272 11.59C69.3872 11.3193 69.3172 11.016 69.3172 10.68C69.3172 10.3347 69.4199 10.0033 69.6252 9.686C69.8305 9.35933 70.1292 9.09333 70.5212 8.888C70.9225 8.68267 71.4219 8.58 72.0192 8.58C72.5045 8.58 72.9199 8.64067 73.2652 8.762C73.6105 8.88333 73.8952 9.03733 74.1192 9.224C74.3432 9.40133 74.5112 9.57867 74.6232 9.756C74.7352 9.93333 74.7959 10.0827 74.8052 10.204C74.8145 10.2973 74.7865 10.3767 74.7212 10.442C74.6559 10.498 74.5812 10.526 74.4972 10.526H73.9092C73.8439 10.526 73.7879 10.512 73.7412 10.484C73.7039 10.456 73.6665 10.4233 73.6292 10.386C73.5359 10.2647 73.4239 10.1433 73.2932 10.022C73.1719 9.90067 73.0085 9.80267 72.8032 9.728C72.6072 9.644 72.3459 9.602 72.0192 9.602C71.5525 9.602 71.2025 9.7 70.9692 9.896C70.7359 10.092 70.6192 10.3393 70.6192 10.638C70.6192 10.8153 70.6705 10.974 70.7732 11.114C70.8759 11.254 71.0719 11.38 71.3612 11.492C71.6505 11.604 72.0799 11.7253 72.6492 11.856C73.2652 11.9773 73.7505 12.1407 74.1052 12.346C74.4599 12.5513 74.7119 12.7893 74.8612 13.06C75.0105 13.3307 75.0852 13.6433 75.0852 13.998C75.0852 14.39 74.9685 14.7493 74.7352 15.076C74.5112 15.4027 74.1752 15.664 73.7272 15.86C73.2885 16.0467 72.7425 16.14 72.0892 16.14ZM77.0419 18.66C76.9486 18.66 76.8693 18.6273 76.8039 18.562C76.7479 18.506 76.7199 18.4313 76.7199 18.338V9.042C76.7199 8.94867 76.7479 8.874 76.8039 8.818C76.8693 8.75267 76.9486 8.72 77.0419 8.72H77.6859C77.7793 8.72 77.8539 8.75267 77.9099 8.818C77.9753 8.874 78.0079 8.94867 78.0079 9.042V9.658C78.2319 9.35 78.5306 9.09333 78.9039 8.888C79.2773 8.68267 79.7439 8.58 80.3039 8.58C80.8266 8.58 81.2699 8.66867 81.6339 8.846C82.0073 9.02333 82.3106 9.266 82.5439 9.574C82.7866 9.882 82.9686 10.232 83.0899 10.624C83.2113 11.016 83.2766 11.436 83.2859 11.884C83.2953 12.0333 83.2999 12.192 83.2999 12.36C83.2999 12.528 83.2953 12.6867 83.2859 12.836C83.2766 13.2747 83.2113 13.6947 83.0899 14.096C82.9686 14.488 82.7866 14.838 82.5439 15.146C82.3106 15.4447 82.0073 15.6873 81.6339 15.874C81.2699 16.0513 80.8266 16.14 80.3039 16.14C79.7626 16.14 79.3053 16.042 78.9319 15.846C78.5679 15.6407 78.2693 15.3887 78.0359 15.09V18.338C78.0359 18.4313 78.0079 18.506 77.9519 18.562C77.8959 18.6273 77.8166 18.66 77.7139 18.66H77.0419ZM80.0099 15.006C80.4953 15.006 80.8733 14.9033 81.1439 14.698C81.4239 14.4833 81.6246 14.208 81.7459 13.872C81.8673 13.5267 81.9373 13.158 81.9559 12.766C81.9653 12.4953 81.9653 12.2247 81.9559 11.954C81.9373 11.562 81.8673 11.198 81.7459 10.862C81.6246 10.5167 81.4239 10.2413 81.1439 10.036C80.8733 9.82133 80.4953 9.714 80.0099 9.714C79.5526 9.714 79.1793 9.82133 78.8899 10.036C78.6099 10.2507 78.3999 10.526 78.2599 10.862C78.1293 11.1887 78.0546 11.5247 78.0359 11.87C78.0266 12.0193 78.0219 12.1967 78.0219 12.402C78.0219 12.6073 78.0266 12.7893 78.0359 12.948C78.0453 13.2747 78.1199 13.5967 78.2599 13.914C78.4093 14.2313 78.6286 14.4927 78.9179 14.698C79.2073 14.9033 79.5713 15.006 80.0099 15.006ZM88.0278 16.14C87.3184 16.14 86.7258 16.0047 86.2498 15.734C85.7738 15.4633 85.4098 15.09 85.1578 14.614C84.9058 14.1287 84.7658 13.578 84.7378 12.962C84.7284 12.8033 84.7238 12.6027 84.7238 12.36C84.7238 12.108 84.7284 11.9073 84.7378 11.758C84.7658 11.1327 84.9058 10.582 85.1578 10.106C85.4191 9.63 85.7878 9.25667 86.2638 8.986C86.7398 8.71533 87.3278 8.58 88.0278 8.58C88.7278 8.58 89.3158 8.71533 89.7918 8.986C90.2678 9.25667 90.6318 9.63 90.8838 10.106C91.1451 10.582 91.2898 11.1327 91.3178 11.758C91.3271 11.9073 91.3318 12.108 91.3318 12.36C91.3318 12.6027 91.3271 12.8033 91.3178 12.962C91.2898 13.578 91.1498 14.1287 90.8978 14.614C90.6458 15.09 90.2818 15.4633 89.8058 15.734C89.3298 16.0047 88.7371 16.14 88.0278 16.14ZM88.0278 15.062C88.6064 15.062 89.0684 14.88 89.4138 14.516C89.7591 14.1427 89.9458 13.6013 89.9738 12.892C89.9831 12.752 89.9878 12.5747 89.9878 12.36C89.9878 12.1453 89.9831 11.968 89.9738 11.828C89.9458 11.1187 89.7591 10.582 89.4138 10.218C89.0684 9.84467 88.6064 9.658 88.0278 9.658C87.4491 9.658 86.9824 9.84467 86.6278 10.218C86.2824 10.582 86.1004 11.1187 86.0818 11.828C86.0724 11.968 86.0678 12.1453 86.0678 12.36C86.0678 12.5747 86.0724 12.752 86.0818 12.892C86.1004 13.6013 86.2824 14.1427 86.6278 14.516C86.9824 14.88 87.4491 15.062 88.0278 15.062ZM93.4068 16C93.3135 16 93.2342 15.972 93.1688 15.916C93.1128 15.8507 93.0848 15.7713 93.0848 15.678V9.056C93.0848 8.96267 93.1128 8.88333 93.1688 8.818C93.2342 8.75267 93.3135 8.72 93.4068 8.72H94.0508C94.1442 8.72 94.2235 8.75267 94.2888 8.818C94.3542 8.88333 94.3868 8.96267 94.3868 9.056V9.672C94.5735 9.35467 94.8302 9.11667 95.1568 8.958C95.4835 8.79933 95.8755 8.72 96.3328 8.72H96.8928C96.9862 8.72 97.0608 8.75267 97.1168 8.818C97.1728 8.874 97.2008 8.94867 97.2008 9.042V9.616C97.2008 9.70933 97.1728 9.784 97.1168 9.84C97.0608 9.896 96.9862 9.924 96.8928 9.924H96.0528C95.5488 9.924 95.1522 10.0733 94.8628 10.372C94.5735 10.6613 94.4288 11.058 94.4288 11.562V15.678C94.4288 15.7713 94.3962 15.8507 94.3308 15.916C94.2655 15.972 94.1862 16 94.0928 16H93.4068ZM101.245 16C100.723 16 100.298 15.902 99.9712 15.706C99.6445 15.5007 99.4065 15.216 99.2572 14.852C99.1079 14.4787 99.0332 14.04 99.0332 13.536V9.84H97.9412C97.8479 9.84 97.7685 9.812 97.7032 9.756C97.6472 9.69067 97.6192 9.61133 97.6192 9.518V9.042C97.6192 8.94867 97.6472 8.874 97.7032 8.818C97.7685 8.75267 97.8479 8.72 97.9412 8.72H99.0332V6.382C99.0332 6.28867 99.0612 6.214 99.1172 6.158C99.1825 6.09267 99.2619 6.06 99.3552 6.06H100.013C100.107 6.06 100.181 6.09267 100.237 6.158C100.303 6.214 100.335 6.28867 100.335 6.382V8.72H102.071C102.165 8.72 102.239 8.75267 102.295 8.818C102.361 8.874 102.393 8.94867 102.393 9.042V9.518C102.393 9.61133 102.361 9.69067 102.295 9.756C102.239 9.812 102.165 9.84 102.071 9.84H100.335V13.438C100.335 13.8767 100.41 14.222 100.559 14.474C100.709 14.726 100.975 14.852 101.357 14.852H102.211C102.305 14.852 102.379 14.8847 102.435 14.95C102.501 15.006 102.533 15.0807 102.533 15.174V15.678C102.533 15.7713 102.501 15.8507 102.435 15.916C102.379 15.972 102.305 16 102.211 16H101.245ZM106.77 16.14C105.809 16.14 105.043 15.846 104.474 15.258C103.905 14.6607 103.592 13.8487 103.536 12.822C103.527 12.7007 103.522 12.5467 103.522 12.36C103.522 12.164 103.527 12.0053 103.536 11.884C103.573 11.2213 103.727 10.6427 103.998 10.148C104.269 9.644 104.637 9.25667 105.104 8.986C105.58 8.71533 106.135 8.58 106.77 8.58C107.479 8.58 108.072 8.72933 108.548 9.028C109.033 9.32667 109.402 9.75133 109.654 10.302C109.906 10.8527 110.032 11.4967 110.032 12.234V12.472C110.032 12.5747 109.999 12.654 109.934 12.71C109.878 12.766 109.803 12.794 109.71 12.794H104.866C104.866 12.8033 104.866 12.822 104.866 12.85C104.866 12.878 104.866 12.9013 104.866 12.92C104.885 13.3027 104.969 13.662 105.118 13.998C105.267 14.3247 105.482 14.5907 105.762 14.796C106.042 15.0013 106.378 15.104 106.77 15.104C107.106 15.104 107.386 15.0527 107.61 14.95C107.834 14.8473 108.016 14.7353 108.156 14.614C108.296 14.4833 108.389 14.3853 108.436 14.32C108.52 14.1987 108.585 14.1287 108.632 14.11C108.679 14.082 108.753 14.068 108.856 14.068H109.528C109.621 14.068 109.696 14.096 109.752 14.152C109.817 14.1987 109.845 14.2687 109.836 14.362C109.827 14.502 109.752 14.6747 109.612 14.88C109.472 15.076 109.271 15.272 109.01 15.468C108.749 15.664 108.431 15.8273 108.058 15.958C107.685 16.0793 107.255 16.14 106.77 16.14ZM104.866 11.828H108.702V11.786C108.702 11.366 108.623 10.9927 108.464 10.666C108.315 10.3393 108.095 10.0827 107.806 9.896C107.517 9.7 107.171 9.602 106.77 9.602C106.369 9.602 106.023 9.7 105.734 9.896C105.454 10.0827 105.239 10.3393 105.09 10.666C104.941 10.9927 104.866 11.366 104.866 11.786V11.828ZM112.028 16C111.935 16 111.855 15.972 111.79 15.916C111.734 15.8507 111.706 15.7713 111.706 15.678V9.056C111.706 8.96267 111.734 8.88333 111.79 8.818C111.855 8.75267 111.935 8.72 112.028 8.72H112.672C112.765 8.72 112.845 8.75267 112.91 8.818C112.975 8.88333 113.008 8.96267 113.008 9.056V9.672C113.195 9.35467 113.451 9.11667 113.778 8.958C114.105 8.79933 114.497 8.72 114.954 8.72H115.514C115.607 8.72 115.682 8.75267 115.738 8.818C115.794 8.874 115.822 8.94867 115.822 9.042V9.616C115.822 9.70933 115.794 9.784 115.738 9.84C115.682 9.896 115.607 9.924 115.514 9.924H114.674C114.17 9.924 113.773 10.0733 113.484 10.372C113.195 10.6613 113.05 11.058 113.05 11.562V15.678C113.05 15.7713 113.017 15.8507 112.952 15.916C112.887 15.972 112.807 16 112.714 16H112.028ZM119.544 16.14C119.022 16.14 118.574 16.0747 118.2 15.944C117.827 15.8133 117.524 15.6547 117.29 15.468C117.057 15.2813 116.88 15.0947 116.758 14.908C116.646 14.7213 116.586 14.572 116.576 14.46C116.567 14.3573 116.6 14.278 116.674 14.222C116.749 14.166 116.824 14.138 116.898 14.138H117.514C117.57 14.138 117.612 14.1473 117.64 14.166C117.678 14.1753 117.724 14.2127 117.78 14.278C117.902 14.4087 118.037 14.5393 118.186 14.67C118.336 14.8007 118.518 14.908 118.732 14.992C118.956 15.076 119.232 15.118 119.558 15.118C120.034 15.118 120.426 15.0293 120.734 14.852C121.042 14.6653 121.196 14.3947 121.196 14.04C121.196 13.8067 121.131 13.62 121 13.48C120.879 13.34 120.655 13.214 120.328 13.102C120.011 12.99 119.572 12.8733 119.012 12.752C118.452 12.6213 118.009 12.4627 117.682 12.276C117.356 12.08 117.122 11.8513 116.982 11.59C116.842 11.3193 116.772 11.016 116.772 10.68C116.772 10.3347 116.875 10.0033 117.08 9.686C117.286 9.35933 117.584 9.09333 117.976 8.888C118.378 8.68267 118.877 8.58 119.474 8.58C119.96 8.58 120.375 8.64067 120.72 8.762C121.066 8.88333 121.35 9.03733 121.574 9.224C121.798 9.40133 121.966 9.57867 122.078 9.756C122.19 9.93333 122.251 10.0827 122.26 10.204C122.27 10.2973 122.242 10.3767 122.176 10.442C122.111 10.498 122.036 10.526 121.952 10.526H121.364C121.299 10.526 121.243 10.512 121.196 10.484C121.159 10.456 121.122 10.4233 121.084 10.386C120.991 10.2647 120.879 10.1433 120.748 10.022C120.627 9.90067 120.464 9.80267 120.258 9.728C120.062 9.644 119.801 9.602 119.474 9.602C119.008 9.602 118.658 9.7 118.424 9.896C118.191 10.092 118.074 10.3393 118.074 10.638C118.074 10.8153 118.126 10.974 118.228 11.114C118.331 11.254 118.527 11.38 118.816 11.492C119.106 11.604 119.535 11.7253 120.104 11.856C120.72 11.9773 121.206 12.1407 121.56 12.346C121.915 12.5513 122.167 12.7893 122.316 13.06C122.466 13.3307 122.54 13.6433 122.54 13.998C122.54 14.39 122.424 14.7493 122.19 15.076C121.966 15.4027 121.63 15.664 121.182 15.86C120.744 16.0467 120.198 16.14 119.544 16.14Z" fill="#141F25"/>
<defs>
<linearGradient id="paint0_linear_1_276" x1="0.386598" y1="4.98333" x2="5.44324" y2="5.04578" gradientUnits="userSpaceOnUse">
<stop stop-color="#FFB629"/>
<stop offset="0.507189" stop-color="#FFDA56"/>
<stop offset="1" stop-color="#FFD7A6"/>
</linearGradient>
</defs>
</svg>
