<svg width="86" height="23" viewBox="0 0 86 23" fill="none" xmlns="http://www.w3.org/2000/svg">
<rect width="4" height="23" fill="url(#paint0_linear_1_446)"/>
<rect width="82" height="23" transform="translate(4)" fill="#E8E8E8" fill-opacity="0.5"/>
<path d="M16.682 16C16.5887 16 16.5093 15.972 16.444 15.916C16.388 15.8507 16.36 15.7713 16.36 15.678V7.446H13.672C13.5787 7.446 13.4993 7.418 13.434 7.362C13.378 7.29667 13.35 7.21733 13.35 7.124V6.536C13.35 6.43333 13.378 6.354 13.434 6.298C13.4993 6.23267 13.5787 6.2 13.672 6.2H20.42C20.5227 6.2 20.602 6.23267 20.658 6.298C20.7233 6.354 20.756 6.43333 20.756 6.536V7.124C20.756 7.21733 20.7233 7.29667 20.658 7.362C20.602 7.418 20.5227 7.446 20.42 7.446H17.746V15.678C17.746 15.7713 17.7133 15.8507 17.648 15.916C17.592 15.972 17.5127 16 17.41 16H16.682ZM23.7016 16.14C22.7402 16.14 21.9749 15.846 21.4056 15.258C20.8362 14.6607 20.5236 13.8487 20.4676 12.822C20.4582 12.7007 20.4536 12.5467 20.4536 12.36C20.4536 12.164 20.4582 12.0053 20.4676 11.884C20.5049 11.2213 20.6589 10.6427 20.9296 10.148C21.2002 9.644 21.5689 9.25667 22.0356 8.986C22.5116 8.71533 23.0669 8.58 23.7016 8.58C24.4109 8.58 25.0036 8.72933 25.4796 9.028C25.9649 9.32667 26.3336 9.75133 26.5856 10.302C26.8376 10.8527 26.9636 11.4967 26.9636 12.234V12.472C26.9636 12.5747 26.9309 12.654 26.8656 12.71C26.8096 12.766 26.7349 12.794 26.6416 12.794H21.7976C21.7976 12.8033 21.7976 12.822 21.7976 12.85C21.7976 12.878 21.7976 12.9013 21.7976 12.92C21.8162 13.3027 21.9002 13.662 22.0496 13.998C22.1989 14.3247 22.4136 14.5907 22.6936 14.796C22.9736 15.0013 23.3096 15.104 23.7016 15.104C24.0376 15.104 24.3176 15.0527 24.5416 14.95C24.7656 14.8473 24.9476 14.7353 25.0876 14.614C25.2276 14.4833 25.3209 14.3853 25.3676 14.32C25.4516 14.1987 25.5169 14.1287 25.5636 14.11C25.6102 14.082 25.6849 14.068 25.7876 14.068H26.4596C26.5529 14.068 26.6276 14.096 26.6836 14.152C26.7489 14.1987 26.7769 14.2687 26.7676 14.362C26.7582 14.502 26.6836 14.6747 26.5436 14.88C26.4036 15.076 26.2029 15.272 25.9416 15.468C25.6802 15.664 25.3629 15.8273 24.9896 15.958C24.6162 16.0793 24.1869 16.14 23.7016 16.14ZM21.7976 11.828H25.6336V11.786C25.6336 11.366 25.5542 10.9927 25.3956 10.666C25.2462 10.3393 25.0269 10.0827 24.7376 9.896C24.4482 9.7 24.1029 9.602 23.7016 9.602C23.3002 9.602 22.9549 9.7 22.6656 9.896C22.3856 10.0827 22.1709 10.3393 22.0216 10.666C21.8722 10.9927 21.7976 11.366 21.7976 11.786V11.828ZM31.1576 16.14C30.6349 16.14 30.1869 16.0747 29.8136 15.944C29.4402 15.8133 29.1369 15.6547 28.9036 15.468C28.6702 15.2813 28.4929 15.0947 28.3716 14.908C28.2596 14.7213 28.1989 14.572 28.1896 14.46C28.1802 14.3573 28.2129 14.278 28.2876 14.222C28.3622 14.166 28.4369 14.138 28.5116 14.138H29.1276C29.1836 14.138 29.2256 14.1473 29.2536 14.166C29.2909 14.1753 29.3376 14.2127 29.3936 14.278C29.5149 14.4087 29.6502 14.5393 29.7996 14.67C29.9489 14.8007 30.1309 14.908 30.3456 14.992C30.5696 15.076 30.8449 15.118 31.1716 15.118C31.6476 15.118 32.0396 15.0293 32.3476 14.852C32.6556 14.6653 32.8096 14.3947 32.8096 14.04C32.8096 13.8067 32.7442 13.62 32.6136 13.48C32.4922 13.34 32.2682 13.214 31.9416 13.102C31.6242 12.99 31.1856 12.8733 30.6256 12.752C30.0656 12.6213 29.6222 12.4627 29.2956 12.276C28.9689 12.08 28.7356 11.8513 28.5956 11.59C28.4556 11.3193 28.3856 11.016 28.3856 10.68C28.3856 10.3347 28.4882 10.0033 28.6936 9.686C28.8989 9.35933 29.1976 9.09333 29.5896 8.888C29.9909 8.68267 30.4902 8.58 31.0876 8.58C31.5729 8.58 31.9882 8.64067 32.3336 8.762C32.6789 8.88333 32.9636 9.03733 33.1876 9.224C33.4116 9.40133 33.5796 9.57867 33.6916 9.756C33.8036 9.93333 33.8642 10.0827 33.8736 10.204C33.8829 10.2973 33.8549 10.3767 33.7896 10.442C33.7242 10.498 33.6496 10.526 33.5656 10.526H32.9776C32.9122 10.526 32.8562 10.512 32.8096 10.484C32.7722 10.456 32.7349 10.4233 32.6976 10.386C32.6042 10.2647 32.4922 10.1433 32.3616 10.022C32.2402 9.90067 32.0769 9.80267 31.8716 9.728C31.6756 9.644 31.4142 9.602 31.0876 9.602C30.6209 9.602 30.2709 9.7 30.0376 9.896C29.8042 10.092 29.6876 10.3393 29.6876 10.638C29.6876 10.8153 29.7389 10.974 29.8416 11.114C29.9442 11.254 30.1402 11.38 30.4296 11.492C30.7189 11.604 31.1482 11.7253 31.7176 11.856C32.3336 11.9773 32.8189 12.1407 33.1736 12.346C33.5282 12.5513 33.7802 12.7893 33.9296 13.06C34.0789 13.3307 34.1536 13.6433 34.1536 13.998C34.1536 14.39 34.0369 14.7493 33.8036 15.076C33.5796 15.4027 33.2436 15.664 32.7956 15.86C32.3569 16.0467 31.8109 16.14 31.1576 16.14ZM38.6026 16C38.0799 16 37.6553 15.902 37.3286 15.706C37.0019 15.5007 36.7639 15.216 36.6146 14.852C36.4653 14.4787 36.3906 14.04 36.3906 13.536V9.84H35.2986C35.2053 9.84 35.1259 9.812 35.0606 9.756C35.0046 9.69067 34.9766 9.61133 34.9766 9.518V9.042C34.9766 8.94867 35.0046 8.874 35.0606 8.818C35.1259 8.75267 35.2053 8.72 35.2986 8.72H36.3906V6.382C36.3906 6.28867 36.4186 6.214 36.4746 6.158C36.5399 6.09267 36.6193 6.06 36.7126 6.06H37.3706C37.4639 6.06 37.5386 6.09267 37.5946 6.158C37.6599 6.214 37.6926 6.28867 37.6926 6.382V8.72H39.4286C39.5219 8.72 39.5966 8.75267 39.6526 8.818C39.7179 8.874 39.7506 8.94867 39.7506 9.042V9.518C39.7506 9.61133 39.7179 9.69067 39.6526 9.756C39.5966 9.812 39.5219 9.84 39.4286 9.84H37.6926V13.438C37.6926 13.8767 37.7673 14.222 37.9166 14.474C38.0659 14.726 38.3319 14.852 38.7146 14.852H39.5686C39.6619 14.852 39.7366 14.8847 39.7926 14.95C39.8579 15.006 39.8906 15.0807 39.8906 15.174V15.678C39.8906 15.7713 39.8579 15.8507 39.7926 15.916C39.7366 15.972 39.6619 16 39.5686 16H38.6026ZM41.5514 16C41.458 16 41.3787 15.972 41.3134 15.916C41.2574 15.8507 41.2294 15.7713 41.2294 15.678V9.042C41.2294 8.94867 41.2574 8.874 41.3134 8.818C41.3787 8.75267 41.458 8.72 41.5514 8.72H42.2234C42.3167 8.72 42.3914 8.75267 42.4474 8.818C42.5034 8.874 42.5314 8.94867 42.5314 9.042V15.678C42.5314 15.7713 42.5034 15.8507 42.4474 15.916C42.3914 15.972 42.3167 16 42.2234 16H41.5514ZM41.4394 7.362C41.346 7.362 41.2667 7.334 41.2014 7.278C41.1454 7.21267 41.1174 7.13333 41.1174 7.04V6.284C41.1174 6.19067 41.1454 6.116 41.2014 6.06C41.2667 5.99467 41.346 5.962 41.4394 5.962H42.3214C42.4147 5.962 42.4894 5.99467 42.5454 6.06C42.6107 6.116 42.6434 6.19067 42.6434 6.284V7.04C42.6434 7.13333 42.6107 7.21267 42.5454 7.278C42.4894 7.334 42.4147 7.362 42.3214 7.362H41.4394ZM45.0787 16C44.9854 16 44.906 15.972 44.8407 15.916C44.7847 15.8507 44.7567 15.7713 44.7567 15.678V9.042C44.7567 8.94867 44.7847 8.874 44.8407 8.818C44.906 8.75267 44.9854 8.72 45.0787 8.72H45.7087C45.802 8.72 45.8767 8.75267 45.9327 8.818C45.998 8.874 46.0307 8.94867 46.0307 9.042V9.532C46.2454 9.24267 46.516 9.014 46.8427 8.846C47.1694 8.66867 47.5614 8.58 48.0187 8.58C49.0734 8.57067 49.82 9 50.2587 9.868C50.4734 9.476 50.786 9.16333 51.1967 8.93C51.6074 8.69667 52.074 8.58 52.5967 8.58C53.082 8.58 53.5207 8.692 53.9127 8.916C54.314 9.14 54.6267 9.48067 54.8507 9.938C55.084 10.386 55.2007 10.9507 55.2007 11.632V15.678C55.2007 15.7713 55.168 15.8507 55.1027 15.916C55.0467 15.972 54.972 16 54.8787 16H54.2207C54.1274 16 54.048 15.972 53.9827 15.916C53.9267 15.8507 53.8987 15.7713 53.8987 15.678V11.758C53.8987 11.2353 53.824 10.8247 53.6747 10.526C53.5254 10.2273 53.3247 10.0173 53.0727 9.896C52.8207 9.77467 52.5454 9.714 52.2467 9.714C52.004 9.714 51.7567 9.77467 51.5047 9.896C51.2527 10.0173 51.0427 10.2273 50.8747 10.526C50.716 10.8247 50.6367 11.2353 50.6367 11.758V15.678C50.6367 15.7713 50.604 15.8507 50.5387 15.916C50.4827 15.972 50.408 16 50.3147 16H49.6567C49.5634 16 49.484 15.972 49.4187 15.916C49.3627 15.8507 49.3347 15.7713 49.3347 15.678V11.758C49.3347 11.2353 49.2554 10.8247 49.0967 10.526C48.938 10.2273 48.7327 10.0173 48.4807 9.896C48.2287 9.77467 47.9627 9.714 47.6827 9.714C47.44 9.714 47.1927 9.77467 46.9407 9.896C46.6887 10.0173 46.4787 10.2273 46.3107 10.526C46.152 10.8247 46.0727 11.2307 46.0727 11.744V15.678C46.0727 15.7713 46.04 15.8507 45.9747 15.916C45.9187 15.972 45.844 16 45.7507 16H45.0787ZM60.1801 16.14C59.4708 16.14 58.8781 16.0047 58.4021 15.734C57.9261 15.4633 57.5621 15.09 57.3101 14.614C57.0581 14.1287 56.9181 13.578 56.8901 12.962C56.8808 12.8033 56.8761 12.6027 56.8761 12.36C56.8761 12.108 56.8808 11.9073 56.8901 11.758C56.9181 11.1327 57.0581 10.582 57.3101 10.106C57.5714 9.63 57.9401 9.25667 58.4161 8.986C58.8921 8.71533 59.4801 8.58 60.1801 8.58C60.8801 8.58 61.4681 8.71533 61.9441 8.986C62.4201 9.25667 62.7841 9.63 63.0361 10.106C63.2974 10.582 63.4421 11.1327 63.4701 11.758C63.4794 11.9073 63.4841 12.108 63.4841 12.36C63.4841 12.6027 63.4794 12.8033 63.4701 12.962C63.4421 13.578 63.3021 14.1287 63.0501 14.614C62.7981 15.09 62.4341 15.4633 61.9581 15.734C61.4821 16.0047 60.8894 16.14 60.1801 16.14ZM60.1801 15.062C60.7588 15.062 61.2208 14.88 61.5661 14.516C61.9114 14.1427 62.0981 13.6013 62.1261 12.892C62.1354 12.752 62.1401 12.5747 62.1401 12.36C62.1401 12.1453 62.1354 11.968 62.1261 11.828C62.0981 11.1187 61.9114 10.582 61.5661 10.218C61.2208 9.84467 60.7588 9.658 60.1801 9.658C59.6014 9.658 59.1348 9.84467 58.7801 10.218C58.4348 10.582 58.2528 11.1187 58.2341 11.828C58.2248 11.968 58.2201 12.1453 58.2201 12.36C58.2201 12.5747 58.2248 12.752 58.2341 12.892C58.2528 13.6013 58.4348 14.1427 58.7801 14.516C59.1348 14.88 59.6014 15.062 60.1801 15.062ZM65.5592 16C65.4658 16 65.3865 15.972 65.3212 15.916C65.2652 15.8507 65.2372 15.7713 65.2372 15.678V9.042C65.2372 8.94867 65.2652 8.874 65.3212 8.818C65.3865 8.75267 65.4658 8.72 65.5592 8.72H66.2172C66.3105 8.72 66.3852 8.75267 66.4412 8.818C66.5065 8.874 66.5392 8.94867 66.5392 9.042V9.658C66.7818 9.34067 67.0852 9.084 67.4492 8.888C67.8225 8.68267 68.2985 8.58 68.8772 8.58C69.4838 8.58 69.9972 8.71533 70.4172 8.986C70.8465 9.24733 71.1685 9.616 71.3832 10.092C71.5978 10.5587 71.7052 11.1047 71.7052 11.73V15.678C71.7052 15.7713 71.6772 15.8507 71.6212 15.916C71.5652 15.972 71.4905 16 71.3972 16H70.6972C70.6038 16 70.5245 15.972 70.4592 15.916C70.4032 15.8507 70.3752 15.7713 70.3752 15.678V11.8C70.3752 11.1467 70.2165 10.638 69.8992 10.274C69.5818 9.90067 69.1152 9.714 68.4992 9.714C67.9205 9.714 67.4538 9.90067 67.0992 10.274C66.7538 10.638 66.5812 11.1467 66.5812 11.8V15.678C66.5812 15.7713 66.5485 15.8507 66.4832 15.916C66.4272 15.972 66.3525 16 66.2592 16H65.5592ZM74.0494 16C73.9561 16 73.8767 15.972 73.8114 15.916C73.7554 15.8507 73.7274 15.7713 73.7274 15.678V9.042C73.7274 8.94867 73.7554 8.874 73.8114 8.818C73.8767 8.75267 73.9561 8.72 74.0494 8.72H74.7214C74.8147 8.72 74.8894 8.75267 74.9454 8.818C75.0014 8.874 75.0294 8.94867 75.0294 9.042V15.678C75.0294 15.7713 75.0014 15.8507 74.9454 15.916C74.8894 15.972 74.8147 16 74.7214 16H74.0494ZM73.9374 7.362C73.8441 7.362 73.7647 7.334 73.6994 7.278C73.6434 7.21267 73.6154 7.13333 73.6154 7.04V6.284C73.6154 6.19067 73.6434 6.116 73.6994 6.06C73.7647 5.99467 73.8441 5.962 73.9374 5.962H74.8194C74.9127 5.962 74.9874 5.99467 75.0434 6.06C75.1087 6.116 75.1414 6.19067 75.1414 6.284V7.04C75.1414 7.13333 75.1087 7.21267 75.0434 7.278C74.9874 7.334 74.9127 7.362 74.8194 7.362H73.9374Z" fill="#141F25"/>
<defs>
<linearGradient id="paint0_linear_1_446" x1="-0.113402" y1="4.98333" x2="4.94324" y2="5.04578" gradientUnits="userSpaceOnUse">
<stop stop-color="#FFB629"/>
<stop offset="0.507189" stop-color="#FFDA56"/>
<stop offset="1" stop-color="#FFD7A6"/>
</linearGradient>
</defs>
</svg>
