<svg width="73" height="23" viewBox="0 0 73 23" fill="none" xmlns="http://www.w3.org/2000/svg">
<rect width="4" height="23" fill="url(#paint0_linear_1_702)"/>
<rect width="69" height="23" transform="translate(4)" fill="#141F25"/>
<path d="M14.54 16C14.4373 16 14.358 15.972 14.302 15.916C14.246 15.8507 14.218 15.7713 14.218 15.678V6.522C14.218 6.42867 14.246 6.354 14.302 6.298C14.358 6.23267 14.4373 6.2 14.54 6.2H15.282C15.3753 6.2 15.45 6.23267 15.506 6.298C15.562 6.354 15.59 6.42867 15.59 6.522V14.782H20.252C20.3547 14.782 20.434 14.8147 20.49 14.88C20.546 14.936 20.574 15.0153 20.574 15.118V15.678C20.574 15.7713 20.546 15.8507 20.49 15.916C20.434 15.972 20.3547 16 20.252 16H14.54ZM24.7563 16.14C24.0469 16.14 23.4543 16.0047 22.9783 15.734C22.5023 15.4633 22.1383 15.09 21.8863 14.614C21.6343 14.1287 21.4943 13.578 21.4663 12.962C21.4569 12.8033 21.4523 12.6027 21.4523 12.36C21.4523 12.108 21.4569 11.9073 21.4663 11.758C21.4943 11.1327 21.6343 10.582 21.8863 10.106C22.1476 9.63 22.5163 9.25667 22.9923 8.986C23.4683 8.71533 24.0563 8.58 24.7563 8.58C25.4563 8.58 26.0443 8.71533 26.5203 8.986C26.9963 9.25667 27.3603 9.63 27.6123 10.106C27.8736 10.582 28.0183 11.1327 28.0463 11.758C28.0556 11.9073 28.0603 12.108 28.0603 12.36C28.0603 12.6027 28.0556 12.8033 28.0463 12.962C28.0183 13.578 27.8783 14.1287 27.6263 14.614C27.3743 15.09 27.0103 15.4633 26.5343 15.734C26.0583 16.0047 25.4656 16.14 24.7563 16.14ZM24.7563 15.062C25.3349 15.062 25.7969 14.88 26.1423 14.516C26.4876 14.1427 26.6743 13.6013 26.7023 12.892C26.7116 12.752 26.7163 12.5747 26.7163 12.36C26.7163 12.1453 26.7116 11.968 26.7023 11.828C26.6743 11.1187 26.4876 10.582 26.1423 10.218C25.7969 9.84467 25.3349 9.658 24.7563 9.658C24.1776 9.658 23.7109 9.84467 23.3563 10.218C23.0109 10.582 22.8289 11.1187 22.8103 11.828C22.8009 11.968 22.7963 12.1453 22.7963 12.36C22.7963 12.5747 22.8009 12.752 22.8103 12.892C22.8289 13.6013 23.0109 14.1427 23.3563 14.516C23.7109 14.88 24.1776 15.062 24.7563 15.062ZM32.7953 19.08C32.1607 19.08 31.638 18.996 31.2273 18.828C30.826 18.66 30.5087 18.4547 30.2753 18.212C30.0513 17.9787 29.888 17.7407 29.7853 17.498C29.692 17.2647 29.6407 17.078 29.6313 16.938C29.622 16.8447 29.65 16.7653 29.7153 16.7C29.79 16.6347 29.8693 16.602 29.9533 16.602H30.6253C30.7093 16.602 30.7793 16.6207 30.8353 16.658C30.8913 16.6953 30.938 16.7747 30.9753 16.896C31.0313 17.036 31.1153 17.19 31.2273 17.358C31.3393 17.5353 31.512 17.6847 31.7453 17.806C31.9787 17.9367 32.3053 18.002 32.7253 18.002C33.164 18.002 33.5327 17.9413 33.8313 17.82C34.13 17.708 34.354 17.5027 34.5033 17.204C34.662 16.9147 34.7413 16.5133 34.7413 16V15.048C34.5173 15.3373 34.2233 15.58 33.8593 15.776C33.4953 15.9627 33.038 16.056 32.4873 16.056C31.9647 16.056 31.5167 15.9673 31.1433 15.79C30.77 15.6033 30.462 15.356 30.2193 15.048C29.986 14.7307 29.8087 14.3713 29.6873 13.97C29.5753 13.5687 29.51 13.1487 29.4913 12.71C29.482 12.4487 29.482 12.192 29.4913 11.94C29.51 11.5013 29.5753 11.0813 29.6873 10.68C29.8087 10.2787 29.986 9.91933 30.2193 9.602C30.462 9.28467 30.77 9.03733 31.1433 8.86C31.5167 8.67333 31.9647 8.58 32.4873 8.58C33.0473 8.58 33.5093 8.68733 33.8733 8.902C34.2467 9.10733 34.55 9.35933 34.7833 9.658V9.056C34.7833 8.96267 34.8113 8.88333 34.8673 8.818C34.9327 8.75267 35.012 8.72 35.1053 8.72H35.7493C35.8427 8.72 35.922 8.75267 35.9873 8.818C36.0527 8.88333 36.0853 8.96267 36.0853 9.056V15.846C36.0853 16.4713 35.978 17.0267 35.7633 17.512C35.558 17.9973 35.2127 18.38 34.7273 18.66C34.2513 18.94 33.6073 19.08 32.7953 19.08ZM32.7673 14.936C33.234 14.936 33.6073 14.8287 33.8873 14.614C34.1767 14.3993 34.3867 14.1287 34.5173 13.802C34.6573 13.4753 34.732 13.144 34.7413 12.808C34.7507 12.6773 34.7553 12.5187 34.7553 12.332C34.7553 12.136 34.7507 11.9727 34.7413 11.842C34.732 11.506 34.6573 11.1747 34.5173 10.848C34.3867 10.5213 34.1767 10.2507 33.8873 10.036C33.6073 9.82133 33.234 9.714 32.7673 9.714C32.3007 9.714 31.9273 9.82133 31.6473 10.036C31.3673 10.2413 31.1667 10.5167 31.0453 10.862C30.924 11.198 30.854 11.562 30.8353 11.954C30.826 12.1967 30.826 12.444 30.8353 12.696C30.854 13.088 30.924 13.4567 31.0453 13.802C31.1667 14.138 31.3673 14.4133 31.6473 14.628C31.9273 14.8333 32.3007 14.936 32.7673 14.936ZM38.4889 16C38.3955 16 38.3162 15.972 38.2509 15.916C38.1949 15.8507 38.1669 15.7713 38.1669 15.678V9.042C38.1669 8.94867 38.1949 8.874 38.2509 8.818C38.3162 8.75267 38.3955 8.72 38.4889 8.72H39.1609C39.2542 8.72 39.3289 8.75267 39.3849 8.818C39.4409 8.874 39.4689 8.94867 39.4689 9.042V15.678C39.4689 15.7713 39.4409 15.8507 39.3849 15.916C39.3289 15.972 39.2542 16 39.1609 16H38.4889ZM38.3769 7.362C38.2835 7.362 38.2042 7.334 38.1389 7.278C38.0829 7.21267 38.0549 7.13333 38.0549 7.04V6.284C38.0549 6.19067 38.0829 6.116 38.1389 6.06C38.2042 5.99467 38.2835 5.962 38.3769 5.962H39.2589C39.3522 5.962 39.4269 5.99467 39.4829 6.06C39.5482 6.116 39.5809 6.19067 39.5809 6.284V7.04C39.5809 7.13333 39.5482 7.21267 39.4829 7.278C39.4269 7.334 39.3522 7.362 39.2589 7.362H38.3769ZM44.1595 16.14C43.6368 16.14 43.1888 16.0747 42.8155 15.944C42.4422 15.8133 42.1388 15.6547 41.9055 15.468C41.6722 15.2813 41.4948 15.0947 41.3735 14.908C41.2615 14.7213 41.2008 14.572 41.1915 14.46C41.1822 14.3573 41.2148 14.278 41.2895 14.222C41.3642 14.166 41.4388 14.138 41.5135 14.138H42.1295C42.1855 14.138 42.2275 14.1473 42.2555 14.166C42.2928 14.1753 42.3395 14.2127 42.3955 14.278C42.5168 14.4087 42.6522 14.5393 42.8015 14.67C42.9508 14.8007 43.1328 14.908 43.3475 14.992C43.5715 15.076 43.8468 15.118 44.1735 15.118C44.6495 15.118 45.0415 15.0293 45.3495 14.852C45.6575 14.6653 45.8115 14.3947 45.8115 14.04C45.8115 13.8067 45.7462 13.62 45.6155 13.48C45.4942 13.34 45.2702 13.214 44.9435 13.102C44.6262 12.99 44.1875 12.8733 43.6275 12.752C43.0675 12.6213 42.6242 12.4627 42.2975 12.276C41.9708 12.08 41.7375 11.8513 41.5975 11.59C41.4575 11.3193 41.3875 11.016 41.3875 10.68C41.3875 10.3347 41.4902 10.0033 41.6955 9.686C41.9008 9.35933 42.1995 9.09333 42.5915 8.888C42.9928 8.68267 43.4922 8.58 44.0895 8.58C44.5748 8.58 44.9902 8.64067 45.3355 8.762C45.6808 8.88333 45.9655 9.03733 46.1895 9.224C46.4135 9.40133 46.5815 9.57867 46.6935 9.756C46.8055 9.93333 46.8662 10.0827 46.8755 10.204C46.8848 10.2973 46.8568 10.3767 46.7915 10.442C46.7262 10.498 46.6515 10.526 46.5675 10.526H45.9795C45.9142 10.526 45.8582 10.512 45.8115 10.484C45.7742 10.456 45.7368 10.4233 45.6995 10.386C45.6062 10.2647 45.4942 10.1433 45.3635 10.022C45.2422 9.90067 45.0788 9.80267 44.8735 9.728C44.6775 9.644 44.4162 9.602 44.0895 9.602C43.6228 9.602 43.2728 9.7 43.0395 9.896C42.8062 10.092 42.6895 10.3393 42.6895 10.638C42.6895 10.8153 42.7408 10.974 42.8435 11.114C42.9462 11.254 43.1422 11.38 43.4315 11.492C43.7208 11.604 44.1502 11.7253 44.7195 11.856C45.3355 11.9773 45.8208 12.1407 46.1755 12.346C46.5302 12.5513 46.7822 12.7893 46.9315 13.06C47.0808 13.3307 47.1555 13.6433 47.1555 13.998C47.1555 14.39 47.0388 14.7493 46.8055 15.076C46.5815 15.4027 46.2455 15.664 45.7975 15.86C45.3588 16.0467 44.8128 16.14 44.1595 16.14ZM51.6046 16C51.0819 16 50.6572 15.902 50.3306 15.706C50.0039 15.5007 49.7659 15.216 49.6166 14.852C49.4672 14.4787 49.3926 14.04 49.3926 13.536V9.84H48.3006C48.2072 9.84 48.1279 9.812 48.0626 9.756C48.0066 9.69067 47.9786 9.61133 47.9786 9.518V9.042C47.9786 8.94867 48.0066 8.874 48.0626 8.818C48.1279 8.75267 48.2072 8.72 48.3006 8.72H49.3926V6.382C49.3926 6.28867 49.4206 6.214 49.4766 6.158C49.5419 6.09267 49.6212 6.06 49.7146 6.06H50.3726C50.4659 6.06 50.5406 6.09267 50.5966 6.158C50.6619 6.214 50.6946 6.28867 50.6946 6.382V8.72H52.4306C52.5239 8.72 52.5986 8.75267 52.6546 8.818C52.7199 8.874 52.7526 8.94867 52.7526 9.042V9.518C52.7526 9.61133 52.7199 9.69067 52.6546 9.756C52.5986 9.812 52.5239 9.84 52.4306 9.84H50.6946V13.438C50.6946 13.8767 50.7692 14.222 50.9186 14.474C51.0679 14.726 51.3339 14.852 51.7166 14.852H52.5706C52.6639 14.852 52.7386 14.8847 52.7946 14.95C52.8599 15.006 52.8926 15.0807 52.8926 15.174V15.678C52.8926 15.7713 52.8599 15.8507 52.7946 15.916C52.7386 15.972 52.6639 16 52.5706 16H51.6046ZM54.5533 16C54.46 16 54.3806 15.972 54.3153 15.916C54.2593 15.8507 54.2313 15.7713 54.2313 15.678V9.042C54.2313 8.94867 54.2593 8.874 54.3153 8.818C54.3806 8.75267 54.46 8.72 54.5533 8.72H55.2253C55.3186 8.72 55.3933 8.75267 55.4493 8.818C55.5053 8.874 55.5333 8.94867 55.5333 9.042V15.678C55.5333 15.7713 55.5053 15.8507 55.4493 15.916C55.3933 15.972 55.3186 16 55.2253 16H54.5533ZM54.4413 7.362C54.348 7.362 54.2686 7.334 54.2033 7.278C54.1473 7.21267 54.1193 7.13333 54.1193 7.04V6.284C54.1193 6.19067 54.1473 6.116 54.2033 6.06C54.2686 5.99467 54.348 5.962 54.4413 5.962H55.3233C55.4166 5.962 55.4913 5.99467 55.5473 6.06C55.6126 6.116 55.6453 6.19067 55.6453 6.284V7.04C55.6453 7.13333 55.6126 7.21267 55.5473 7.278C55.4913 7.334 55.4166 7.362 55.3233 7.362H54.4413ZM57.9579 16C57.8646 16 57.7853 15.972 57.7199 15.916C57.6639 15.8507 57.6359 15.7713 57.6359 15.678V6.382C57.6359 6.28867 57.6639 6.214 57.7199 6.158C57.7853 6.09267 57.8646 6.06 57.9579 6.06H58.6159C58.7093 6.06 58.7839 6.09267 58.8399 6.158C58.9053 6.214 58.9379 6.28867 58.9379 6.382V11.254L61.6959 8.958C61.8079 8.86467 61.8919 8.804 61.9479 8.776C62.0133 8.73867 62.1159 8.72 62.2559 8.72H62.9979C63.0819 8.72 63.1519 8.748 63.2079 8.804C63.2639 8.86 63.2919 8.93 63.2919 9.014C63.2919 9.05133 63.2779 9.09333 63.2499 9.14C63.2313 9.18667 63.1893 9.23333 63.1239 9.28L59.8899 11.968L63.4739 15.454C63.5859 15.5473 63.6419 15.6313 63.6419 15.706C63.6419 15.79 63.6139 15.86 63.5579 15.916C63.5019 15.972 63.4319 16 63.3479 16H62.6199C62.4799 16 62.3773 15.986 62.3119 15.958C62.2466 15.9207 62.1626 15.8553 62.0599 15.762L58.9379 12.78V15.678C58.9379 15.7713 58.9053 15.8507 58.8399 15.916C58.7839 15.972 58.7093 16 58.6159 16H57.9579Z" fill="white"/>
<defs>
<linearGradient id="paint0_linear_1_702" x1="-0.113402" y1="4.98333" x2="4.94324" y2="5.04578" gradientUnits="userSpaceOnUse">
<stop stop-color="#FFB629"/>
<stop offset="0.507189" stop-color="#FFDA56"/>
<stop offset="1" stop-color="#FFD7A6"/>
</linearGradient>
</defs>
</svg>
