<svg width="102" height="24" viewBox="0 0 102 24" fill="none" xmlns="http://www.w3.org/2000/svg">
<rect y="0.311279" width="4" height="23" fill="url(#paint0_linear_1_382)"/>
<rect width="98" height="23" transform="translate(4 0.311279)" fill="#E8E8E8" fill-opacity="0.5"/>
<path d="M14.54 16.3113C14.4373 16.3113 14.358 16.2833 14.302 16.2273C14.246 16.1619 14.218 16.0826 14.218 15.9893V6.84728C14.218 6.74461 14.246 6.66528 14.302 6.60928C14.358 6.54395 14.4373 6.51128 14.54 6.51128H15.24C15.3427 6.51128 15.422 6.54395 15.478 6.60928C15.5433 6.66528 15.576 6.74461 15.576 6.84728V10.3193L19.314 6.73528C19.3513 6.69795 19.412 6.65128 19.496 6.59528C19.5893 6.53928 19.7107 6.51128 19.86 6.51128H20.616C20.6907 6.51128 20.756 6.53928 20.812 6.59528C20.868 6.65128 20.896 6.71661 20.896 6.79128C20.896 6.86595 20.8773 6.92661 20.84 6.97328L16.514 11.2013L21.12 15.8353C21.1667 15.8913 21.19 15.9566 21.19 16.0313C21.19 16.1059 21.162 16.1713 21.106 16.2273C21.05 16.2833 20.9847 16.3113 20.91 16.3113H20.126C19.9673 16.3113 19.846 16.2833 19.762 16.2273C19.678 16.1619 19.6173 16.1153 19.58 16.0873L15.576 12.1393V15.9893C15.576 16.0826 15.5433 16.1619 15.478 16.2273C15.422 16.2833 15.3427 16.3113 15.24 16.3113H14.54ZM24.9184 16.4513C23.957 16.4513 23.1917 16.1573 22.6224 15.5693C22.053 14.9719 21.7404 14.1599 21.6844 13.1333C21.675 13.0119 21.6704 12.8579 21.6704 12.6713C21.6704 12.4753 21.675 12.3166 21.6844 12.1953C21.7217 11.5326 21.8757 10.9539 22.1464 10.4593C22.417 9.95528 22.7857 9.56795 23.2524 9.29728C23.7284 9.02661 24.2837 8.89128 24.9184 8.89128C25.6277 8.89128 26.2204 9.04061 26.6964 9.33928C27.1817 9.63795 27.5504 10.0626 27.8024 10.6133C28.0544 11.1639 28.1804 11.8079 28.1804 12.5453V12.7833C28.1804 12.8859 28.1477 12.9653 28.0824 13.0213C28.0264 13.0773 27.9517 13.1053 27.8584 13.1053H23.0144C23.0144 13.1146 23.0144 13.1333 23.0144 13.1613C23.0144 13.1893 23.0144 13.2126 23.0144 13.2313C23.033 13.6139 23.117 13.9733 23.2664 14.3093C23.4157 14.6359 23.6304 14.9019 23.9104 15.1073C24.1904 15.3126 24.5264 15.4153 24.9184 15.4153C25.2544 15.4153 25.5344 15.3639 25.7584 15.2613C25.9824 15.1586 26.1644 15.0466 26.3044 14.9253C26.4444 14.7946 26.5377 14.6966 26.5844 14.6313C26.6684 14.5099 26.7337 14.4399 26.7804 14.4213C26.827 14.3933 26.9017 14.3793 27.0044 14.3793H27.6764C27.7697 14.3793 27.8444 14.4073 27.9004 14.4633C27.9657 14.5099 27.9937 14.5799 27.9844 14.6733C27.975 14.8133 27.9004 14.9859 27.7604 15.1913C27.6204 15.3873 27.4197 15.5833 27.1584 15.7793C26.897 15.9753 26.5797 16.1386 26.2064 16.2693C25.833 16.3906 25.4037 16.4513 24.9184 16.4513ZM23.0144 12.1393H26.8504V12.0973C26.8504 11.6773 26.771 11.3039 26.6124 10.9773C26.463 10.6506 26.2437 10.3939 25.9544 10.2073C25.665 10.0113 25.3197 9.91328 24.9184 9.91328C24.517 9.91328 24.1717 10.0113 23.8824 10.2073C23.6024 10.3939 23.3877 10.6506 23.2384 10.9773C23.089 11.3039 23.0144 11.6773 23.0144 12.0973V12.1393ZM32.5704 16.4513C31.973 16.4513 31.4644 16.3206 31.0444 16.0593C30.6337 15.7886 30.321 15.4153 30.1064 14.9393C29.8917 14.4633 29.7844 13.9173 29.7844 13.3013V9.35328C29.7844 9.25995 29.8124 9.18528 29.8684 9.12928C29.9337 9.06395 30.013 9.03128 30.1064 9.03128H30.8064C30.8997 9.03128 30.9744 9.06395 31.0304 9.12928C31.0957 9.18528 31.1284 9.25995 31.1284 9.35328V13.2313C31.1284 14.6219 31.735 15.3173 32.9484 15.3173C33.527 15.3173 33.989 15.1353 34.3344 14.7713C34.689 14.3979 34.8664 13.8846 34.8664 13.2313V9.35328C34.8664 9.25995 34.8944 9.18528 34.9504 9.12928C35.0157 9.06395 35.095 9.03128 35.1884 9.03128H35.8744C35.977 9.03128 36.0564 9.06395 36.1124 9.12928C36.1684 9.18528 36.1964 9.25995 36.1964 9.35328V15.9893C36.1964 16.0826 36.1684 16.1619 36.1124 16.2273C36.0564 16.2833 35.977 16.3113 35.8744 16.3113H35.2304C35.137 16.3113 35.0577 16.2833 34.9924 16.2273C34.9364 16.1619 34.9084 16.0826 34.9084 15.9893V15.3733C34.6564 15.6999 34.3484 15.9613 33.9844 16.1573C33.6297 16.3533 33.1584 16.4513 32.5704 16.4513ZM38.5982 16.3113C38.5049 16.3113 38.4256 16.2833 38.3602 16.2273C38.3042 16.1619 38.2762 16.0826 38.2762 15.9893V9.35328C38.2762 9.25995 38.3042 9.18528 38.3602 9.12928C38.4256 9.06395 38.5049 9.03128 38.5982 9.03128H39.2562C39.3496 9.03128 39.4242 9.06395 39.4802 9.12928C39.5456 9.18528 39.5782 9.25995 39.5782 9.35328V9.96928C39.8209 9.65195 40.1242 9.39528 40.4882 9.19928C40.8616 8.99395 41.3376 8.89128 41.9162 8.89128C42.5229 8.89128 43.0362 9.02661 43.4562 9.29728C43.8856 9.55861 44.2076 9.92728 44.4222 10.4033C44.6369 10.8699 44.7442 11.4159 44.7442 12.0413V15.9893C44.7442 16.0826 44.7162 16.1619 44.6602 16.2273C44.6042 16.2833 44.5296 16.3113 44.4362 16.3113H43.7362C43.6429 16.3113 43.5636 16.2833 43.4982 16.2273C43.4422 16.1619 43.4142 16.0826 43.4142 15.9893V12.1113C43.4142 11.4579 43.2556 10.9493 42.9382 10.5853C42.6209 10.2119 42.1542 10.0253 41.5382 10.0253C40.9596 10.0253 40.4929 10.2119 40.1382 10.5853C39.7929 10.9493 39.6202 11.4579 39.6202 12.1113V15.9893C39.6202 16.0826 39.5876 16.1619 39.5222 16.2273C39.4662 16.2833 39.3916 16.3113 39.2982 16.3113H38.5982ZM49.5128 16.3113C48.9901 16.3113 48.5654 16.2133 48.2388 16.0173C47.9121 15.8119 47.6741 15.5273 47.5248 15.1633C47.3754 14.7899 47.3008 14.3513 47.3008 13.8473V10.1513H46.2088C46.1154 10.1513 46.0361 10.1233 45.9708 10.0673C45.9148 10.0019 45.8868 9.92261 45.8868 9.82928V9.35328C45.8868 9.25995 45.9148 9.18528 45.9708 9.12928C46.0361 9.06395 46.1154 9.03128 46.2088 9.03128H47.3008V6.69328C47.3008 6.59995 47.3288 6.52528 47.3848 6.46928C47.4501 6.40395 47.5294 6.37128 47.6228 6.37128H48.2808C48.3741 6.37128 48.4488 6.40395 48.5048 6.46928C48.5701 6.52528 48.6028 6.59995 48.6028 6.69328V9.03128H50.3388C50.4321 9.03128 50.5068 9.06395 50.5628 9.12928C50.6281 9.18528 50.6608 9.25995 50.6608 9.35328V9.82928C50.6608 9.92261 50.6281 10.0019 50.5628 10.0673C50.5068 10.1233 50.4321 10.1513 50.3388 10.1513H48.6028V13.7493C48.6028 14.1879 48.6774 14.5333 48.8268 14.7853C48.9761 15.0373 49.2421 15.1633 49.6248 15.1633H50.4788C50.5721 15.1633 50.6468 15.1959 50.7028 15.2613C50.7681 15.3173 50.8008 15.3919 50.8008 15.4853V15.9893C50.8008 16.0826 50.7681 16.1619 50.7028 16.2273C50.6468 16.2833 50.5721 16.3113 50.4788 16.3113H49.5128ZM54.8555 16.4513C54.2582 16.4513 53.7495 16.3206 53.3295 16.0593C52.9188 15.7886 52.6062 15.4153 52.3915 14.9393C52.1768 14.4633 52.0695 13.9173 52.0695 13.3013V9.35328C52.0695 9.25995 52.0975 9.18528 52.1535 9.12928C52.2188 9.06395 52.2982 9.03128 52.3915 9.03128H53.0915C53.1848 9.03128 53.2595 9.06395 53.3155 9.12928C53.3808 9.18528 53.4135 9.25995 53.4135 9.35328V13.2313C53.4135 14.6219 54.0202 15.3173 55.2335 15.3173C55.8122 15.3173 56.2742 15.1353 56.6195 14.7713C56.9742 14.3979 57.1515 13.8846 57.1515 13.2313V9.35328C57.1515 9.25995 57.1795 9.18528 57.2355 9.12928C57.3008 9.06395 57.3802 9.03128 57.4735 9.03128H58.1595C58.2622 9.03128 58.3415 9.06395 58.3975 9.12928C58.4535 9.18528 58.4815 9.25995 58.4815 9.35328V15.9893C58.4815 16.0826 58.4535 16.1619 58.3975 16.2273C58.3415 16.2833 58.2622 16.3113 58.1595 16.3113H57.5155C57.4222 16.3113 57.3428 16.2833 57.2775 16.2273C57.2215 16.1619 57.1935 16.0826 57.1935 15.9893V15.3733C56.9415 15.6999 56.6335 15.9613 56.2695 16.1573C55.9148 16.3533 55.4435 16.4513 54.8555 16.4513ZM60.8834 16.3113C60.7901 16.3113 60.7107 16.2833 60.6454 16.2273C60.5894 16.1619 60.5614 16.0826 60.5614 15.9893V9.35328C60.5614 9.25995 60.5894 9.18528 60.6454 9.12928C60.7107 9.06395 60.7901 9.03128 60.8834 9.03128H61.5414C61.6347 9.03128 61.7094 9.06395 61.7654 9.12928C61.8307 9.18528 61.8634 9.25995 61.8634 9.35328V9.96928C62.1061 9.65195 62.4094 9.39528 62.7734 9.19928C63.1467 8.99395 63.6227 8.89128 64.2014 8.89128C64.8081 8.89128 65.3214 9.02661 65.7414 9.29728C66.1707 9.55861 66.4927 9.92728 66.7074 10.4033C66.9221 10.8699 67.0294 11.4159 67.0294 12.0413V15.9893C67.0294 16.0826 67.0014 16.1619 66.9454 16.2273C66.8894 16.2833 66.8147 16.3113 66.7214 16.3113H66.0214C65.9281 16.3113 65.8487 16.2833 65.7834 16.2273C65.7274 16.1619 65.6994 16.0826 65.6994 15.9893V12.1113C65.6994 11.4579 65.5407 10.9493 65.2234 10.5853C64.9061 10.2119 64.4394 10.0253 63.8234 10.0253C63.2447 10.0253 62.7781 10.2119 62.4234 10.5853C62.0781 10.9493 61.9054 11.4579 61.9054 12.1113V15.9893C61.9054 16.0826 61.8727 16.1619 61.8074 16.2273C61.7514 16.2833 61.6767 16.3113 61.5834 16.3113H60.8834ZM72.0336 19.3913C71.399 19.3913 70.8763 19.3073 70.4656 19.1393C70.0643 18.9713 69.747 18.7659 69.5136 18.5233C69.2896 18.2899 69.1263 18.0519 69.0236 17.8093C68.9303 17.5759 68.879 17.3893 68.8696 17.2493C68.8603 17.1559 68.8883 17.0766 68.9536 17.0113C69.0283 16.9459 69.1076 16.9133 69.1916 16.9133H69.8636C69.9476 16.9133 70.0176 16.9319 70.0736 16.9693C70.1296 17.0066 70.1763 17.0859 70.2136 17.2073C70.2696 17.3473 70.3536 17.5013 70.4656 17.6693C70.5776 17.8466 70.7503 17.9959 70.9836 18.1173C71.217 18.2479 71.5436 18.3133 71.9636 18.3133C72.4023 18.3133 72.771 18.2526 73.0696 18.1313C73.3683 18.0193 73.5923 17.8139 73.7416 17.5153C73.9003 17.2259 73.9796 16.8246 73.9796 16.3113V15.3593C73.7556 15.6486 73.4616 15.8913 73.0976 16.0873C72.7336 16.2739 72.2763 16.3673 71.7256 16.3673C71.203 16.3673 70.755 16.2786 70.3816 16.1013C70.0083 15.9146 69.7003 15.6673 69.4576 15.3593C69.2243 15.0419 69.047 14.6826 68.9256 14.2813C68.8136 13.8799 68.7483 13.4599 68.7296 13.0213C68.7203 12.7599 68.7203 12.5033 68.7296 12.2513C68.7483 11.8126 68.8136 11.3926 68.9256 10.9913C69.047 10.5899 69.2243 10.2306 69.4576 9.91328C69.7003 9.59595 70.0083 9.34861 70.3816 9.17128C70.755 8.98461 71.203 8.89128 71.7256 8.89128C72.2856 8.89128 72.7476 8.99861 73.1116 9.21328C73.485 9.41861 73.7883 9.67061 74.0216 9.96928V9.36728C74.0216 9.27395 74.0496 9.19461 74.1056 9.12928C74.171 9.06395 74.2503 9.03128 74.3436 9.03128H74.9876C75.081 9.03128 75.1603 9.06395 75.2256 9.12928C75.291 9.19461 75.3236 9.27395 75.3236 9.36728V16.1573C75.3236 16.7826 75.2163 17.3379 75.0016 17.8233C74.7963 18.3086 74.451 18.6913 73.9656 18.9713C73.4896 19.2513 72.8456 19.3913 72.0336 19.3913ZM72.0056 15.2473C72.4723 15.2473 72.8456 15.1399 73.1256 14.9253C73.415 14.7106 73.625 14.4399 73.7556 14.1133C73.8956 13.7866 73.9703 13.4553 73.9796 13.1193C73.989 12.9886 73.9936 12.8299 73.9936 12.6433C73.9936 12.4473 73.989 12.2839 73.9796 12.1533C73.9703 11.8173 73.8956 11.4859 73.7556 11.1593C73.625 10.8326 73.415 10.5619 73.1256 10.3473C72.8456 10.1326 72.4723 10.0253 72.0056 10.0253C71.539 10.0253 71.1656 10.1326 70.8856 10.3473C70.6056 10.5526 70.405 10.8279 70.2836 11.1733C70.1623 11.5093 70.0923 11.8733 70.0736 12.2653C70.0643 12.5079 70.0643 12.7553 70.0736 13.0073C70.0923 13.3993 70.1623 13.7679 70.2836 14.1133C70.405 14.4493 70.6056 14.7246 70.8856 14.9393C71.1656 15.1446 71.539 15.2473 72.0056 15.2473ZM79.4351 16.4513C78.9685 16.4513 78.5438 16.3579 78.1611 16.1713C77.7785 15.9846 77.4705 15.7326 77.2371 15.4153C77.0038 15.0979 76.8871 14.7386 76.8871 14.3373C76.8871 13.6933 77.1485 13.1799 77.6711 12.7973C78.1938 12.4146 78.8751 12.1626 79.7151 12.0413L81.8011 11.7473V11.3413C81.8011 10.8933 81.6705 10.5433 81.4091 10.2913C81.1571 10.0393 80.7418 9.91328 80.1631 9.91328C79.7431 9.91328 79.4025 9.99728 79.1411 10.1653C78.8891 10.3333 78.7118 10.5479 78.6091 10.8093C78.5531 10.9493 78.4551 11.0193 78.3151 11.0193H77.6851C77.5825 11.0193 77.5031 10.9913 77.4471 10.9353C77.4005 10.8699 77.3771 10.7953 77.3771 10.7113C77.3771 10.5713 77.4285 10.3986 77.5311 10.1933C77.6431 9.98795 77.8111 9.78728 78.0351 9.59128C78.2591 9.39528 78.5438 9.23195 78.8891 9.10128C79.2438 8.96128 79.6731 8.89128 80.1771 8.89128C80.7371 8.89128 81.2085 8.96595 81.5911 9.11528C81.9738 9.25528 82.2725 9.44661 82.4871 9.68928C82.7111 9.93195 82.8698 10.2073 82.9631 10.5153C83.0658 10.8233 83.1171 11.1359 83.1171 11.4533V15.9893C83.1171 16.0826 83.0845 16.1619 83.0191 16.2273C82.9631 16.2833 82.8885 16.3113 82.7951 16.3113H82.1511C82.0485 16.3113 81.9691 16.2833 81.9131 16.2273C81.8571 16.1619 81.8291 16.0826 81.8291 15.9893V15.3873C81.7078 15.5553 81.5445 15.7233 81.3391 15.8913C81.1338 16.0499 80.8771 16.1853 80.5691 16.2973C80.2611 16.3999 79.8831 16.4513 79.4351 16.4513ZM79.7291 15.4013C80.1118 15.4013 80.4618 15.3219 80.7791 15.1633C81.0965 14.9953 81.3438 14.7386 81.5211 14.3933C81.7078 14.0479 81.8011 13.6139 81.8011 13.0913V12.6993L80.1771 12.9373C79.5145 13.0306 79.0151 13.1893 78.6791 13.4133C78.3431 13.6279 78.1751 13.9033 78.1751 14.2393C78.1751 14.5006 78.2498 14.7199 78.3991 14.8973C78.5578 15.0653 78.7538 15.1913 78.9871 15.2753C79.2298 15.3593 79.4771 15.4013 79.7291 15.4013ZM85.4518 16.3113C85.3584 16.3113 85.2791 16.2833 85.2138 16.2273C85.1578 16.1619 85.1298 16.0826 85.1298 15.9893V9.35328C85.1298 9.25995 85.1578 9.18528 85.2138 9.12928C85.2791 9.06395 85.3584 9.03128 85.4518 9.03128H86.1098C86.2031 9.03128 86.2778 9.06395 86.3338 9.12928C86.3991 9.18528 86.4318 9.25995 86.4318 9.35328V9.96928C86.6744 9.65195 86.9778 9.39528 87.3418 9.19928C87.7151 8.99395 88.1911 8.89128 88.7698 8.89128C89.3764 8.89128 89.8898 9.02661 90.3098 9.29728C90.7391 9.55861 91.0611 9.92728 91.2758 10.4033C91.4904 10.8699 91.5978 11.4159 91.5978 12.0413V15.9893C91.5978 16.0826 91.5698 16.1619 91.5138 16.2273C91.4578 16.2833 91.3831 16.3113 91.2897 16.3113H90.5898C90.4964 16.3113 90.4171 16.2833 90.3518 16.2273C90.2958 16.1619 90.2678 16.0826 90.2678 15.9893V12.1113C90.2678 11.4579 90.1091 10.9493 89.7918 10.5853C89.4744 10.2119 89.0078 10.0253 88.3918 10.0253C87.8131 10.0253 87.3464 10.2119 86.9918 10.5853C86.6464 10.9493 86.4738 11.4579 86.4738 12.1113V15.9893C86.4738 16.0826 86.4411 16.1619 86.3758 16.2273C86.3198 16.2833 86.2451 16.3113 86.1517 16.3113H85.4518Z" fill="#141F25"/>
<defs>
<linearGradient id="paint0_linear_1_382" x1="-0.113402" y1="5.29461" x2="4.94324" y2="5.35706" gradientUnits="userSpaceOnUse">
<stop stop-color="#FFB629"/>
<stop offset="0.507189" stop-color="#FFDA56"/>
<stop offset="1" stop-color="#FFD7A6"/>
</linearGradient>
</defs>
</svg>
