<svg width="86" height="23" viewBox="0 0 86 23" fill="none" xmlns="http://www.w3.org/2000/svg">
<rect width="4" height="23" fill="url(#paint0_linear_1_568)"/>
<rect width="82" height="23" transform="translate(4)" fill="#E8E8E8" fill-opacity="0.5"/>
<path d="M13.54 16C13.4373 16 13.358 15.972 13.302 15.916C13.246 15.8507 13.218 15.7713 13.218 15.678V6.522C13.218 6.42867 13.246 6.354 13.302 6.298C13.358 6.23267 13.4373 6.2 13.54 6.2H14.282C14.3753 6.2 14.45 6.23267 14.506 6.298C14.562 6.354 14.59 6.42867 14.59 6.522V14.782H19.252C19.3547 14.782 19.434 14.8147 19.49 14.88C19.546 14.936 19.574 15.0153 19.574 15.118V15.678C19.574 15.7713 19.546 15.8507 19.49 15.916C19.434 15.972 19.3547 16 19.252 16H13.54ZM22.9547 16.14C22.488 16.14 22.0633 16.0467 21.6807 15.86C21.298 15.6733 20.99 15.4213 20.7567 15.104C20.5233 14.7867 20.4067 14.4273 20.4067 14.026C20.4067 13.382 20.668 12.8687 21.1907 12.486C21.7133 12.1033 22.3947 11.8513 23.2347 11.73L25.3207 11.436V11.03C25.3207 10.582 25.19 10.232 24.9287 9.98C24.6767 9.728 24.2613 9.602 23.6827 9.602C23.2627 9.602 22.922 9.686 22.6607 9.854C22.4087 10.022 22.2313 10.2367 22.1287 10.498C22.0727 10.638 21.9747 10.708 21.8347 10.708H21.2047C21.102 10.708 21.0227 10.68 20.9667 10.624C20.92 10.5587 20.8967 10.484 20.8967 10.4C20.8967 10.26 20.948 10.0873 21.0507 9.882C21.1627 9.67667 21.3307 9.476 21.5547 9.28C21.7787 9.084 22.0633 8.92067 22.4087 8.79C22.7633 8.65 23.1927 8.58 23.6967 8.58C24.2567 8.58 24.728 8.65467 25.1107 8.804C25.4933 8.944 25.792 9.13533 26.0067 9.378C26.2307 9.62067 26.3893 9.896 26.4827 10.204C26.5853 10.512 26.6367 10.8247 26.6367 11.142V15.678C26.6367 15.7713 26.604 15.8507 26.5387 15.916C26.4827 15.972 26.408 16 26.3147 16H25.6707C25.568 16 25.4887 15.972 25.4327 15.916C25.3767 15.8507 25.3487 15.7713 25.3487 15.678V15.076C25.2273 15.244 25.064 15.412 24.8587 15.58C24.6533 15.7387 24.3967 15.874 24.0887 15.986C23.7807 16.0887 23.4027 16.14 22.9547 16.14ZM23.2487 15.09C23.6313 15.09 23.9813 15.0107 24.2987 14.852C24.616 14.684 24.8633 14.4273 25.0407 14.082C25.2273 13.7367 25.3207 13.3027 25.3207 12.78V12.388L23.6967 12.626C23.034 12.7193 22.5347 12.878 22.1987 13.102C21.8627 13.3167 21.6947 13.592 21.6947 13.928C21.6947 14.1893 21.7693 14.4087 21.9187 14.586C22.0773 14.754 22.2733 14.88 22.5067 14.964C22.7493 15.048 22.9967 15.09 23.2487 15.09ZM29.7729 18.66C29.6982 18.66 29.6329 18.632 29.5769 18.576C29.5209 18.52 29.4929 18.4547 29.4929 18.38C29.4929 18.3427 29.4976 18.3053 29.5069 18.268C29.5162 18.2307 29.5349 18.184 29.5629 18.128L30.6409 15.566L27.9669 9.252C27.9202 9.14 27.8969 9.06067 27.8969 9.014C27.8969 8.93 27.9249 8.86 27.9809 8.804C28.0369 8.748 28.1069 8.72 28.1909 8.72H28.8769C28.9702 8.72 29.0449 8.74333 29.1009 8.79C29.1569 8.83667 29.1942 8.89267 29.2129 8.958L31.3409 14.054L33.5249 8.958C33.5529 8.89267 33.5902 8.83667 33.6369 8.79C33.6929 8.74333 33.7722 8.72 33.8749 8.72H34.5329C34.6169 8.72 34.6869 8.748 34.7429 8.804C34.7989 8.86 34.8269 8.92533 34.8269 9C34.8269 9.04667 34.8036 9.13067 34.7569 9.252L30.7809 18.422C30.7529 18.4873 30.7109 18.5433 30.6549 18.59C30.6082 18.6367 30.5336 18.66 30.4309 18.66H29.7729ZM37.9801 16.14C37.5134 16.14 37.0887 16.0467 36.7061 15.86C36.3234 15.6733 36.0154 15.4213 35.7821 15.104C35.5487 14.7867 35.4321 14.4273 35.4321 14.026C35.4321 13.382 35.6934 12.8687 36.2161 12.486C36.7387 12.1033 37.4201 11.8513 38.2601 11.73L40.3461 11.436V11.03C40.3461 10.582 40.2154 10.232 39.9541 9.98C39.7021 9.728 39.2867 9.602 38.7081 9.602C38.2881 9.602 37.9474 9.686 37.6861 9.854C37.4341 10.022 37.2567 10.2367 37.1541 10.498C37.0981 10.638 37.0001 10.708 36.8601 10.708H36.2301C36.1274 10.708 36.0481 10.68 35.9921 10.624C35.9454 10.5587 35.9221 10.484 35.9221 10.4C35.9221 10.26 35.9734 10.0873 36.0761 9.882C36.1881 9.67667 36.3561 9.476 36.5801 9.28C36.8041 9.084 37.0887 8.92067 37.4341 8.79C37.7887 8.65 38.2181 8.58 38.7221 8.58C39.2821 8.58 39.7534 8.65467 40.1361 8.804C40.5187 8.944 40.8174 9.13533 41.0321 9.378C41.2561 9.62067 41.4147 9.896 41.5081 10.204C41.6107 10.512 41.6621 10.8247 41.6621 11.142V15.678C41.6621 15.7713 41.6294 15.8507 41.5641 15.916C41.5081 15.972 41.4334 16 41.3401 16H40.6961C40.5934 16 40.5141 15.972 40.4581 15.916C40.4021 15.8507 40.3741 15.7713 40.3741 15.678V15.076C40.2527 15.244 40.0894 15.412 39.8841 15.58C39.6787 15.7387 39.4221 15.874 39.1141 15.986C38.8061 16.0887 38.4281 16.14 37.9801 16.14ZM38.2741 15.09C38.6567 15.09 39.0067 15.0107 39.3241 14.852C39.6414 14.684 39.8887 14.4273 40.0661 14.082C40.2527 13.7367 40.3461 13.3027 40.3461 12.78V12.388L38.7221 12.626C38.0594 12.7193 37.5601 12.878 37.2241 13.102C36.8881 13.3167 36.7201 13.592 36.7201 13.928C36.7201 14.1893 36.7947 14.4087 36.9441 14.586C37.1027 14.754 37.2987 14.88 37.5321 14.964C37.7747 15.048 38.0221 15.09 38.2741 15.09ZM43.9967 16C43.9033 16 43.824 15.972 43.7587 15.916C43.7027 15.8507 43.6747 15.7713 43.6747 15.678V9.042C43.6747 8.94867 43.7027 8.874 43.7587 8.818C43.824 8.75267 43.9033 8.72 43.9967 8.72H44.6547C44.748 8.72 44.8227 8.75267 44.8787 8.818C44.944 8.874 44.9767 8.94867 44.9767 9.042V9.658C45.2193 9.34067 45.5227 9.084 45.8867 8.888C46.26 8.68267 46.736 8.58 47.3147 8.58C47.9213 8.58 48.4347 8.71533 48.8547 8.986C49.284 9.24733 49.606 9.616 49.8207 10.092C50.0353 10.5587 50.1427 11.1047 50.1427 11.73V15.678C50.1427 15.7713 50.1147 15.8507 50.0587 15.916C50.0027 15.972 49.928 16 49.8347 16H49.1347C49.0413 16 48.962 15.972 48.8967 15.916C48.8407 15.8507 48.8127 15.7713 48.8127 15.678V11.8C48.8127 11.1467 48.654 10.638 48.3367 10.274C48.0193 9.90067 47.5527 9.714 46.9367 9.714C46.358 9.714 45.8913 9.90067 45.5367 10.274C45.1913 10.638 45.0187 11.1467 45.0187 11.8V15.678C45.0187 15.7713 44.986 15.8507 44.9207 15.916C44.8647 15.972 44.79 16 44.6967 16H43.9967ZM54.1949 16.14C53.7282 16.14 53.3036 16.0467 52.9209 15.86C52.5382 15.6733 52.2302 15.4213 51.9969 15.104C51.7636 14.7867 51.6469 14.4273 51.6469 14.026C51.6469 13.382 51.9082 12.8687 52.4309 12.486C52.9536 12.1033 53.6349 11.8513 54.4749 11.73L56.5609 11.436V11.03C56.5609 10.582 56.4302 10.232 56.1689 9.98C55.9169 9.728 55.5016 9.602 54.9229 9.602C54.5029 9.602 54.1622 9.686 53.9009 9.854C53.6489 10.022 53.4716 10.2367 53.3689 10.498C53.3129 10.638 53.2149 10.708 53.0749 10.708H52.4449C52.3422 10.708 52.2629 10.68 52.2069 10.624C52.1602 10.5587 52.1369 10.484 52.1369 10.4C52.1369 10.26 52.1882 10.0873 52.2909 9.882C52.4029 9.67667 52.5709 9.476 52.7949 9.28C53.0189 9.084 53.3036 8.92067 53.6489 8.79C54.0036 8.65 54.4329 8.58 54.9369 8.58C55.4969 8.58 55.9682 8.65467 56.3509 8.804C56.7336 8.944 57.0322 9.13533 57.2469 9.378C57.4709 9.62067 57.6296 9.896 57.7229 10.204C57.8256 10.512 57.8769 10.8247 57.8769 11.142V15.678C57.8769 15.7713 57.8442 15.8507 57.7789 15.916C57.7229 15.972 57.6482 16 57.5549 16H56.9109C56.8082 16 56.7289 15.972 56.6729 15.916C56.6169 15.8507 56.5889 15.7713 56.5889 15.678V15.076C56.4676 15.244 56.3042 15.412 56.0989 15.58C55.8936 15.7387 55.6369 15.874 55.3289 15.986C55.0209 16.0887 54.6429 16.14 54.1949 16.14ZM54.4889 15.09C54.8716 15.09 55.2216 15.0107 55.5389 14.852C55.8562 14.684 56.1036 14.4273 56.2809 14.082C56.4676 13.7367 56.5609 13.3027 56.5609 12.78V12.388L54.9369 12.626C54.2742 12.7193 53.7749 12.878 53.4389 13.102C53.1029 13.3167 52.9349 13.592 52.9349 13.928C52.9349 14.1893 53.0096 14.4087 53.1589 14.586C53.3176 14.754 53.5136 14.88 53.7469 14.964C53.9896 15.048 54.2369 15.09 54.4889 15.09ZM60.2115 16C60.1182 16 60.0388 15.972 59.9735 15.916C59.9175 15.8507 59.8895 15.7713 59.8895 15.678V9.042C59.8895 8.94867 59.9175 8.874 59.9735 8.818C60.0388 8.75267 60.1182 8.72 60.2115 8.72H60.8695C60.9628 8.72 61.0375 8.75267 61.0935 8.818C61.1588 8.874 61.1915 8.94867 61.1915 9.042V9.658C61.4342 9.34067 61.7375 9.084 62.1015 8.888C62.4748 8.68267 62.9508 8.58 63.5295 8.58C64.1362 8.58 64.6495 8.71533 65.0695 8.986C65.4988 9.24733 65.8208 9.616 66.0355 10.092C66.2502 10.5587 66.3575 11.1047 66.3575 11.73V15.678C66.3575 15.7713 66.3295 15.8507 66.2735 15.916C66.2175 15.972 66.1428 16 66.0495 16H65.3495C65.2562 16 65.1768 15.972 65.1115 15.916C65.0555 15.8507 65.0275 15.7713 65.0275 15.678V11.8C65.0275 11.1467 64.8688 10.638 64.5515 10.274C64.2342 9.90067 63.7675 9.714 63.1515 9.714C62.5728 9.714 62.1062 9.90067 61.7515 10.274C61.4062 10.638 61.2335 11.1467 61.2335 11.8V15.678C61.2335 15.7713 61.2008 15.8507 61.1355 15.916C61.0795 15.972 61.0048 16 60.9115 16H60.2115Z" fill="#141F25"/>
<defs>
<linearGradient id="paint0_linear_1_568" x1="-0.113402" y1="4.98333" x2="4.94324" y2="5.04578" gradientUnits="userSpaceOnUse">
<stop stop-color="#FFB629"/>
<stop offset="0.507189" stop-color="#FFDA56"/>
<stop offset="1" stop-color="#FFD7A6"/>
</linearGradient>
</defs>
</svg>
